<svg width="147" height="48" viewBox="0 0 147 48" fill="none" xmlns="http://www.w3.org/2000/svg">
<rect x="0.5" width="146" height="48" rx="24" fill="#3AAA35"/>
<path d="M32.929 29L34.203 26.389L30.689 18.92H32.334L34.966 24.835L37.668 18.92H39.229L34.511 29H32.929ZM42.7969 29.21C42.0642 29.21 41.4062 29.0537 40.8229 28.741C40.2442 28.4283 39.7869 27.9967 39.4509 27.446L40.6129 26.683C40.8835 27.047 41.1962 27.3293 41.5509 27.53C41.9102 27.7307 42.3139 27.831 42.7619 27.831C43.2285 27.831 43.5972 27.726 43.8679 27.516C44.1432 27.3013 44.2809 27.0143 44.2809 26.655C44.2809 26.3703 44.2015 26.1603 44.0429 26.025C43.8889 25.885 43.6742 25.794 43.3989 25.752C43.1282 25.71 42.8202 25.689 42.4749 25.689H41.8029V24.513H42.4749C42.9322 24.513 43.3079 24.45 43.6019 24.324C43.9005 24.1933 44.0499 23.9483 44.0499 23.589C44.0499 23.239 43.9215 22.987 43.6649 22.833C43.4129 22.679 43.1119 22.602 42.7619 22.602C42.3699 22.602 41.9895 22.686 41.6209 22.854C41.2522 23.0173 40.9302 23.2203 40.6549 23.463L39.8009 22.462C40.2022 22.0747 40.6595 21.7737 41.1729 21.559C41.6909 21.3397 42.2462 21.23 42.8389 21.23C43.3242 21.23 43.7722 21.3163 44.1829 21.489C44.5982 21.657 44.9295 21.9067 45.1769 22.238C45.4289 22.5693 45.5549 22.9777 45.5549 23.463C45.5549 23.841 45.4709 24.1863 45.3029 24.499C45.1349 24.8117 44.8782 25.0963 44.5329 25.353L44.4909 24.856C44.7755 24.9447 45.0135 25.087 45.2049 25.283C45.3962 25.479 45.5385 25.71 45.6319 25.976C45.7299 26.2373 45.7789 26.515 45.7789 26.809C45.7789 27.3177 45.6435 27.7517 45.3729 28.111C45.1069 28.4703 44.7475 28.7433 44.2949 28.93C43.8422 29.1167 43.3429 29.21 42.7969 29.21ZM47.5136 29V21.44H48.9766V24.527H52.6656V21.44H54.1286V29H52.6656V25.906H48.9766V29H47.5136ZM58.4279 29.21C57.8679 29.21 57.3989 29.1073 57.0209 28.902C56.6429 28.692 56.3559 28.4167 56.1599 28.076C55.9686 27.7307 55.8729 27.3527 55.8729 26.942C55.8729 26.5593 55.9406 26.2233 56.0759 25.934C56.2112 25.6447 56.4119 25.3997 56.6779 25.199C56.9439 24.9937 57.2706 24.828 57.6579 24.702C57.9939 24.604 58.3742 24.5177 58.7989 24.443C59.2236 24.3683 59.6692 24.2983 60.1359 24.233C60.6072 24.1677 61.0739 24.1023 61.5359 24.037L61.0039 24.331C61.0132 23.7383 60.8872 23.2997 60.6259 23.015C60.3692 22.7257 59.9259 22.581 59.2959 22.581C58.8992 22.581 58.5352 22.6743 58.2039 22.861C57.8726 23.043 57.6416 23.3463 57.5109 23.771L56.1459 23.351C56.3326 22.7023 56.6872 22.1867 57.2099 21.804C57.7372 21.4213 58.4372 21.23 59.3099 21.23C59.9866 21.23 60.5746 21.3467 61.0739 21.58C61.5779 21.8087 61.9466 22.1727 62.1799 22.672C62.3012 22.9193 62.3759 23.1807 62.4039 23.456C62.4319 23.7313 62.4459 24.0277 62.4459 24.345V29H61.1509V27.271L61.4029 27.495C61.0902 28.0737 60.6912 28.5053 60.2059 28.79C59.7252 29.07 59.1326 29.21 58.4279 29.21ZM58.6869 28.013C59.1022 28.013 59.4592 27.9407 59.7579 27.796C60.0566 27.6467 60.2969 27.4577 60.4789 27.229C60.6609 27.0003 60.7799 26.7623 60.8359 26.515C60.9152 26.291 60.9596 26.039 60.9689 25.759C60.9829 25.479 60.9899 25.255 60.9899 25.087L61.4659 25.262C61.0039 25.332 60.5839 25.395 60.2059 25.451C59.8279 25.507 59.4849 25.563 59.1769 25.619C58.8736 25.6703 58.6029 25.7333 58.3649 25.808C58.1642 25.878 57.9846 25.962 57.8259 26.06C57.6719 26.158 57.5482 26.277 57.4549 26.417C57.3662 26.557 57.3219 26.7273 57.3219 26.928C57.3219 27.124 57.3709 27.306 57.4689 27.474C57.5669 27.6373 57.7162 27.768 57.9169 27.866C58.1176 27.964 58.3742 28.013 58.6869 28.013ZM66.4166 29V22.756H63.8336V21.44H70.4626V22.756H67.8796V29H66.4166ZM71.9847 29V21.44H73.4547V24.065H74.9457C75.1604 24.065 75.3891 24.0697 75.6317 24.079C75.8791 24.0883 76.0914 24.1117 76.2687 24.149C76.6747 24.233 77.0247 24.373 77.3187 24.569C77.6174 24.765 77.8484 25.0263 78.0117 25.353C78.1751 25.675 78.2567 26.0717 78.2567 26.543C78.2567 27.201 78.0841 27.726 77.7387 28.118C77.3981 28.5053 76.9361 28.7667 76.3527 28.902C76.1661 28.944 75.9444 28.972 75.6877 28.986C75.4357 28.9953 75.2047 29 74.9947 29H71.9847ZM73.4547 27.824H75.0787C75.1954 27.824 75.3284 27.8193 75.4777 27.81C75.6271 27.8007 75.7647 27.7797 75.8907 27.747C76.1147 27.6817 76.3154 27.5487 76.4927 27.348C76.6701 27.1473 76.7587 26.879 76.7587 26.543C76.7587 26.1977 76.6701 25.9223 76.4927 25.717C76.3201 25.5117 76.1007 25.3787 75.8347 25.318C75.7087 25.2853 75.5804 25.2643 75.4497 25.255C75.3191 25.2457 75.1954 25.241 75.0787 25.241H73.4547V27.824ZM89.3851 30.491V29H82.9941V21.44H84.4571V27.621H87.9081V21.44H89.3711V27.684H90.8481V30.491H89.3851ZM95.5228 29.21C94.7715 29.21 94.1112 29.0467 93.5418 28.72C92.9772 28.3887 92.5362 27.929 92.2188 27.341C91.9062 26.7483 91.7498 26.0623 91.7498 25.283C91.7498 24.457 91.9038 23.7407 92.2118 23.134C92.5245 22.5273 92.9585 22.0583 93.5138 21.727C94.0692 21.3957 94.7155 21.23 95.4528 21.23C96.2228 21.23 96.8785 21.4097 97.4198 21.769C97.9612 22.1237 98.3648 22.63 98.6308 23.288C98.9015 23.946 99.0088 24.7277 98.9528 25.633H97.4898V25.101C97.4805 24.2237 97.3125 23.575 96.9858 23.155C96.6638 22.735 96.1715 22.525 95.5088 22.525C94.7762 22.525 94.2255 22.756 93.8568 23.218C93.4882 23.68 93.3038 24.3473 93.3038 25.22C93.3038 26.0507 93.4882 26.6947 93.8568 27.152C94.2255 27.6047 94.7575 27.831 95.4528 27.831C95.9102 27.831 96.3045 27.7283 96.6358 27.523C96.9718 27.313 97.2332 27.0143 97.4198 26.627L98.8548 27.082C98.5608 27.7587 98.1152 28.2837 97.5178 28.657C96.9205 29.0257 96.2555 29.21 95.5228 29.21ZM92.8278 25.633V24.492H98.2248V25.633H92.8278ZM100.716 29V21.44H102.179V24.527H105.868V21.44H107.331V29H105.868V25.906H102.179V29H100.716ZM110.518 32.36L111.981 28.377L112.002 29.553L108.705 21.44H110.231L112.695 27.705H112.247L114.599 21.44H116.083L111.911 32.36H110.518Z" fill="white"/>
</svg>
