<svg width="140" height="30" viewBox="0 0 140 30" fill="none" xmlns="http://www.w3.org/2000/svg">
<g clip-path="url(#clip0_345_169)">
<path d="M47.1315 29.3182H54.1651L41.783 0.681824H35.162L22.8206 29.3182H29.6885L31.789 23.9988H45.0368L47.1286 29.3182H47.1315ZM33.8895 18.6908L38.4332 7.18748L42.9538 18.6908H33.8895Z" fill="#1A2141"/>
<path d="M119.355 0.681824H111.75L122.092 15L125.898 9.74091L119.355 0.681824Z" fill="#E94E1B"/>
<path d="M111.75 29.3182H119.355L125.898 20.2591L122.095 15L111.75 29.3182Z" fill="#009FE3"/>
<path d="M125.898 9.74091L122.092 15H122.095L125.898 20.2591L129.698 15L125.898 9.74091Z" fill="#3AAA35"/>
<path d="M19.221 1.94849C21.1094 2.7958 22.5649 3.99353 23.5875 5.55029C24.6073 7.10418 25.1186 8.9453 25.1186 11.0736C25.1186 13.202 24.6073 15.0086 23.5875 16.5769C22.5649 18.148 21.1123 19.3457 19.221 20.1787C17.3297 21.0088 15.1043 21.4252 12.539 21.4252H6.70526V29.3211H0V0.681824H12.5361C15.1014 0.681824 17.3297 1.10404 19.2181 1.94849H19.221ZM16.7574 14.7329C17.8061 13.8741 18.3291 12.6534 18.3291 11.0708C18.3291 9.48815 17.8032 8.22723 16.7574 7.36843C15.7086 6.50963 14.1775 6.07879 12.1642 6.07879H6.70236V16.0197H12.1642C14.1775 16.0197 15.7086 15.5888 16.7574 14.73V14.7329Z" fill="#1A2141"/>
<path d="M82.95 0.681824V29.3182H77.4446L63.0028 11.9324V29.3182H56.3817V0.681824H61.9278L76.329 18.0676V0.681824H82.95Z" fill="#1A2141"/>
<path d="M109.69 23.9988V29.3182H87.7931V0.681824H109.681V6.00124H94.4547V24.0016H109.69V23.9988Z" fill="#1A2141"/>
<path d="M127.217 7.83948L131.026 13.1043L140 0.681824H132.397L127.217 7.83948Z" fill="#1A2141"/>
<path d="M127.217 22.1634L131.026 16.8957L140 29.3182H132.397L127.217 22.1634Z" fill="#1A2141"/>
<path d="M114.873 12.3461H98.7429V17.654H114.873V12.3461Z" fill="#1A2141"/>
</g>
<defs>
<clipPath id="clip0_345_169">
<rect width="140" height="28.6364" fill="white" transform="translate(0 0.681824)"/>
</clipPath>
</defs>
</svg>
