<svg width="140" height="54" viewBox="0 0 140 54" fill="none" xmlns="http://www.w3.org/2000/svg">
<path d="M47.133 29.4689H54.1673L41.7827 0.5H35.1642L22.8213 29.4689H29.6893L31.7892 24.0909H45.04L47.133 29.4689ZM33.8891 18.7199L38.4354 7.08383L42.954 18.7199H33.8891Z" fill="#1A2141"/>
<path d="M119.355 0.5H111.752L122.099 14.9844L111.752 29.4689H119.355L129.702 14.9844L119.355 0.5Z" fill="#009FE3"/>
<path d="M19.2179 1.78211C21.1098 2.64148 22.5652 3.85429 23.584 5.42748C24.6027 7.00067 25.1156 8.86493 25.1156 11.0133C25.1156 13.1618 24.6027 14.9914 23.584 16.5784C22.5652 18.1655 21.1098 19.3783 19.2179 20.2238C17.3259 21.0623 15.1012 21.4851 12.537 21.4851H6.70165V29.4689H0V0.5H12.537C15.1012 0.5 17.3328 0.929682 19.2179 1.78211ZM16.7576 14.7141C17.8041 13.8479 18.3308 12.6073 18.3308 11.0133C18.3308 9.41936 17.8041 8.13725 16.7576 7.27095C15.7111 6.40466 14.1795 5.96805 12.1628 5.96805H6.70165V16.024H12.1628C14.1726 16.024 15.7042 15.5874 16.7576 14.7211V14.7141Z" fill="#1A2141"/>
<path d="M82.9498 0.5V29.4689H77.4471L63.0042 11.8796V29.4689H56.3857V0.5H61.93L76.3313 18.0892V0.5H82.9498Z" fill="#1A2141"/>
<path d="M109.694 24.084V29.4619H87.7939V0.5H109.687V5.87795H94.4609V24.084H109.694Z" fill="#1A2141"/>
<path d="M127.221 7.73529L131.025 13.0647L140 0.5H132.398L127.221 7.73529Z" fill="#1A2141"/>
<path d="M127.221 22.2266L131.025 16.9041L140 29.4688H132.398L127.221 22.2266Z" fill="#1A2141"/>
<path d="M114.87 12.2955H98.7432V17.6665H114.87V12.2955Z" fill="#1A2141"/>
<path d="M117.892 43.8355H111.918V53.5657H109.299V41.4237H117.892V43.8355Z" fill="#009FE3"/>
<path d="M127.228 42.5741C128.101 43.4335 128.538 44.7225 128.538 46.4551V53.5726H126.064V52.0964C125.745 52.6301 125.288 53.032 124.692 53.3162C124.096 53.6003 123.382 53.7389 122.543 53.7389C121.705 53.7389 120.97 53.5865 120.339 53.2746C119.709 52.9627 119.224 52.533 118.884 51.9786C118.544 51.4242 118.371 50.8005 118.371 50.1005C118.371 49.0124 118.745 48.1323 119.494 47.4739C120.242 46.8155 121.42 46.4829 123.021 46.4829H125.911V46.3027C125.911 45.4572 125.676 44.7988 125.211 44.3483C124.74 43.8909 124.047 43.6691 123.125 43.6691C122.495 43.6691 121.878 43.7731 121.268 43.9879C120.658 44.2028 120.145 44.4938 119.729 44.875L118.704 42.8028C119.293 42.3177 119.993 41.9435 120.818 41.6871C121.642 41.4306 122.515 41.299 123.437 41.299C125.087 41.299 126.348 41.7286 127.221 42.5811L127.228 42.5741ZM124.837 51.1678C125.35 50.842 125.703 50.3777 125.918 49.7678V48.3541H123.215C121.705 48.3541 120.949 48.8946 120.949 49.9688C120.949 50.4817 121.136 50.8906 121.517 51.1955C121.892 51.5004 122.418 51.6529 123.091 51.6529C123.763 51.6529 124.331 51.4935 124.837 51.1608V51.1678Z" fill="#009FE3"/>
<path d="M139.425 48.2847C139.806 48.7629 140 49.3382 140 50.0035C140 50.745 139.772 51.4034 139.307 51.9717C138.843 52.54 138.212 52.9835 137.402 53.3023C136.591 53.6211 135.669 53.7805 134.636 53.7805C133.77 53.7805 132.925 53.6696 132.1 53.4479C131.275 53.2261 130.527 52.9142 129.861 52.5053L130.617 50.3916C131.164 50.7242 131.774 50.9806 132.46 51.1678C133.146 51.3549 133.832 51.438 134.512 51.438C135.392 51.438 136.078 51.2925 136.577 50.9945C137.069 50.6965 137.318 50.2945 137.318 49.7817C137.318 49.3104 137.124 48.9501 136.743 48.6867C136.362 48.4303 135.814 48.2986 135.121 48.2986H132.945V46.3858H134.914C135.572 46.3858 136.085 46.268 136.452 46.0185C136.819 45.776 137.007 45.4364 137.007 44.9928C137.007 44.5493 136.785 44.2028 136.334 43.9463C135.891 43.6899 135.274 43.5582 134.491 43.5582C133.375 43.5582 132.19 43.8493 130.949 44.4453L130.277 42.3524C131.746 41.6108 133.223 41.2366 134.719 41.2366C135.669 41.2366 136.521 41.3752 137.277 41.6593C138.032 41.9435 138.621 42.3316 139.051 42.8444C139.474 43.3503 139.689 43.9325 139.689 44.5839C139.689 45.173 139.522 45.6997 139.183 46.1641C138.85 46.6284 138.386 46.9888 137.797 47.2452C138.497 47.46 139.037 47.7996 139.418 48.2778L139.425 48.2847Z" fill="#009FE3"/>
</svg>
