<svg width="135" height="21" viewBox="0 0 135 21" fill="none" xmlns="http://www.w3.org/2000/svg">
<g clip-path="url(#clip0_828_1829)">
<path d="M28.2257 18.1234H32.4382L25.0217 0.775391H21.0583L13.6667 18.1234H17.7796L19.0371 14.8987H26.9723L28.2257 18.1234ZM20.2946 11.6864L23.013 4.71812L25.719 11.6864H20.2905H20.2946Z" fill="#1A2141"/>
<path d="M71.4753 0.775391H66.9225L73.1188 9.44939L66.9225 18.1234H71.4753L77.6716 9.44939L71.4753 0.775391Z" fill="#3AAA35"/>
<path d="M11.5085 1.54318C12.6416 2.05366 13.5131 2.78411 14.1232 3.72206C14.7333 4.66416 15.0404 5.78058 15.0404 7.06715C15.0404 8.35373 14.7333 9.44939 14.1232 10.3998C13.5131 11.3502 12.6416 12.0765 11.5085 12.5828C10.3755 13.085 9.0433 13.3382 7.50772 13.3382H4.01322V18.1234H-6.10352e-05V0.775391H7.50772C9.0433 0.775391 10.3797 1.03271 11.5085 1.54318ZM10.0352 9.28753C10.6619 8.76875 10.9773 8.02586 10.9773 7.0713C10.9773 6.11675 10.6619 5.34895 10.0352 4.83017C9.40852 4.31139 8.49132 4.04993 7.2836 4.04993H4.01322V10.0719H7.2836C8.48717 10.0719 9.40437 9.81046 10.0352 9.29168V9.28753Z" fill="#1A2141"/>
<path d="M49.6741 0.775391V18.1234H46.3788L37.7297 7.59008V18.1234H33.7662V0.775391H37.0864L45.7106 11.3087V0.775391H49.6741Z" fill="#1A2141"/>
<path d="M65.6899 14.8987V18.1192H52.5751V0.775391H65.6816V3.99598H56.5635V14.8987H65.6857H65.6899Z" fill="#1A2141"/>
<path d="M76.1858 5.10824L78.4643 8.29977L83.8388 0.775391H79.286L76.1858 5.10824Z" fill="#1A2141"/>
<path d="M76.1858 13.7863L78.4643 10.5947L83.8388 18.1233H79.286L76.1858 13.7863Z" fill="#1A2141"/>
<path d="M68.7901 7.83887H59.1325V11.0553H68.7901V7.83887Z" fill="#1A2141"/>
<path d="M90.6951 17.7537C90.1431 17.4341 89.7115 16.9942 89.4043 16.4256C89.0931 15.857 88.9395 15.2179 88.9395 14.4999C88.9395 13.7819 89.0931 13.1427 89.4043 12.5783C89.7156 12.0139 90.1431 11.5739 90.6909 11.2585C91.2387 10.939 91.8654 10.7812 92.5668 10.7812C93.2267 10.7812 93.8077 10.9265 94.3058 11.217C94.8038 11.5075 95.1773 11.9267 95.4305 12.4704L94.2269 13.234C94.036 12.8979 93.7953 12.6447 93.5048 12.4787C93.2143 12.3085 92.8988 12.2255 92.5585 12.2255C91.9733 12.2255 91.4878 12.433 91.1018 12.8439C90.7158 13.2589 90.5249 13.8068 90.5249 14.4999C90.5249 15.193 90.7158 15.7408 91.0976 16.1558C91.4795 16.5708 91.965 16.7742 92.5585 16.7742C92.903 16.7742 93.2184 16.6912 93.5048 16.521C93.7911 16.3509 94.0319 16.1019 94.2269 15.7657L95.4305 16.5293C95.1732 17.073 94.7913 17.4922 94.2933 17.7869C93.7953 18.0815 93.2226 18.2309 92.5668 18.2309C91.8737 18.2309 91.2512 18.0732 90.6951 17.7537Z" fill="#3AAA35"/>
<path d="M102.644 15.0435H97.3853C97.4766 15.5789 97.7173 16.0023 98.1074 16.3177C98.4975 16.6331 98.979 16.7866 99.5558 16.7866C100.29 16.7866 100.901 16.5252 101.374 15.9981L102.216 17.0481C101.917 17.4382 101.535 17.7329 101.075 17.9321C100.614 18.1313 100.095 18.2309 99.5185 18.2309C98.7797 18.2309 98.1323 18.0732 97.572 17.7537C97.0117 17.4341 96.5801 16.9942 96.273 16.4256C95.9659 15.857 95.8165 15.2179 95.8165 14.4999C95.8165 13.7819 95.9659 13.1552 96.2605 12.5866C96.5552 12.018 96.9702 11.5781 97.4973 11.2585C98.0244 10.939 98.6179 10.7812 99.2778 10.7812C99.9377 10.7812 100.515 10.939 101.029 11.2502C101.544 11.5615 101.946 12.0056 102.233 12.57C102.523 13.1386 102.664 13.7943 102.664 14.5372C102.664 14.6576 102.656 14.8236 102.639 15.0394L102.644 15.0435ZM98.0078 12.6281C97.6592 12.9518 97.4475 13.3793 97.3728 13.9147H101.174C101.108 13.3876 100.905 12.9601 100.56 12.6364C100.216 12.3085 99.7882 12.1467 99.2819 12.1467C98.7756 12.1467 98.3564 12.3085 98.0078 12.6323V12.6281Z" fill="#3AAA35"/>
<path d="M109.537 11.2417C110.052 11.5488 110.454 11.9846 110.749 12.549C111.044 13.1134 111.189 13.7609 111.189 14.4955C111.189 15.2301 111.044 15.8816 110.749 16.4502C110.454 17.0188 110.052 17.4546 109.537 17.7659C109.023 18.073 108.437 18.2307 107.786 18.2307C106.881 18.2307 106.167 17.9028 105.64 17.2512V20.7789H104.071V10.864H105.565V11.8186C105.823 11.4741 106.146 11.2126 106.524 11.0425C106.906 10.8682 107.325 10.7852 107.786 10.7852C108.437 10.7852 109.023 10.9387 109.537 11.25V11.2417ZM109.035 16.1431C109.408 15.7281 109.595 15.1761 109.595 14.4955C109.595 13.8148 109.408 13.267 109.035 12.8478C108.661 12.4287 108.188 12.2211 107.611 12.2211C107.234 12.2211 106.898 12.3166 106.595 12.4992C106.292 12.686 106.055 12.9516 105.881 13.2961C105.706 13.6405 105.615 14.0389 105.615 14.4955C105.615 14.952 105.702 15.3504 105.881 15.6949C106.055 16.0394 106.296 16.305 106.595 16.4917C106.893 16.6785 107.234 16.7698 107.611 16.7698C108.188 16.7698 108.666 16.5623 109.035 16.1431Z" fill="#3AAA35"/>
<path d="M118.531 16.0897C118.531 16.7412 118.307 17.2476 117.854 17.6003C117.402 17.9531 116.734 18.1316 115.846 18.1316H112.43V10.8604H115.704C116.522 10.8604 117.165 11.0222 117.626 11.3501C118.087 11.6779 118.315 12.1386 118.315 12.7404C118.315 13.1139 118.224 13.4335 118.045 13.7074C117.867 13.9813 117.614 14.193 117.286 14.3466C118.116 14.6205 118.527 15.2015 118.527 16.0897H118.531ZM113.924 13.8983H115.567C116.381 13.8983 116.783 13.5954 116.783 12.9853C116.783 12.3752 116.377 12.1013 115.567 12.1013H113.924V13.8983ZM117.012 15.9817C117.012 15.6622 116.912 15.4256 116.713 15.2679C116.514 15.1102 116.198 15.0272 115.771 15.0272H113.924V16.8948H115.721C116.584 16.8948 117.012 16.5918 117.012 15.9817Z" fill="#3AAA35"/>
<path d="M119.888 10.8604H121.457V15.6539L125.159 10.8604H126.59V18.1316H125.022V13.338L121.332 18.1316H119.888V10.8604Z" fill="#3AAA35"/>
<path d="M129.562 17.7537C129.01 17.4341 128.578 16.9942 128.271 16.4256C127.96 15.857 127.806 15.2179 127.806 14.4999C127.806 13.7819 127.96 13.1427 128.271 12.5783C128.583 12.0139 129.01 11.5739 129.558 11.2585C130.106 10.9431 130.732 10.7812 131.434 10.7812C132.094 10.7812 132.675 10.9265 133.173 11.217C133.671 11.5075 134.044 11.9267 134.297 12.4704L133.094 13.234C132.903 12.8979 132.662 12.6447 132.372 12.4787C132.081 12.3085 131.766 12.2255 131.425 12.2255C130.84 12.2255 130.355 12.433 129.969 12.8439C129.583 13.2589 129.392 13.8068 129.392 14.4999C129.392 15.193 129.583 15.7408 129.965 16.1558C130.346 16.5708 130.832 16.7742 131.425 16.7742C131.77 16.7742 132.085 16.6912 132.372 16.521C132.658 16.3509 132.899 16.1019 133.094 15.7657L134.297 16.5293C134.04 17.073 133.658 17.4922 133.16 17.7869C132.662 18.0815 132.085 18.2309 131.434 18.2309C130.741 18.2309 130.114 18.0732 129.562 17.7537Z" fill="#3AAA35"/>
</g>
<defs>
<clipPath id="clip0_828_1829">
<rect width="134.293" height="20" fill="white" transform="translate(-6.10352e-05 0.775391)"/>
</clipPath>
</defs>
</svg>
