<svg width="140" height="59" viewBox="0 0 140 59" fill="none" xmlns="http://www.w3.org/2000/svg">
<path d="M47.133 29.4689H54.1673L41.7827 0.5H35.1642L22.8213 29.4689H29.6893L31.7892 24.0909H45.04L47.133 29.4689ZM33.8891 18.7199L38.4354 7.08383L42.954 18.7199H33.8891Z" fill="#1A2141"/>
<path d="M119.355 0.5H111.752L122.099 14.9844L111.752 29.4689H119.355L129.702 14.9844L119.355 0.5Z" fill="#E94E1B"/>
<path d="M19.2179 1.78211C21.1098 2.63455 22.5652 3.85429 23.584 5.42055C24.6027 6.99374 25.1156 8.858 25.1156 11.0064C25.1156 13.1548 24.6027 14.9844 23.584 16.5715C22.5652 18.1585 21.1098 19.3713 19.2179 20.2168C17.3259 21.0554 15.1012 21.4782 12.537 21.4782H6.70165V29.4619H0V0.5H12.537C15.1012 0.5 17.3328 0.929682 19.2179 1.78211ZM16.7576 14.7141C17.8041 13.8479 18.3308 12.6073 18.3308 11.0133C18.3308 9.41936 17.8041 8.13725 16.7576 7.27095C15.7111 6.40466 14.1795 5.96805 12.1628 5.96805H6.70165V16.024H12.1628C14.1726 16.024 15.7042 15.5874 16.7576 14.7211V14.7141Z" fill="#1A2141"/>
<path d="M82.9498 0.5V29.4689H77.4471L63.0042 11.8796V29.4689H56.3857V0.5H61.93L76.3313 18.0892V0.5H82.9498Z" fill="#1A2141"/>
<path d="M109.694 24.084V29.4619H87.7939V0.5H109.687V5.87795H94.4609V24.084H109.694Z" fill="#1A2141"/>
<path d="M127.221 7.73529L131.025 13.0647L140 0.5H132.398L127.221 7.73529Z" fill="#1A2141"/>
<path d="M127.221 22.2266L131.025 16.9041L140 29.4688H132.398L127.221 22.2266Z" fill="#1A2141"/>
<path d="M114.87 12.2955H98.7432V17.6665H114.87V12.2955Z" fill="#1A2141"/>
<path d="M49.4062 42.089C50.3418 42.6296 51.0764 43.3711 51.6101 44.3206C52.1437 45.27 52.407 46.3443 52.407 47.5363C52.407 48.7283 52.1437 49.8094 51.6101 50.7658C51.0764 51.7222 50.3418 52.4707 49.4062 53.0043C48.4706 53.5449 47.4172 53.8152 46.239 53.8152C45.2203 53.8152 44.2985 53.635 43.4738 53.2677C42.6491 52.9073 41.9491 52.3806 41.3809 51.7014L42.8917 50.1074C43.7718 51.0638 44.853 51.542 46.142 51.542C47.0915 51.542 47.9023 51.2648 48.5815 50.7104C49.2607 50.1559 49.6973 49.4213 49.8913 48.4927H44.7144V46.4482H49.8705C49.6626 45.5542 49.2191 44.8473 48.5538 44.3206C47.8815 43.8008 47.0776 43.5375 46.142 43.5375C44.853 43.5375 43.7718 44.0226 42.8917 44.9928L41.3809 43.3989C41.9422 42.6989 42.6353 42.1722 43.4669 41.8187C44.2985 41.4653 45.2203 41.2851 46.246 41.2851C47.4172 41.2851 48.4775 41.5554 49.4131 42.089H49.4062Z" fill="#E94E1B"/>
<path d="M59.0673 48.7421H57.0367V53.6072H54.417V41.4653H57.0367V46.3789H59.1296L62.4423 41.4653H65.2491L61.181 47.3076L65.5194 53.6072H62.4354L59.0603 48.7421H59.0673Z" fill="#E94E1B"/>
<path d="M68.4374 52.9766C67.5157 52.443 66.7949 51.7084 66.2821 50.7589C65.7623 49.8094 65.5059 48.7422 65.5059 47.5432C65.5059 46.3443 65.7623 45.277 66.2821 44.3345C66.7949 43.3919 67.5157 42.6573 68.4305 42.1306C69.3453 41.597 70.3918 41.3336 71.563 41.3336C72.6649 41.3336 73.6352 41.5762 74.4668 42.0613C75.2984 42.5464 75.9222 43.2464 76.3449 44.1543L74.3351 45.4295C74.0163 44.8681 73.6144 44.4453 73.1292 44.1681C72.6441 43.884 72.1174 43.7454 71.5491 43.7454C70.5719 43.7454 69.7611 44.0919 69.1166 44.778C68.4721 45.471 68.1533 46.3928 68.1533 47.5432C68.1533 48.6936 68.4721 49.6154 69.1096 50.3084C69.7472 51.0015 70.5581 51.341 71.5491 51.341C72.1243 51.341 72.6511 51.2024 73.1292 50.9183C73.6144 50.6411 74.0163 50.2183 74.3351 49.657L76.3449 50.9322C75.9083 51.84 75.2777 52.5469 74.446 53.039C73.6144 53.531 72.6511 53.7805 71.563 53.7805C70.4056 53.7805 69.3661 53.5172 68.4374 52.9835V52.9766Z" fill="#E94E1B"/>
<path d="M88.8463 41.4653V53.6072H86.2475V43.877H80.7378V53.6072H78.1182V41.4653H88.8463Z" fill="#E94E1B"/>
<path d="M100.989 42.1029C101.848 42.6226 102.52 43.3434 103.012 44.2859C103.504 45.2284 103.747 46.3096 103.747 47.5363C103.747 48.7629 103.504 49.851 103.012 50.8004C102.52 51.7499 101.848 52.4776 100.989 52.9974C100.129 53.5102 99.1521 53.7736 98.064 53.7736C96.5532 53.7736 95.3612 53.2261 94.481 52.138V58.0288H91.8613V41.4722H94.3562V43.0662C94.7859 42.491 95.3265 42.0613 95.9572 41.7702C96.5948 41.4861 97.2947 41.3405 98.064 41.3405C99.1521 41.3405 100.129 41.5969 100.989 42.1167V42.1029ZM100.15 50.2876C100.774 49.5876 101.086 48.6728 101.086 47.5363C101.086 46.3997 100.774 45.4849 100.15 44.7849C99.5263 44.0849 98.7362 43.7384 97.7729 43.7384C97.1423 43.7384 96.5809 43.8909 96.075 44.2028C95.576 44.5146 95.174 44.9582 94.883 45.5334C94.5919 46.1086 94.4463 46.7739 94.4463 47.5363C94.4463 48.2986 94.5919 48.9639 94.883 49.5391C95.174 50.1143 95.576 50.5579 96.075 50.8697C96.5809 51.1816 97.1423 51.3341 97.7729 51.3341C98.7362 51.3341 99.5332 50.9876 100.15 50.2876Z" fill="#E94E1B"/>
<path d="M116.256 48.4511H107.475C107.628 49.3451 108.03 50.052 108.681 50.5787C109.332 51.0985 110.136 51.3618 111.1 51.3618C112.326 51.3618 113.345 50.9252 114.135 50.0451L115.542 51.7984C115.036 52.4499 114.405 52.942 113.636 53.2746C112.867 53.6073 112.001 53.7736 111.037 53.7736C109.811 53.7736 108.723 53.5102 107.787 52.9766C106.851 52.443 106.131 51.7084 105.618 50.7589C105.105 49.8094 104.855 48.7422 104.855 47.5432C104.855 46.3443 105.105 45.2978 105.597 44.3483C106.096 43.3989 106.782 42.6642 107.662 42.1306C108.542 41.597 109.533 41.3336 110.635 41.3336C111.737 41.3336 112.701 41.597 113.56 42.1167C114.419 42.6365 115.092 43.3781 115.57 44.3206C116.055 45.2701 116.291 46.3651 116.291 47.6056C116.291 47.8066 116.277 48.0838 116.249 48.4442L116.256 48.4511ZM108.515 44.4176C107.933 44.9582 107.579 45.672 107.454 46.566H113.803C113.692 45.6859 113.345 44.9721 112.777 44.4246C112.202 43.8771 111.488 43.6068 110.642 43.6068C109.797 43.6068 109.097 43.8771 108.515 44.4107V44.4176Z" fill="#E94E1B"/>
<path d="M120.615 52.9766C119.693 52.443 118.973 51.7084 118.46 50.7589C117.94 49.8094 117.684 48.7422 117.684 47.5432C117.684 46.3443 117.94 45.277 118.46 44.3345C118.973 43.3919 119.693 42.6573 120.608 42.1306C121.523 41.597 122.569 41.3336 123.741 41.3336C124.843 41.3336 125.813 41.5762 126.645 42.0613C127.476 42.5464 128.1 43.2464 128.523 44.1543L126.513 45.4295C126.194 44.8681 125.792 44.4453 125.307 44.1681C124.822 43.884 124.295 43.7454 123.727 43.7454C122.75 43.7454 121.939 44.0919 121.294 44.778C120.65 45.471 120.331 46.3928 120.331 47.5432C120.331 48.6936 120.65 49.6154 121.287 50.3084C121.925 51.0015 122.736 51.341 123.727 51.341C124.302 51.341 124.829 51.2024 125.307 50.9183C125.785 50.6411 126.187 50.2183 126.513 49.657L128.523 50.9322C128.093 51.84 127.455 52.5469 126.624 53.039C125.792 53.531 124.829 53.7805 123.741 53.7805C122.583 53.7805 121.537 53.5172 120.615 52.9835V52.9766Z" fill="#E94E1B"/>
<path d="M132.1 52.9766C131.178 52.443 130.457 51.7084 129.937 50.7589C129.424 49.8094 129.161 48.7422 129.161 47.5432C129.161 46.3443 129.418 45.277 129.937 44.3345C130.457 43.3919 131.171 42.6573 132.086 42.1306C133.001 41.597 134.047 41.3336 135.218 41.3336C136.32 41.3336 137.29 41.5762 138.122 42.0613C138.954 42.5464 139.577 43.2464 140 44.1543L137.99 45.4295C137.672 44.8681 137.27 44.4453 136.785 44.1681C136.299 43.884 135.773 43.7454 135.204 43.7454C134.227 43.7454 133.416 44.0919 132.772 44.778C132.127 45.471 131.809 46.3928 131.809 47.5432C131.809 48.6936 132.127 49.6154 132.765 50.3084C133.403 51.0015 134.213 51.341 135.204 51.341C135.78 51.341 136.306 51.2024 136.785 50.9183C137.263 50.6411 137.665 50.2183 137.99 49.657L140 50.9322C139.571 51.84 138.933 52.5469 138.101 53.039C137.27 53.531 136.306 53.7805 135.218 53.7805C134.061 53.7805 133.014 53.5172 132.093 52.9835L132.1 52.9766Z" fill="#E94E1B"/>
</svg>
