<svg width="177" height="24" viewBox="0 0 177 24" fill="none" xmlns="http://www.w3.org/2000/svg">
<path d="M33.6618 20.7593H38.6855L29.8407 0.0703125H25.1139L16.2988 20.7593H21.2038L22.7035 16.9185H32.167L33.6618 20.7593ZM24.2032 13.0826L27.4452 4.77236L30.6772 13.0826H24.2032Z" fill="#1A2141"/>
<path d="M85.2407 0.0703125H79.811L87.2007 10.4148L79.811 20.7593H85.2407L92.6303 10.4148L85.2407 0.0703125Z" fill="#E94E1B"/>
<path d="M13.725 0.985974C15.0762 1.59477 16.1156 2.46588 16.8432 3.58447C17.5708 4.70801 17.9371 6.03944 17.9371 7.57379C17.9371 9.10814 17.5708 10.4148 16.8432 11.5483C16.1156 12.6817 15.0762 13.5479 13.725 14.1517C12.3738 14.7506 10.785 15.0525 8.95369 15.0525H4.78619V20.7544H0V0.0703125H8.95369C10.785 0.0703125 12.3788 0.377183 13.725 0.985974ZM11.9679 10.2218C12.7153 9.60309 13.0915 8.71713 13.0915 7.57874C13.0915 6.44035 12.7153 5.52469 11.9679 4.906C11.2206 4.28731 10.1267 3.97549 8.68641 3.97549H4.78619V11.1572H8.68641C10.1218 11.1572 11.2156 10.8454 11.9679 10.2267V10.2218Z" fill="#1A2141"/>
<path d="M59.2408 0.0703125V20.7593H55.3109L44.9961 8.19743V20.7593H40.2693V0.0703125H44.2289L54.514 12.6322V0.0703125H59.2408Z" fill="#1A2141"/>
<path d="M78.3412 16.9135V20.7544H62.7007V0.0703125H78.3313V3.91114H67.4572V16.9135H78.3362H78.3412Z" fill="#1A2141"/>
<path d="M90.8584 5.23761L93.5757 9.0438L99.9853 0.0703125H94.5557L90.8584 5.23761Z" fill="#1A2141"/>
<path d="M90.8584 15.5874L93.5757 11.7861L99.9853 20.7596H94.5557L90.8584 15.5874Z" fill="#1A2141"/>
<path d="M82.0383 8.49414H70.5208V12.33H82.0383V8.49414Z" fill="#1A2141"/>
<path d="M111.8 12.5332C112.468 12.9193 112.993 13.4489 113.374 14.1269C113.755 14.805 113.943 15.5722 113.943 16.4235C113.943 17.2748 113.755 18.047 113.374 18.73C112.993 19.413 112.468 19.9476 111.8 20.3287C111.132 20.7148 110.379 20.9028 109.538 20.9028C108.81 20.9028 108.152 20.7742 107.563 20.5118C106.974 20.2545 106.474 19.8783 106.068 19.3932L107.147 18.2548C107.776 18.9379 108.548 19.2794 109.469 19.2794C110.147 19.2794 110.726 19.0814 111.211 18.6855C111.696 18.2895 112.008 17.7648 112.146 17.1016H108.449V15.6415H112.132C111.983 15.003 111.666 14.4982 111.191 14.122C110.711 13.7508 110.137 13.5627 109.469 13.5627C108.548 13.5627 107.776 13.9092 107.147 14.6021L106.068 13.4637C106.464 12.9638 106.964 12.5876 107.558 12.3352C108.152 12.0828 108.81 11.9541 109.538 11.9541C110.379 11.9541 111.132 12.1471 111.8 12.5282V12.5332Z" fill="#E94E1B"/>
<path d="M118.7 17.2849H117.249V20.7595H115.378V12.0879H117.249V15.5971H118.749L121.115 12.0879H123.119L120.214 16.2603L123.313 20.7595H121.11L118.7 17.2849Z" fill="#E94E1B"/>
<path d="M125.391 20.3093C124.733 19.9282 124.218 19.4036 123.852 18.7255C123.481 18.0474 123.298 17.2852 123.298 16.4289C123.298 15.5726 123.481 14.8104 123.852 14.1373C124.218 13.4641 124.733 12.9395 125.386 12.5633C126.04 12.1822 126.787 11.9941 127.623 11.9941C128.41 11.9941 129.103 12.1674 129.697 12.5138C130.291 12.8603 130.737 13.3602 131.039 14.0086L129.603 14.9193C129.376 14.5184 129.089 14.2165 128.742 14.0185C128.396 13.8156 128.019 13.7166 127.614 13.7166C126.916 13.7166 126.337 13.9641 125.876 14.4541C125.416 14.949 125.188 15.6073 125.188 16.4289C125.188 17.2505 125.416 17.9088 125.871 18.4038C126.327 18.8987 126.906 19.1413 127.614 19.1413C128.024 19.1413 128.401 19.0423 128.742 18.8393C129.089 18.6413 129.376 18.3394 129.603 17.9385L131.039 18.8492C130.732 19.4976 130.276 20.0025 129.682 20.3539C129.089 20.7053 128.401 20.8835 127.623 20.8835C126.797 20.8835 126.054 20.6954 125.391 20.3143V20.3093Z" fill="#E94E1B"/>
<path d="M139.968 12.0879V20.7595H138.111V13.8103H134.177V20.7595H132.306V12.0879H139.968Z" fill="#E94E1B"/>
<path d="M148.639 12.5435C149.253 12.9147 149.733 13.4294 150.084 14.1026C150.436 14.7757 150.609 15.5478 150.609 16.4239C150.609 17.3 150.436 18.077 150.084 18.7551C149.738 19.4332 149.253 19.9529 148.639 20.3241C148.025 20.6904 147.332 20.8785 146.55 20.8785C145.471 20.8785 144.62 20.4875 143.992 19.7104V23.9175H142.121V12.0931H143.902V13.2315C144.209 12.8206 144.595 12.5138 145.046 12.3059C145.501 12.103 146.001 11.999 146.55 11.999C147.327 11.999 148.025 12.1822 148.639 12.5534V12.5435ZM148.04 18.3889C148.486 17.889 148.708 17.2356 148.708 16.4239C148.708 15.6122 148.486 14.9588 148.04 14.4589C147.595 13.959 147.031 13.7116 146.343 13.7116C145.892 13.7116 145.491 13.8204 145.13 14.0432C144.774 14.2659 144.486 14.5827 144.279 14.9935C144.071 15.4043 143.967 15.8794 143.967 16.4239C143.967 16.9683 144.071 17.4435 144.279 17.8543C144.486 18.2651 144.774 18.5819 145.13 18.8046C145.491 19.0273 145.892 19.1362 146.343 19.1362C147.031 19.1362 147.6 18.8888 148.04 18.3889Z" fill="#E94E1B"/>
<path d="M159.543 17.0773H153.272C153.381 17.7158 153.668 18.2206 154.133 18.5968C154.599 18.968 155.173 19.1561 155.861 19.1561C156.737 19.1561 157.464 18.8443 158.029 18.2157L159.033 19.4679C158.672 19.9332 158.222 20.2846 157.672 20.5222C157.123 20.7597 156.504 20.8785 155.816 20.8785C154.94 20.8785 154.163 20.6905 153.495 20.3093C152.827 19.9282 152.312 19.4036 151.946 18.7255C151.579 18.0474 151.401 17.2852 151.401 16.4289C151.401 15.5726 151.579 14.8253 151.931 14.1472C152.287 13.4691 152.777 12.9444 153.406 12.5633C154.034 12.1822 154.742 11.9941 155.529 11.9941C156.316 11.9941 157.004 12.1822 157.618 12.5534C158.231 12.9247 158.712 13.4542 159.053 14.1274C159.4 14.8055 159.568 15.5875 159.568 16.4735C159.568 16.617 159.558 16.815 159.538 17.0724L159.543 17.0773ZM154.014 14.1967C153.599 14.5827 153.346 15.0925 153.257 15.731H157.791C157.712 15.1024 157.464 14.5926 157.058 14.2066C156.648 13.8156 156.138 13.6225 155.534 13.6225C154.93 13.6225 154.43 13.8156 154.014 14.1967Z" fill="#E94E1B"/>
<path d="M162.656 20.3093C161.998 19.9282 161.483 19.4036 161.117 18.7255C160.746 18.0474 160.562 17.2852 160.562 16.4289C160.562 15.5726 160.746 14.8104 161.117 14.1373C161.488 13.4641 161.998 12.9395 162.651 12.5633C163.305 12.1822 164.052 11.9941 164.888 11.9941C165.675 11.9941 166.368 12.1674 166.962 12.5138C167.556 12.8603 168.002 13.3602 168.304 14.0086L166.868 14.9193C166.641 14.5184 166.353 14.2165 166.007 14.0185C165.661 13.8156 165.284 13.7166 164.878 13.7166C164.181 13.7166 163.602 13.9641 163.141 14.4541C162.681 14.949 162.453 15.6073 162.453 16.4289C162.453 17.2505 162.681 17.9088 163.131 18.4038C163.587 18.8987 164.166 19.1413 164.874 19.1413C165.284 19.1413 165.661 19.0423 166.002 18.8393C166.349 18.6413 166.631 18.3394 166.863 17.9385L168.299 18.8492C167.992 19.4976 167.536 20.0025 166.942 20.3539C166.348 20.7053 165.661 20.8835 164.883 20.8835C164.057 20.8835 163.309 20.6954 162.651 20.3143L162.656 20.3093Z" fill="#E94E1B"/>
<path d="M170.858 20.3093C170.199 19.9282 169.685 19.4036 169.313 18.7255C168.947 18.0474 168.759 17.2852 168.759 16.4289C168.759 15.5726 168.942 14.8104 169.313 14.1373C169.685 13.4641 170.194 12.9395 170.848 12.5633C171.501 12.1822 172.248 11.9941 173.085 11.9941C173.872 11.9941 174.565 12.1674 175.159 12.5138C175.753 12.8603 176.198 13.3602 176.5 14.0086L175.065 14.9193C174.837 14.5184 174.55 14.2165 174.204 14.0185C173.857 13.8156 173.481 13.7166 173.075 13.7166C172.377 13.7166 171.798 13.9641 171.338 14.4541C170.877 14.949 170.65 15.6073 170.65 16.4289C170.65 17.2505 170.877 17.9088 171.333 18.4038C171.788 18.8987 172.367 19.1413 173.075 19.1413C173.486 19.1413 173.862 19.0423 174.204 18.8393C174.545 18.6413 174.832 18.3394 175.065 17.9385L176.5 18.8492C176.193 19.4976 175.738 20.0025 175.144 20.3539C174.55 20.7053 173.862 20.8835 173.085 20.8835C172.258 20.8835 171.516 20.6954 170.853 20.3143L170.858 20.3093Z" fill="#E94E1B"/>
</svg>
