<svg width="128" height="21" viewBox="0 0 128 21" fill="none" xmlns="http://www.w3.org/2000/svg">
<path d="M33.6635 20.7602H38.6874L29.8423 0.0703125H25.1153L16.2998 20.7602H21.205L22.7048 16.9192H32.1686L33.6635 20.7602ZM24.2045 13.0832L27.4466 4.77256L30.6738 13.0832H24.1996H24.2045Z" fill="#1A2141"/>
<path d="M85.2443 0.0703125H79.8145L87.2044 10.4152L79.8145 20.7602H85.2443L92.6342 10.4152L85.2443 0.0703125Z" fill="#009FE3"/>
<path d="M13.7256 0.986012C15.0769 1.59978 16.1163 2.46598 16.8439 3.58957C17.5715 4.71316 17.9378 6.04464 17.9378 7.57905C17.9378 9.11347 17.5715 10.4202 16.8439 11.5537C16.1163 12.6872 15.0769 13.5534 13.7256 14.1572C12.3743 14.7562 10.7855 15.0581 8.95406 15.0581H4.78639V20.7602H0V0.0703125H8.95406C10.7855 0.0703125 12.3793 0.377196 13.7256 0.986012ZM11.9684 10.2222C12.7159 9.60349 13.092 8.71749 13.092 7.57905C13.092 6.44061 12.7159 5.52491 11.9684 4.9062C11.221 4.28748 10.1271 3.97565 8.68678 3.97565H4.78639V11.1577H8.68678C10.1222 11.1577 11.2161 10.8459 11.9684 10.2272V10.2222Z" fill="#1A2141"/>
<path d="M59.2433 0.0703125V20.7602H55.3132L44.998 8.19777V20.7602H40.271V0.0703125H44.2308L54.5163 12.6327V0.0703125H59.2433Z" fill="#1A2141"/>
<path d="M78.3443 16.9142V20.7552H62.7031V0.0703125H78.3344V3.9113H67.4598V16.9142H78.3393H78.3443Z" fill="#1A2141"/>
<path d="M90.8623 5.23783L93.5797 9.04417L99.9896 0.0703125H94.5597L90.8623 5.23783Z" fill="#1A2141"/>
<path d="M90.8623 15.5875L93.5797 11.7861L99.9896 20.76H94.5597L90.8623 15.5875Z" fill="#1A2141"/>
<path d="M82.0419 8.49512H70.5239V12.3312H82.0419V8.49512Z" fill="#1A2141"/>
<path d="M112.206 13.8114H107.939V20.7608H106.068V12.0889H112.206V13.8114Z" fill="#009FE3"/>
<path d="M118.878 12.9108C119.501 13.5246 119.813 14.4452 119.813 15.6827V20.766H118.046V19.7117C117.818 20.0929 117.492 20.38 117.066 20.5779C116.64 20.7809 116.13 20.8799 115.531 20.8799C114.933 20.8799 114.408 20.771 113.957 20.5482C113.507 20.3255 113.161 20.0186 112.918 19.6226C112.676 19.2267 112.552 18.7812 112.552 18.2813C112.552 17.5042 112.819 16.8755 113.354 16.4053C113.888 15.9351 114.73 15.6975 115.878 15.6975H117.942V15.5688C117.942 14.965 117.774 14.4947 117.442 14.173C117.106 13.8463 116.611 13.6879 115.952 13.6879C115.502 13.6879 115.061 13.7622 114.626 13.9156C114.19 14.0691 113.824 14.2769 113.527 14.5492L112.794 13.0692C113.215 12.7227 113.715 12.4554 114.304 12.2723C114.893 12.0892 115.517 11.9951 116.175 11.9951C117.353 11.9951 118.254 12.302 118.878 12.9108ZM117.17 19.0485C117.536 18.8158 117.789 18.4842 117.942 18.0486V17.0389H116.012C114.933 17.0389 114.393 17.425 114.393 18.1922C114.393 18.5585 114.527 18.8505 114.799 19.0683C115.066 19.2861 115.442 19.395 115.923 19.395C116.403 19.395 116.809 19.2811 117.175 19.0435L117.17 19.0485Z" fill="#009FE3"/>
<path d="M127.589 16.989C127.861 17.3305 128 17.7413 128 18.2165C128 18.7461 127.836 19.2163 127.505 19.6222C127.173 20.0281 126.723 20.3449 126.144 20.5726C125.565 20.8002 124.906 20.9141 124.169 20.9141C123.55 20.9141 122.946 20.8349 122.357 20.6765C121.768 20.5181 121.234 20.2954 120.753 20.0033L121.293 18.4937C121.684 18.7313 122.12 18.9144 122.61 19.048C123.1 19.1767 123.59 19.2411 124.075 19.2411C124.703 19.2411 125.193 19.1371 125.55 18.9243C125.901 18.7115 126.079 18.4244 126.079 18.0581C126.079 17.7215 125.941 17.4641 125.668 17.276C125.396 17.0929 125.005 16.9989 124.51 16.9989H122.956V15.6327H124.362C124.832 15.6327 125.198 15.5486 125.461 15.3704C125.723 15.1972 125.857 14.9546 125.857 14.6378C125.857 14.321 125.698 14.0736 125.376 13.8904C125.06 13.7073 124.619 13.6132 124.06 13.6132C123.263 13.6132 122.417 13.8211 121.531 14.2468L121.05 12.752C122.1 12.2224 123.154 11.9551 124.223 11.9551C124.901 11.9551 125.51 12.0541 126.05 12.257C126.589 12.46 127.01 12.7371 127.317 13.1034C127.619 13.4647 127.772 13.8805 127.772 14.3458C127.772 14.7665 127.653 15.1427 127.411 15.4743C127.173 15.806 126.842 16.0634 126.421 16.2465C126.921 16.3999 127.307 16.6425 127.579 16.984L127.589 16.989Z" fill="#009FE3"/>
</svg>
