<?xml version="1.0" encoding="utf-8"?><svg viewBox="0 0 506 563" xmlns="http://www.w3.org/2000/svg" xmlns:xlink="http://www.w3.org/1999/xlink"><style>:root>svg{display:none}:root>svg:target{display:block}</style><svg viewBox="0 0 64 64" id="24" xmlns="http://www.w3.org/2000/svg"><path d="M22 26.463v-1.461a2 2 0 012-2L28 23a2 2 0 012 2v3.026a2 2 0 01-.766 1.574l-6.468 5.072A2 2 0 0022 36.247V39a2 2 0 002 2h7m11 1V22m-8 0v11a2 2 0 002 2h5"/><path d="M56.148 38.472c3.574-13.337-4.34-27.045-17.678-30.619C25.134 4.28 11.425 12.194 7.852 25.531c-3.574 13.337 4.34 27.045 17.677 30.619 7.796 2.088 15.718.252 21.669-4.297m3.243-2.965a24.747 24.747 0 01-1.483 1.486"/><path d="M55.982 42.543a1 1 0 01-1.728-.463l-.79-3.864a1 1 0 011.238-1.167l3.407.913a1 1 0 01.49 1.63l-2.617 2.95z"/></svg><svg viewBox="0 0 140 58" id="Logo-green" xmlns="http://www.w3.org/2000/svg"><g clip-path="url(#aba)"><path d="M47.133 29.469h7.035L41.783.5h-6.618L22.822 29.469h6.868l2.1-5.385h13.25l2.093 5.385zM33.89 18.719l4.547-11.635 4.518 11.636H33.89zM119.355.5h-7.603l10.347 14.484-10.347 14.485h7.603l10.347-14.485L119.355.5zM19.218 1.782c1.892.853 3.347 2.072 4.366 3.639 1.019 1.573 1.532 3.437 1.532 5.585 0 2.149-.513 3.978-1.532 5.566-1.019 1.587-2.474 2.8-4.366 3.645-1.892.838-4.117 1.261-6.681 1.261H6.702v7.99H0V.5h12.537c2.564 0 4.796.43 6.68 1.282zm-2.46 12.932c1.046-.866 1.573-2.107 1.573-3.7 0-1.595-.527-2.877-1.573-3.743-1.047-.866-2.578-1.303-4.595-1.303H6.702v10.056h5.46c2.01 0 3.542-.437 4.596-1.303v-.007zM82.95.5v28.969h-5.503l-14.443-17.59v17.59h-6.619V.5h5.544l14.402 17.59V.5h6.618zm26.743 23.584v5.378h-21.9V.5h21.893v5.378H94.46v18.206h15.233zM127.22 7.735l3.805 5.33L140 .5h-7.603l-5.177 7.235zm0 14.492l3.805-5.33L140 29.47h-7.603l-5.177-7.242z"/><path d="M114.871 12.296H98.744v5.37h16.127v-5.37zM67.197 52.935a5.577 5.577 0 01-2.156-2.218c-.52-.95-.776-2.016-.776-3.215 0-1.2.257-2.267.776-3.21a5.617 5.617 0 012.149-2.203c.915-.534 1.961-.797 3.132-.797 1.102 0 2.072.243 2.904.728.832.485 1.456 1.185 1.878 2.093l-2.01 1.275c-.318-.561-.72-.984-1.206-1.261a3.068 3.068 0 00-1.58-.423c-.977 0-1.788.346-2.432 1.032-.645.694-.964 1.608-.964 2.766 0 1.157.32 2.072.957 2.765.638.693 1.448 1.032 2.44 1.032.575 0 1.101-.138 1.58-.422.478-.284.88-.7 1.205-1.262l2.01 1.276a4.738 4.738 0 01-1.899 2.1c-.831.492-1.795.741-2.883.741-1.157 0-2.197-.263-3.125-.797zM87.15 48.41h-8.781c.152.894.554 1.6 1.206 2.127.65.527 1.455.783 2.418.783 1.227 0 2.246-.436 3.043-1.316l1.406 1.753a4.765 4.765 0 01-1.905 1.476c-.77.333-1.636.499-2.6.499-1.226 0-2.314-.263-3.25-.797a5.52 5.52 0 01-2.169-2.218c-.513-.95-.762-2.016-.762-3.215 0-1.2.25-2.246.741-3.195a5.549 5.549 0 012.066-2.218c.88-.534 1.87-.797 2.973-.797 1.102 0 2.065.263 2.924.783.86.52 1.532 1.261 2.01 2.204.485.95.72 2.044.72 3.285 0 .201-.013.478-.04.839v.007zm-7.742-4.034c-.582.54-.935 1.255-1.06 2.149h6.348c-.11-.88-.45-1.594-1.026-2.135-.575-.548-1.282-.818-2.134-.818-.853 0-1.546.27-2.128.811v-.007zm19.259-2.315c.86.513 1.532 1.24 2.024 2.183.492.943.735 2.024.735 3.25 0 1.227-.243 2.316-.735 3.265-.492.95-1.164 1.677-2.024 2.197-.86.513-1.836.776-2.924.776-1.511 0-2.703-.547-3.583-1.636v5.891h-2.62V41.431h2.495v1.594a4.08 4.08 0 011.6-1.296c.638-.291 1.338-.43 2.108-.43 1.088 0 2.065.256 2.924.776v-.014zm-.838 8.185c.624-.693.935-1.615.935-2.751 0-1.137-.311-2.052-.935-2.752-.624-.7-1.414-1.046-2.377-1.046-.631 0-1.192.16-1.698.464-.506.312-.901.756-1.192 1.33-.291.576-.444 1.241-.444 2.004 0 .762.146 1.427.444 2.003a3.277 3.277 0 001.192 1.33 3.156 3.156 0 001.698.465c.963 0 1.753-.347 2.377-1.047zm15.849-.09c0 1.088-.374 1.934-1.129 2.523-.756.589-1.872.887-3.355.887h-5.703V41.424h5.468c1.372 0 2.439.27 3.209.818.769.547 1.15 1.316 1.15 2.321 0 .624-.153 1.157-.451 1.615-.298.457-.72.81-1.268 1.067 1.386.458 2.072 1.428 2.072 2.91h.007zm-7.692-3.66h2.744c1.358 0 2.031-.505 2.031-1.524 0-1.019-.68-1.476-2.031-1.476h-2.744v3zm5.156 3.48c0-.534-.167-.929-.506-1.192-.333-.264-.859-.402-1.573-.402h-3.084V51.5h2.994c1.441 0 2.155-.505 2.155-1.524h.014zm4.803-8.552h2.619v8.004l6.182-8.004h2.391v12.142h-2.619V45.56l-6.161 8.005h-2.412V41.424zM132.1 52.935a5.577 5.577 0 01-2.156-2.218c-.52-.95-.776-2.016-.776-3.215 0-1.2.256-2.267.776-3.21a5.619 5.619 0 012.149-2.203c.914-.534 1.961-.797 3.132-.797 1.102 0 2.072.243 2.904.728.832.485 1.455 1.185 1.878 2.093l-2.01 1.275c-.319-.561-.721-.984-1.206-1.261a3.065 3.065 0 00-1.58-.423c-.977 0-1.788.346-2.432 1.032-.645.694-.964 1.608-.964 2.766 0 1.157.319 2.072.957 2.765.637.693 1.448 1.032 2.439 1.032.575 0 1.102-.138 1.58-.422.479-.284.881-.7 1.206-1.262l2.01 1.276a4.738 4.738 0 01-1.899 2.1c-.832.492-1.795.741-2.883.741-1.157 0-2.197-.263-3.125-.797z"/></g><defs><clipPath id="aba"><path transform="translate(0 .5)" d="M0 0h140v57.48H0z"/></clipPath></defs></svg><svg viewBox="0 0 28 28" id="arrow" xmlns="http://www.w3.org/2000/svg"><path d="M15.367 14L9.592 8.225l1.65-1.65L18.666 14l-7.424 7.425-1.65-1.65L15.367 14z"/></svg><svg viewBox="0 0 28 28" id="arrow-left" xmlns="http://www.w3.org/2000/svg"><path d="M12.632 14l5.775 5.775-1.65 1.65L9.334 14l7.425-7.425 1.65 1.65L12.631 14z"/></svg><svg viewBox="0 0 30 30" id="arrow-line" xmlns="http://www.w3.org/2000/svg"><path d="M20.215 13.752L13.51 7.047l1.768-1.767L25 15.002l-9.723 9.723-1.767-1.768 6.705-6.705H5v-2.5h15.215z"/></svg><svg viewBox="0 0 64 64" id="autoservice" xmlns="http://www.w3.org/2000/svg"><path d="M49.317 8.87L53.382 17H10.618l4.065-8.13A7 7 0 0120.944 5h22.112a7 7 0 016.26 3.87zm-29.74 26.994a1 1 0 01.99-.864h22.865a1 1 0 01.99.864L44.854 39H19.147l.43-3.136zM5 24a1 1 0 011-1h8a1 1 0 011 1 3 3 0 01-3 3H5v-3zm44 0a1 1 0 011-1h8a1 1 0 011 1v3h-7a3 3 0 01-3-3zm6-9a1 1 0 011-1h2a1 1 0 110 2h-3v-1zM5 15a1 1 0 011-1h2a1 1 0 011 1v1H6a1 1 0 01-1-1z"/><path d="M59 24.997v-1.171a2 2 0 00-.586-1.415L53 17M5 24.997v-1.171a2 2 0 01.586-1.415L11 17M5 32v-5m54 5v-5m-41-4h28m-25 4h18m2 0h2"/><circle cx="53" cy="33" r="2"/><circle cx="11" cy="33" r="2"/><path d="M5 35v6a2 2 0 002 2h4a2 2 0 002-2v-2.571M59 35v6a2 2 0 01-2 2h-4a2 2 0 01-2-2v-2.571"/><path d="M5 29v6a4 4 0 004 4h46a4 4 0 004-4v-6M32 39v14m-20 6h40M21 54a1 1 0 011-1h20a1 1 0 011 1v5H21v-5z"/></svg><svg viewBox="0 0 64 64" id="balloon" xmlns="http://www.w3.org/2000/svg"><path d="M21.387 59l1.334-4h18.558l1.334 4H21.387zM4 59h52m2 0h2M17 16a3 3 0 013-3h24a3 3 0 013 3v36a3 3 0 01-3 3H20a3 3 0 01-3-3V16zm8-10a1 1 0 011-1h12a1 1 0 011 1v7H25V6zm7 4v2m-4-3h8"/><path d="M39 33.2c0 4.03-2.67 7.8-7 7.8s-7-3.77-7-7.8c0-2.939 1.807-6.008 3.778-8.447A32.03 32.03 0 0132 21.334a32.03 32.03 0 013.222 3.421C37.193 27.191 39 30.26 39 33.2z"/><path d="M35 37.2c0 1.009-.313 1.99-.85 2.695C33.63 40.58 32.909 41 32 41c-.909 0-1.629-.42-2.15-1.105-.537-.706-.85-1.686-.85-2.695 0-1.467.836-3.048 1.804-4.355.427-.576.855-1.067 1.196-1.432.34.365.77.856 1.196 1.432C34.164 34.152 35 35.733 35 37.2z"/></svg><svg viewBox="0 0 64 64" id="balloon_delivery" xmlns="http://www.w3.org/2000/svg"><path d="M23.85 13.986C27.202 8.592 33.182 5 40 5c10.493 0 19 8.507 19 19s-8.507 19-19 19c-3.256 0-6.321-.82-9-2.263M9.333 59l1.167-4h16l1.167 4H9.333zM4 59h52m2 0h2"/><path d="M5 22a3 3 0 013-3h20a3 3 0 013 3v30a3 3 0 01-3 3H8a3 3 0 01-3-3V22z"/><path d="M23 37.6c0 2.8-1.906 5.4-5 5.4-3.094 0-5-2.6-5-5.4 0-2.028 1.296-4.193 2.768-5.96A23.336 23.336 0 0118 29.321a23.336 23.336 0 012.232 2.319C21.704 33.407 23 35.572 23 37.6z"/><path d="M20 40.8c0 1.2-.8 2.2-2 2.2s-2-1-2-2.2c0-.828.546-1.793 1.268-2.66.255-.305.51-.574.732-.792.221.218.477.487.732.792.722.867 1.268 1.832 1.268 2.66zm-2.626-4.02zM12 14a1 1 0 011-1h10a1 1 0 011 1v5H12v-5zM30 8l6.195 7.08a2 2 0 001.99.624l5.65-1.413a2 2 0 001.456-1.455L47 6m11 12l-4.126 4.126a2 2 0 01-2.047.483l-3.654-1.218a2 2 0 00-2.047.483l-3.168 3.169a2 2 0 00-.425 2.202l2.14 4.994a2 2 0 01.02 1.53L41 43M31 31l3.666 4.583a2 2 0 01.415.945L36 42.5"/></svg><svg viewBox="0 0 64 64" id="big_gas" xmlns="http://www.w3.org/2000/svg"><path d="M41 43V18h11.679a4 4 0 013.473 2.015l2.321 4.063A4 4 0 0159 26.062V42a2 2 0 01-2 2h-2"/><rect x="5" y="17" width="36" height="20" rx="10"/><path d="M27 28.4c0 2.449-1.578 4.6-4 4.6-2.422 0-4-2.151-4-4.6 0-1.745 1.063-3.616 2.283-5.153A19.868 19.868 0 0123 21.357l.081.08a19.868 19.868 0 011.636 1.81C25.937 24.784 27 26.655 27 28.4z"/><path d="M25 30.8c0 1.2-.8 2.2-2 2.2s-2-1-2-2.2c0-.828.546-1.793 1.268-2.66.255-.305.51-.574.732-.792.221.218.477.487.732.792.722.867 1.268 1.832 1.268 2.66zm-2.626-4.02zM4 44h5m10 0h5m9 0h12M4 37h37M5 47v-9"/><circle cx="50" cy="46" r="5"/><circle cx="14" cy="46" r="5"/><circle cx="28" cy="46" r="5"/><path d="M57 22h-8a2 2 0 00-2 2v3.117a4 4 0 002.735 3.795L59 34M40 34h4v2h-4zm6 0h2v2h-2zM16 13h8v4h-8z"/></svg><svg viewBox="0 0 48 30" id="btn_next" xmlns="http://www.w3.org/2000/svg"><rect x="48" y="30" width="48" height="30" rx="15" transform="rotate(180 48 30)"/><path d="M21.5 20l5-5-5-5"/></svg><svg viewBox="0 0 48 30" id="btn_prev" xmlns="http://www.w3.org/2000/svg"><rect width="48" height="30" rx="15"/><path d="M26.5 10l-5 5 5 5" opacity=".2"/></svg><svg viewBox="0 0 24 24" id="burger" xmlns="http://www.w3.org/2000/svg"><path d="M3 4h18v2H3V4zm0 7h18v2H3v-2zm0 7h18v2H3v-2z"/></svg><svg viewBox="0 0 64 64" id="calculator" xmlns="http://www.w3.org/2000/svg"><rect x="16" y="8" width="34" height="48" rx="3"/><rect x="20" y="12" width="26" height="10" rx="1"/><path d="M39 18h-8m12 0h-2"/><rect x="40" y="26" width="6" height="6" rx="1"/><rect x="30" y="26" width="6" height="6" rx="1"/><rect x="30" y="36" width="6" height="6" rx="1"/><rect x="30" y="46" width="6" height="6" rx="1"/><rect x="40" y="36" width="6" height="16" rx="1"/><rect x="20" y="46" width="6" height="6" rx="1"/><rect x="20" y="36" width="6" height="6" rx="1"/><rect x="20" y="26" width="6" height="6" rx="1"/></svg><svg viewBox="0 0 64 64" id="call_center" xmlns="http://www.w3.org/2000/svg"><path d="M49 30h5a3 3 0 013 3v7a3 3 0 01-3 3h-5V30zM15 43h-5a3 3 0 01-3-3v-7a3 3 0 013-3h5v13zm37 0v7a2 2 0 01-2 2h-3"/><rect x="33" y="49" width="14" height="6" rx="3"/><path d="M54 30a23.555 23.555 0 00-2.602-9M10 30c.973-11.766 10.451-21 22-21 5.084 0 9.767 1.79 13.5 4.797m4.895 5.474a23.052 23.052 0 00-1.092-1.562"/></svg><svg viewBox="0 0 64 64" id="car" xmlns="http://www.w3.org/2000/svg"><path d="M49.317 16.87L53.382 25H10.618l4.065-8.13A7 7 0 0120.944 13h22.112a7 7 0 016.26 3.87zm-29.74 26.994a1 1 0 01.99-.864h22.865a1 1 0 01.99.864L44.854 47H19.147l.43-3.136zM5 32a1 1 0 011-1h8a1 1 0 011 1 3 3 0 01-3 3H5v-3zm44 0a1 1 0 011-1h8a1 1 0 011 1v3h-7a3 3 0 01-3-3zm6-9a1 1 0 011-1h2a1 1 0 110 2h-3v-1zM5 23a1 1 0 011-1h2a1 1 0 011 1v1H6a1 1 0 01-1-1z"/><path d="M59 32.997v-1.171a2 2 0 00-.586-1.415L53 25M5 32.997v-1.171a2 2 0 01.586-1.415L11 25M5 40v-5m54 5v-5m-41-4h28m-25 4h18m2 0h2"/><circle cx="53" cy="41" r="2"/><circle cx="11" cy="41" r="2"/><path d="M5 43v6a2 2 0 002 2h4a2 2 0 002-2v-2.571M59 43v6a2 2 0 01-2 2h-4a2 2 0 01-2-2v-2.571"/><path d="M5 37v6a4 4 0 004 4h46a4 4 0 004-4v-6"/></svg><svg viewBox="0 0 64 64" id="ceh_gbo" xmlns="http://www.w3.org/2000/svg"><path d="M4 59h56M9 59V22.693l46-17.25V59H9z"/><path d="M15 27h34v32H15zM15 31h34m-34 4h27m2 0h2"/><circle cx="43" cy="19" r="4"/><rect x="37" y="46" width="8" height="13" rx="3"/><path d="M22 35v3m10-3v3m-9 1h-2a2 2 0 100 4h2a2 2 0 100-4zm10 0h-2a2 2 0 100 4h2a2 2 0 100-4zM12 21.5V12a4 4 0 014-4h32"/></svg><svg viewBox="0 0 64 64" id="client" xmlns="http://www.w3.org/2000/svg"><rect x="22" y="5" width="20" height="28" rx="10"/><path d="M20 20a2 2 0 012-2v4a2 2 0 01-2-2zm24 0a2 2 0 01-2 2v-4a2 2 0 012 2zM20 50v9m24-13v13m-6.5-23h.682a11.528 11.528 0 0111.463 10.305L51 59H13l1.355-12.695A11.528 11.528 0 0125.818 36h.682M20 48v-2"/><path d="M27.5 32L26 35.5a6.737 6.737 0 005.606 3h.788a6.737 6.737 0 005.606-3L36.5 32M32 59V39.5M22 17a7.31 7.31 0 017.093-1.884l5.404 1.474c.93.254 1.923-.01 2.605-.692a2.685 2.685 0 013.796 0L42 17"/></svg><svg viewBox="0 0 64 64" id="clock" xmlns="http://www.w3.org/2000/svg"><path d="M34 35l8-8"/><circle cx="32" cy="37" r="3"/><path d="M49.483 50.357C45.463 55.611 39.127 59 32 59c-12.15 0-22-9.85-22-22s9.85-22 22-22 22 9.85 22 22a22.17 22.17 0 01-.24 3.26M51.057 48c.295-.511.571-1.035.826-1.571M30 15V9m4 6V9"/><path d="M28 5h8v4h-8zm18.5 15.4l3.157-3.157a2 2 0 00-2.828-2.828L43 18.242M4 53h18M8 47h16M6 41h20"/></svg><svg viewBox="0 0 18 18" id="close" xmlns="http://www.w3.org/2000/svg"><path d="M5.068 12.932L9.001 9l3.932 3.932m0-7.865L9 9 5.068 5.067"/></svg><svg viewBox="0 0 64 64" id="company" xmlns="http://www.w3.org/2000/svg"><path d="M37 12.847V55H15V9.18l22 3.667zm22 18V55H37V27.18l22 3.667z"/><path d="M21 35h10v4H21zm2 10h6v10h-6zm18-10h14v10H41zM51 35v10m0-6H41M21 19h10v4H21zm0 8h10v4H21zM5 27h10v28H5zM56 30.5V23a4 4 0 00-4-4h-4m-11 0h3m2 0h2M9 27v-8"/><circle cx="9" cy="17" r="2"/></svg><svg viewBox="0 0 44 44" id="completed" xmlns="http://www.w3.org/2000/svg"><rect x=".5" y=".5" width="43" height="43" rx="21.5"/><path d="M15 24l4 4 10-10"/><rect x=".5" y=".5" width="43" height="43" rx="21.5"/></svg><svg viewBox="0 0 64 64" id="consultation" xmlns="http://www.w3.org/2000/svg"><path d="M22.818 36a12.418 12.418 0 00-12.217 10.197L9 55h19m-6-19l1.5-3.5m10 2.5l-.75-2.5"/><path d="M28 39h-.394A6.737 6.737 0 0122 36"/><rect x="18" y="5" width="20" height="28" rx="10"/><path d="M18 18l11.854-3.719a2 2 0 011.685.229l2.348 1.518a2 2 0 002.026.085L38 15M16 20a2 2 0 012-2v4a2 2 0 01-2-2zm24 0a2 2 0 01-2 2v-4a2 2 0 012 2zM55 40v9a2 2 0 01-2 2H29a2 2 0 01-2-2V39a4 4 0 014-4h12M27 52a1 1 0 011-1h26a1 1 0 011 1v3H27v-3zM16 50v5m0-9v2M5 55h54v4H5z"/><circle cx="51" cy="33" r="8"/><path d="M54 33h2m-6 0h2m-6 0h2"/></svg><svg viewBox="0 0 24 24" id="copy" xmlns="http://www.w3.org/2000/svg"><path d="M19.4 20H9.6a.6.6 0 01-.6-.6V9.6a.6.6 0 01.6-.6h9.8a.6.6 0 01.6.6v9.8a.6.6 0 01-.6.6z"/><path d="M15 9V4.6a.6.6 0 00-.6-.6H4.6a.6.6 0 00-.6.6v9.8a.6.6 0 00.6.6H9"/></svg><svg viewBox="0 0 64 64" id="corporate_client" xmlns="http://www.w3.org/2000/svg"><path d="M44.5 46.379a19.115 19.115 0 003.52-4.023m-33.876-3.854a18.92 18.92 0 01-1.144-6.5c0-.603.028-1.199.083-1.787m.886-4.213c-.217.652-.4 1.32-.546 2m36.13-3.5a19.094 19.094 0 00-8.824-9.416M57.62 33.65l-6.34 5.283a2 2 0 01-2.56 0l-6.34-5.282a2 2 0 01-.383-2.646l1.41-2.114A2 2 0 0145.07 28h9.86a2 2 0 011.664.89l1.41 2.115a2 2 0 01-.385 2.646z"/><path d="M44 28l6 4 6-4m-6 12v-8m8 1l-8-1m-8 1l8-1m-27.5 0L21 35.5a6.737 6.737 0 005.606 3h.788a6.737 6.737 0 005.606-3L31.5 32"/><rect x="17" y="5" width="20" height="28" rx="10"/><path d="M17 18l11.854-3.719a2 2 0 011.684.229l2.349 1.518a2 2 0 002.026.085L37 15M15 20a2 2 0 012-2v4a2 2 0 01-2-2zm24 0a2 2 0 01-2 2v-4a2 2 0 012 2zM15 46v13m24-13v13m-6.5-23h.682a11.528 11.528 0 0111.463 10.305L46 59H8l1.355-12.695A11.528 11.528 0 0120.818 36h.682"/></svg><svg viewBox="0 0 64 64" id="delivery_route" xmlns="http://www.w3.org/2000/svg"><path d="M55 48.75c0 .742-.257 1.77-.739 2.954a22.303 22.303 0 01-1.854 3.53c-.724 1.134-1.495 2.131-2.183 2.832-.345.351-.647.605-.893.765a1.247 1.247 0 01-.331.167 1.227 1.227 0 01-.33-.167c-.247-.16-.549-.414-.894-.765-.688-.7-1.459-1.698-2.183-2.832a22.47 22.47 0 01-1.854-3.53C43.257 50.52 43 49.492 43 48.75c0-3.142 2.652-5.75 6-5.75s6 2.608 6 5.75z"/><circle cx="49" cy="49" r="2"/><rect x="5" y="9" width="10" height="12" rx="3"/><path d="M6 5h8m-4-1v6m5.5 5H43a6 6 0 010 12H16a4 4 0 000 8h21a4 4 0 010 8H16a4 4 0 000 8h20m2 0h2"/></svg><svg viewBox="0 0 40 40" id="detailed" xmlns="http://www.w3.org/2000/svg"><rect x="40" y="40" width="40" height="40" rx="20" transform="rotate(180 40 40)"/><path d="M18.5 25l5-5-5-5"/></svg><svg viewBox="0 0 64 64" id="discount" xmlns="http://www.w3.org/2000/svg"><path d="M5 19h54v8H5zm5 26h6m-6-4h14m-6 4h2"/><circle cx="43" cy="43" r="12"/><path d="M49.364 36.636L36.636 49.364"/><circle cx="47.243" cy="47.243" r="2" transform="rotate(45 47.243 47.243)"/><circle cx="38.757" cy="38.757" r="2" transform="rotate(45 38.757 38.757)"/><path d="M52 51h3a4 4 0 004-4V17a4 4 0 00-4-4H9a4 4 0 00-4 4v30a4 4 0 004 4h25"/></svg><svg viewBox="0 0 64 64" id="document" xmlns="http://www.w3.org/2000/svg"><rect x="14" y="7" width="36" height="50" rx="3"/><path d="M18 7h28v46H18z"/><path d="M26 7h12v3a1 1 0 01-1 1H27a1 1 0 01-1-1V7z"/><circle cx="32" cy="22" r="3"/><path d="M28 28a3 3 0 013-3h2a3 3 0 013 3v3h-8v-3zM23 37h18m-18 4h9m-9 4h15m-4-4h2"/></svg><svg viewBox="0 0 34 40" id="down" xmlns="http://www.w3.org/2000/svg"><g clip-path="url(#bca)"><path d="M16.88 23.666L11.252 17h11.253l-5.627 6.666z"/></g><defs><clipPath id="bca"><path d="M0 0h33.759v40H0z"/></clipPath></defs></svg><svg viewBox="0 0 64 64" id="email" xmlns="http://www.w3.org/2000/svg"><path d="M51 32c0-10.493-8.507-19-19-19s-19 8.507-19 19 8.507 19 19 19a18.93 18.93 0 008-1.761m3.4-2.038c-.55.413-1.121.796-1.714 1.148"/><path d="M43 32v8a3 3 0 003 3c3 0 5-5 5-11"/><circle cx="32" cy="32" r="11"/></svg><svg viewBox="0 0 64 64" id="fast" xmlns="http://www.w3.org/2000/svg"><path d="M34 35l8-8"/><circle cx="32" cy="37" r="3"/><path d="M49.483 50.357C45.463 55.611 39.127 59 32 59c-12.15 0-22-9.85-22-22s9.85-22 22-22 22 9.85 22 22a22.17 22.17 0 01-.24 3.26M51.057 48c.295-.511.571-1.035.826-1.571M30 15V9m4 6V9"/><path d="M28 5h8v4h-8zm18.5 15.4l3.157-3.157a2 2 0 00-2.828-2.828L43 18.242M4 53h18M8 47h16M6 41h20"/></svg><svg viewBox="0 0 28 28" id="feature" xmlns="http://www.w3.org/2000/svg"><path d="M16.333 22.166H17.5V24.5H2.333v-2.334H3.5v-17.5A1.167 1.167 0 014.667 3.5h10.5a1.166 1.166 0 011.166 1.166V14h2.334A2.333 2.333 0 0121 16.333V21a1.167 1.167 0 102.333 0v-8.167H21a1.167 1.167 0 01-1.167-1.167V7.483L17.9 5.549l1.65-1.65 5.775 5.776a1.164 1.164 0 01.342.824V21a3.5 3.5 0 01-7 0v-4.666h-2.334v5.833zm-10.5 0H14v-7H5.833v7zm0-16.333v7H14v-7H5.833z"/></svg><svg viewBox="0 0 64 64" id="fuel_card" xmlns="http://www.w3.org/2000/svg"><rect x="5" y="13" width="54" height="38" rx="3"/><path d="M5 19h54v8H5zm48 21.4c0 2.449-1.578 4.6-4 4.6-2.422 0-4-2.151-4-4.6 0-1.745 1.063-3.616 2.283-5.153A19.868 19.868 0 0149 33.357l.081.08a19.868 19.868 0 011.636 1.81C51.937 36.784 53 38.655 53 40.4z"/><path d="M51 42.8c0 1.2-.8 2.2-2 2.2s-2-1-2-2.2c0-.828.546-1.793 1.268-2.66.255-.305.51-.574.732-.792.221.218.477.487.732.792.722.867 1.268 1.832 1.268 2.66zM10 45h6m-6-4h14m-6 4h2"/></svg><svg viewBox="0 0 64 64" id="gas" xmlns="http://www.w3.org/2000/svg"><path d="M39.724 46A9.31 9.31 0 0140 48.2c0 4.4-2.95 8.8-8 8.8s-8-4.4-8-8.8c0-6.6 8-13.2 8-13.2s2 1.65 4 4.125m3.116 5.042a16.67 16.67 0 00-.903-1.834"/><path d="M50 37.2C50 47.226 43.278 57 32 57c-11.277 0-18-9.774-18-19.8 0-7.437 4.555-15.005 9.276-20.82a77.246 77.246 0 018.568-8.928A45.2 45.2 0 0132 7.315l.156.137a68.84 68.84 0 012.121 1.951 77.246 77.246 0 016.447 6.977C45.444 22.195 50 29.763 50 37.2z"/></svg><svg viewBox="0 0 64 64" id="gas_consumption" xmlns="http://www.w3.org/2000/svg"><path d="M35 45v5.999h8M29 45v5.999h-8m22 6H21M49 51h6v6h-6m-34 0H9v-6h6m14-12v-6m6 6v-6"/><rect x="15" y="49" width="6" height="10" rx="1"/><rect x="43" y="49" width="6" height="10" rx="1"/><rect x="27" y="39" width="10" height="6" rx="1"/><circle cx="32" cy="19" r="14"/><path d="M23 19h-5m28 0h-5m-9-9V5m0 28v-5"/><circle cx="32" cy="19" r="2"/><path d="M32.938 18.063l4.243-4.243"/></svg><svg viewBox="0 0 64 64" id="gas_star" xmlns="http://www.w3.org/2000/svg"><path d="M37.909 12.77C34.646 9.204 32 7 32 7S14 22 14 37c0 10 6.639 20 18 20 10.339 0 16.767-8.281 17.84-17.308.037-.31.068-.622.092-.934"/><path d="M39.724 46A9.31 9.31 0 0140 48.2c0 4.4-2.95 8.8-8 8.8s-8-4.4-8-8.8c0-6.6 8-13.2 8-13.2s2 1.65 4 4.125m3.116 5.042a16.67 16.67 0 00-.903-1.834M52 32v8l-5-3.2-5 3.2v-8"/><circle cx="47" cy="21" r="12"/><path d="M47 15.26l1.454 2.946.233.472.52.075 3.252.473-2.353 2.294-.376.367.089.518.555 3.24-2.909-1.53L47 23.87l-.465.245-2.91 1.53.556-3.24.09-.518-.377-.367-2.353-2.294 3.252-.473.52-.075.233-.472L47 15.26z"/></svg><svg viewBox="0 0 64 64" id="gasofication" xmlns="http://www.w3.org/2000/svg"><path d="M30 35h4v5h-4zm9 6a1 1 0 00-1-1H26a1 1 0 00-1 1v3h14v-3zm-26 3h38v12H13zm46-3h-8v18h8zm-46 0H5v18h8z"/><circle cx="32" cy="20" r="15"/><path d="M20 48h20m-20 4h24m-2-4h2M22 20h-6m32 0h-6M32 10V4m0 32v-6"/><circle cx="32" cy="20" r="2"/><path d="M33 19l5.364-5.364"/></svg><svg viewBox="0 0 64 64" id="gift" xmlns="http://www.w3.org/2000/svg"><path d="M9 27h46v29a3 3 0 01-3 3H12a3 3 0 01-3-3V27z"/><rect x="5" y="17" width="54" height="10" rx="3"/><path d="M37 59V47m0-12V17M27 59V17m9-5v4.111c0 .491.398.889.889.889H44a6 6 0 000-12h-1a7 7 0 00-7 7zm-8 0v4.111a.889.889 0 01-.889.889H20a6 6 0 010-12h1a7 7 0 017 7zM28 13h8v4h-8zm9 31v-2"/></svg><svg viewBox="0 0 64 64" id="graph" xmlns="http://www.w3.org/2000/svg"><path d="M5 59h54"/><rect x="9" y="41" width="6" height="14" rx="3"/><rect x="19" y="25" width="6" height="30" rx="3"/><rect x="29" y="33" width="6" height="22" rx="3"/><rect x="39" y="17" width="6" height="38" rx="3"/><path d="M55 31v21a3 3 0 01-3 3 3 3 0 01-3-3V12a3 3 0 013-3 3 3 0 013 3v7M55 28v-2"/></svg><svg viewBox="0 0 24 24" id="green_arrow" xmlns="http://www.w3.org/2000/svg"><path d="M5 13l4 4L19 7"/></svg><svg viewBox="0 0 64 64" id="handshake" xmlns="http://www.w3.org/2000/svg"><path d="M22.868 8.519l5.657 5.657-16.263 16.263-5.657-5.657z"/><path d="M51.86 37.51L38.425 24.073l-1.414 1.414m7.07-12.725l-3.535-3.536-5.657 5.657 16.264 16.263 5.656-5.656-4.242-4.243M14.383 33.975l-1.986-3.67 16.128-16.13 2.829 2.83"/><rect x="15.797" y="32.559" width="6" height="10" rx="3" transform="rotate(45 15.797 32.559)"/><path d="M29.232 19.126l-4.478 4.478-2.592 2.592a3 3 0 104.243 4.243l.824-.825 2.003-2.003"/><rect x="20.04" y="36.805" width="6" height="10" rx="3" transform="rotate(45 20.04 36.805)"/><rect x="24.283" y="41.047" width="6" height="10" rx="3" transform="rotate(45 24.283 41.047)"/><rect x="28.525" y="45.289" width="6" height="10" rx="3" transform="rotate(45 28.525 45.289)"/><path d="M39.132 50.238l.707.708a3 3 0 11-4.243 4.243l-4.242-4.244"/><path d="M43.374 45.996l.707.707a3 3 0 01-4.243 4.243l-.706-.708"/><path d="M47.617 41.753l.707.707a3 3 0 11-4.243 4.243l-.707-.707"/><path d="M51.86 37.51l.707.708a3 3 0 01-4.243 4.243l-.707-.708M28.525 18.418l-.707.707 1.414 1.415.707-.707-1.414-1.415zm6.364-3.535l.707-.707-.599-.6-.69.493.582.814zm16.264 16.264l.707.707.707-.707-.707-.708-.707.707zm-3.535 2.12l-.707.707 1.414 1.414.707-.707-1.414-1.414zM29.94 19.833c.12-.12.502-.43 1.083-.874a125.09 125.09 0 011.895-1.413 276.303 276.303 0 012.498-1.81l.041-.03a1.02 1.02 0 01.01-.007c.002 0 .003-.001.003-.002h.001l-.58-.814-.582-.814-.001.001-.003.002a.533.533 0 01-.01.008l-.043.03-.159.114a259.29 259.29 0 00-2.357 1.709c-.665.487-1.357 1-1.928 1.437-.545.417-1.048.814-1.282 1.048l1.415 1.415zm4.243-4.243l16.264 16.264 1.414-1.415-16.264-16.263-1.414 1.414zm16.264 14.85l-2.828 2.826 1.414 1.415 2.828-2.827-1.414-1.415zM36.303 26.196c-1.297 1.297-2.858 1.448-4.037 1.1-.975-.287-2.315-.404-3.033.314M48.324 42.461l-2.828-2.828m-1.415 7.07l-2.828-2.829m-1.414 7.071l-2.829-2.828M49.031 17.711l1.414 1.415"/></svg><svg viewBox="0 0 21 21" id="headphone" xmlns="http://www.w3.org/2000/svg"><path d="M10.5 3.5a7 7 0 00-7 7h2.625a1.75 1.75 0 011.75 1.75v4.375a1.75 1.75 0 01-1.75 1.75H3.5a1.75 1.75 0 01-1.75-1.75V10.5a8.75 8.75 0 018.75-8.75 8.75 8.75 0 018.75 8.75v6.125a1.75 1.75 0 01-1.75 1.75h-2.625a1.75 1.75 0 01-1.75-1.75V12.25a1.75 1.75 0 011.75-1.75H17.5a7 7 0 00-7-7zm-7 8.75v4.375h2.625V12.25H3.5zm11.375 0v4.375H17.5V12.25h-2.625z"/></svg><svg viewBox="0 0 64 64" id="home" xmlns="http://www.w3.org/2000/svg"><path d="M7 19.5L32 9l25 10.5m-4-1.75V55H37v-5M11 17.75V55h16V41a5 5 0 0110 0v1m0 6v-2"/><circle cx="32" cy="23" r="3"/></svg><svg viewBox="0 0 64 64" id="hours" xmlns="http://www.w3.org/2000/svg"><path d="M32 30V12"/><circle cx="32" cy="32" r="2" transform="rotate(-45 32 32)"/><path d="M42 42l-8-8M53.456 48.393C48.522 54.84 40.746 59 32 59 17.088 59 5 46.912 5 32S17.088 5 32 5s27 12.088 27 27c0 1.36-.1 2.695-.294 4m-3.318 9.5c.363-.627.701-1.27 1.014-1.929"/></svg><svg viewBox="0 0 64 64" id="houses" xmlns="http://www.w3.org/2000/svg"><path d="M7 19.5L32 9l25 10.5m-4-1.75V55H37v-5M11 17.75V55h16V41a5 5 0 0110 0v1m0 6v-2"/><circle cx="32" cy="23" r="3"/></svg><svg viewBox="0 0 43 42" id="human" xmlns="http://www.w3.org/2000/svg"><path d="M4.167 35v-1.75A12.25 12.25 0 0116.417 21M28.324 21.548a2.83 2.83 0 014.186 0 2.824 2.824 0 002.226.922 2.832 2.832 0 012.96 2.961 2.83 2.83 0 00.921 2.226 2.83 2.83 0 010 4.186 2.829 2.829 0 00-.92 2.226 2.832 2.832 0 01-2.961 2.961 2.831 2.831 0 00-2.226.92 2.833 2.833 0 01-4.186 0 2.832 2.832 0 00-2.226-.92 2.832 2.832 0 01-2.961-2.961 2.833 2.833 0 00-.922-2.226 2.831 2.831 0 010-4.186 2.824 2.824 0 00.922-2.226 2.832 2.832 0 012.96-2.961 2.827 2.827 0 002.227-.922z"/><path d="M27.554 29.75l1.907 1.907 3.819-3.814M16.417 21a7 7 0 100-14 7 7 0 000 14z"/></svg><svg viewBox="0 0 64 64" id="information" xmlns="http://www.w3.org/2000/svg"><path d="M30 29h4v14h-4zm0-8h4v4h-4z"/><path d="M53.456 48.393C48.522 54.84 40.746 59 32 59 17.088 59 5 46.912 5 32S17.088 5 32 5s27 12.088 27 27c0 1.36-.1 2.695-.294 4m-3.318 9.5c.363-.627.701-1.27 1.014-1.929"/></svg><svg viewBox="0 0 36 36" id="insta" xmlns="http://www.w3.org/2000/svg"><path d="M17.652 14.514a3.138 3.138 0 110 6.276 3.138 3.138 0 010-6.276z"/><path fill-rule="evenodd" clip-rule="evenodd" d="M16.808 9.934h.844c2.514 0 2.812.009 3.805.054.918.042 1.416.195 1.747.324.44.17.753.375 1.082.704.33.33.534.644.705 1.083.129.331.282.83.324 1.748.045.992.055 1.29.055 3.803 0 2.512-.01 2.81-.055 3.802-.042.918-.195 1.416-.324 1.748-.17.44-.375.752-.705 1.081-.33.33-.642.534-1.082.704-.331.13-.83.283-1.747.325-.993.045-1.291.055-3.805.055-2.513 0-2.811-.01-3.804-.055-.918-.042-1.416-.196-1.748-.325a2.915 2.915 0 01-1.082-.704 2.919 2.919 0 01-.705-1.082c-.129-.331-.282-.83-.324-1.747-.045-.993-.054-1.29-.054-3.805 0-2.514.009-2.81.054-3.803.042-.918.195-1.416.324-1.748.17-.44.375-.753.704-1.082.33-.33.644-.534 1.083-.705.332-.13.83-.282 1.748-.325.869-.039 1.205-.05 2.96-.052v.002zm5.87 1.563a1.13 1.13 0 100 2.26 1.13 1.13 0 000-2.26zm-9.86 6.155a4.834 4.834 0 119.668 0 4.834 4.834 0 01-9.668 0z"/></svg><svg viewBox="0 0 20 20" id="location" xmlns="http://www.w3.org/2000/svg"><path d="M10 17.416l4.125-4.125a5.833 5.833 0 10-8.25 0L10 17.416zm0 2.357L4.697 14.47a7.5 7.5 0 1110.606 0L10 19.773zm0-8.94A1.667 1.667 0 1010 7.5a1.667 1.667 0 000 3.333zm0 1.667a3.333 3.333 0 110-6.667 3.333 3.333 0 010 6.667z"/></svg><svg viewBox="0 0 140 59" id="logo-express" xmlns="http://www.w3.org/2000/svg"><path d="M47.133 29.469h7.034L41.783.5h-6.619L22.821 29.469h6.868l2.1-5.378H45.04l2.093 5.378zm-13.244-10.75l4.546-11.635 4.519 11.636h-9.065zM119.355.5h-7.603l10.347 14.484-10.347 14.485h7.603l10.347-14.485L119.355.5zM19.218 1.782c1.892.853 3.347 2.072 4.366 3.639 1.019 1.573 1.532 3.437 1.532 5.585 0 2.149-.513 3.978-1.532 5.566-1.019 1.587-2.474 2.8-4.366 3.645-1.892.838-4.117 1.261-6.681 1.261H6.702v7.984H0V.5h12.537c2.564 0 4.796.43 6.68 1.282zm-2.46 12.932c1.046-.866 1.573-2.107 1.573-3.7 0-1.595-.527-2.877-1.573-3.743-1.047-.866-2.578-1.303-4.595-1.303H6.702v10.056h5.46c2.01 0 3.542-.437 4.596-1.303v-.007zM82.95.5v28.969h-5.503l-14.443-17.59v17.59h-6.618V.5h5.544l14.401 17.59V.5h6.619zm26.744 23.584v5.378h-21.9V.5h21.893v5.378H94.461v18.206h15.233zm17.527-16.349l3.804 5.33L140 .5h-7.602l-5.177 7.235zm0 14.492l3.804-5.323L140 29.47h-7.602l-5.177-7.242z"/><path d="M114.87 12.296H98.743v5.37h16.127v-5.37zM49.406 42.089a5.827 5.827 0 012.204 2.232c.534.949.797 2.023.797 3.215 0 1.192-.263 2.273-.797 3.23a5.751 5.751 0 01-2.204 2.238c-.935.54-1.989.811-3.167.811-1.019 0-1.94-.18-2.765-.547A5.647 5.647 0 0141.38 51.7l1.51-1.594c.88.957 1.962 1.435 3.251 1.435.95 0 1.76-.277 2.44-.832.679-.554 1.115-1.289 1.31-2.217h-5.178v-2.045h5.157c-.208-.894-.652-1.6-1.317-2.127-.672-.52-1.476-.783-2.412-.783-1.289 0-2.37.485-3.25 1.455l-1.511-1.594a5.277 5.277 0 012.086-1.58c.831-.354 1.753-.534 2.779-.534 1.171 0 2.231.27 3.167.804h-.007zm9.661 6.653h-2.03v4.865h-2.62V41.465h2.62v4.914h2.093l3.312-4.914h2.807l-4.068 5.843 4.338 6.3h-3.084l-3.375-4.866h.007zm9.37 4.235a5.576 5.576 0 01-2.155-2.218c-.52-.95-.776-2.017-.776-3.216 0-1.199.256-2.266.776-3.209a5.57 5.57 0 012.148-2.203c.915-.534 1.962-.797 3.133-.797 1.102 0 2.072.242 2.904.727.831.485 1.455 1.185 1.878 2.093l-2.01 1.275c-.319-.56-.72-.984-1.206-1.26a3.069 3.069 0 00-1.58-.424c-.977 0-1.788.347-2.432 1.033-.645.693-.964 1.615-.964 2.765 0 1.15.32 2.072.957 2.765.637.694 1.448 1.033 2.44 1.033a3.04 3.04 0 001.58-.423c.484-.277.886-.7 1.205-1.261l2.01 1.275c-.437.908-1.067 1.615-1.899 2.107-.832.492-1.795.742-2.883.742-1.157 0-2.197-.264-3.126-.797v-.007zm20.409-11.512v12.142h-2.599v-9.73h-5.51v9.73h-2.619V41.465h10.728zm12.143.638c.859.52 1.531 1.24 2.023 2.183.492.942.735 2.024.735 3.25 0 1.227-.243 2.315-.735 3.264-.492.95-1.164 1.678-2.023 2.197-.86.513-1.837.777-2.925.777-1.51 0-2.703-.548-3.583-1.636v5.89h-2.62V41.473h2.495v1.594c.43-.575.97-1.005 1.601-1.296a5.112 5.112 0 012.107-.43c1.088 0 2.065.257 2.925.777v-.014zm-.839 8.185c.624-.7.936-1.615.936-2.752 0-1.136-.312-2.051-.936-2.751-.624-.7-1.414-1.047-2.377-1.047-.63 0-1.192.153-1.698.465a3.277 3.277 0 00-1.192 1.33c-.291.576-.437 1.24-.437 2.003 0 .763.146 1.428.437 2.003a3.277 3.277 0 001.192 1.33 3.156 3.156 0 001.698.465c.963 0 1.76-.346 2.377-1.046zm16.106-1.837h-8.781c.153.894.555 1.601 1.206 2.128.651.52 1.455.783 2.419.783 1.226 0 2.245-.437 3.035-1.317l1.407 1.753a4.766 4.766 0 01-1.906 1.477c-.769.332-1.635.499-2.599.499-1.226 0-2.314-.264-3.25-.797a5.518 5.518 0 01-2.169-2.218c-.513-.95-.763-2.017-.763-3.216 0-1.199.25-2.245.742-3.195a5.55 5.55 0 012.065-2.217c.88-.534 1.871-.797 2.973-.797 1.102 0 2.066.263 2.925.783s1.532 1.261 2.01 2.204c.485.95.721 2.044.721 3.285 0 .2-.014.478-.042.838l.007.007zm-7.741-4.033c-.582.54-.936 1.254-1.061 2.148h6.349c-.111-.88-.458-1.594-1.026-2.141-.575-.548-1.289-.818-2.135-.818-.845 0-1.545.27-2.127.804v.007zm12.1 8.559a5.575 5.575 0 01-2.155-2.218c-.52-.95-.776-2.017-.776-3.216 0-1.199.256-2.266.776-3.209a5.569 5.569 0 012.148-2.203c.915-.534 1.961-.797 3.133-.797 1.102 0 2.072.242 2.904.727.831.485 1.455 1.185 1.878 2.093l-2.01 1.275c-.319-.56-.721-.984-1.206-1.26a3.069 3.069 0 00-1.58-.424c-.977 0-1.788.347-2.433 1.033-.644.693-.963 1.615-.963 2.765 0 1.15.319 2.072.956 2.765.638.694 1.449 1.033 2.44 1.033.575 0 1.102-.139 1.58-.423.478-.277.88-.7 1.206-1.261l2.01 1.275a4.762 4.762 0 01-1.899 2.107c-.832.492-1.795.742-2.883.742-1.158 0-2.204-.264-3.126-.797v-.007zm11.485 0a5.641 5.641 0 01-2.163-2.218c-.513-.95-.776-2.017-.776-3.216 0-1.199.257-2.266.776-3.209a5.618 5.618 0 012.149-2.203c.915-.534 1.961-.797 3.132-.797 1.102 0 2.072.242 2.904.727.832.485 1.455 1.185 1.878 2.093l-2.01 1.275c-.318-.56-.72-.984-1.205-1.26a3.073 3.073 0 00-1.581-.424c-.977 0-1.788.347-2.432 1.033-.645.693-.963 1.615-.963 2.765 0 1.15.318 2.072.956 2.765.638.694 1.448 1.033 2.439 1.033.576 0 1.102-.139 1.581-.423.478-.277.88-.7 1.205-1.261l2.01 1.275a4.75 4.75 0 01-1.899 2.107c-.831.492-1.795.742-2.883.742-1.157 0-2.204-.264-3.125-.797l.007-.007z"/></svg><svg viewBox="0 0 64 64" id="maintance_gbo" xmlns="http://www.w3.org/2000/svg"><path d="M49.317 8.87L53.382 17H10.618l4.065-8.13A7 7 0 0120.944 5h22.112a7 7 0 016.26 3.87zm-29.74 26.994a1 1 0 01.99-.864h22.865a1 1 0 01.99.864L44.854 39H19.147l.43-3.136zM5 24a1 1 0 011-1h8a1 1 0 011 1 3 3 0 01-3 3H5v-3zm44 0a1 1 0 011-1h8a1 1 0 011 1v3h-7a3 3 0 01-3-3zm6-9a1 1 0 011-1h2a1 1 0 110 2h-3v-1zM5 15a1 1 0 011-1h2a1 1 0 011 1v1H6a1 1 0 01-1-1z"/><path d="M59 24.997v-1.171a2 2 0 00-.586-1.415L53 17M5 24.997v-1.171a2 2 0 01.586-1.415L11 17M5 32v-5m54 5v-5m-41-4h28m-25 4h18m2 0h2"/><circle cx="53" cy="33" r="2"/><circle cx="11" cy="33" r="2"/><path d="M5 35v6a2 2 0 002 2h4a2 2 0 002-2v-2.571M59 35v6a2 2 0 01-2 2h-4a2 2 0 01-2-2v-2.571"/><path d="M5 29v6a4 4 0 004 4h46a4 4 0 004-4v-6M32 39v14m-20 6h40M21 54a1 1 0 011-1h20a1 1 0 011 1v5H21v-5z"/></svg><svg viewBox="0 0 64 64" id="manager" xmlns="http://www.w3.org/2000/svg"><rect x="22" y="5" width="20" height="28" rx="10"/><path d="M42 14s-2 3-7 3c-2.39 0-4.781-1.786-6.318-3.223-.924-.864-2.44-.867-3.25.105L22 18M20 20a2 2 0 012-2v4a2 2 0 01-2-2zm24 0a2 2 0 01-2 2v-4a2 2 0 012 2zM20 50.002v9m24-13v13m-4-22.858a11.53 11.53 0 019.645 10.163L51 59H13l1.355-12.694A11.53 11.53 0 0124 36.144M20 48v-2"/><path d="M34 42v-2a2 2 0 10-4 0v2h4zm.873-2.903L33 37l4.714-4L40 36l-1.986 2.896a2 2 0 01-3.141.201zm-5.746 0L31 37l-4.714-4L24 36l1.986 2.896a2 2 0 003.141.201zM30 41l-1 18m5-18l1 18"/></svg><svg viewBox="0 0 21 21" id="media" xmlns="http://www.w3.org/2000/svg"><path d="M7.875 2.625h5.25l1.75 1.75h3.5a.875.875 0 01.875.875V17.5a.875.875 0 01-.875.875H2.625a.875.875 0 01-.875-.875V5.25a.875.875 0 01.875-.875h3.5l1.75-1.75zm2.625 14a5.25 5.25 0 100-10.5 5.25 5.25 0 000 10.5zm0-1.75a3.5 3.5 0 110-7 3.5 3.5 0 010 7z"/></svg><svg viewBox="0 0 18 18" id="menu-arrow" xmlns="http://www.w3.org/2000/svg"><path d="M6.75 13.5l4.5-4.5-4.5-4.5"/></svg><svg viewBox="0 0 64 64" id="message" xmlns="http://www.w3.org/2000/svg"><rect x="5" y="13" width="54" height="38" rx="3"/><path d="M6 14l23.416 19.814a4 4 0 005.168 0L58 14M6 50l15-15m37 15L46 38m-1.5-1.5L43 35"/></svg><svg viewBox="0 0 64 64" id="mini_gas" xmlns="http://www.w3.org/2000/svg"><path d="M33 43V18h10.815a4 4 0 013.702 2.485l2.995 7.321a4 4 0 001.582 1.878l5.026 3.141A4 4 0 0159 36.217V42a2 2 0 01-2 2h-2"/><rect x="5" y="17" width="28" height="20" rx="10"/><path d="M23 28.4c0 2.449-1.578 4.6-4 4.6-2.422 0-4-2.151-4-4.6 0-1.745 1.063-3.616 2.283-5.153A19.868 19.868 0 0119 21.357l.081.08a19.868 19.868 0 011.636 1.81C21.937 24.784 23 26.655 23 28.4z"/><path d="M21 30.8c0 1.2-.8 2.2-2 2.2s-2-1-2-2.2c0-.828.546-1.793 1.268-2.66.255-.305.51-.574.732-.792.221.218.477.487.732.792.722.867 1.268 1.832 1.268 2.66zm-2.626-4.02zM4 44h5m9.5 0H45M4 37h29M5 47v-9"/><circle cx="50" cy="46" r="5"/><circle cx="14" cy="46" r="5"/><path d="M48 22h-7a2 2 0 00-2 2v2a4 4 0 004 4h9.5M32 34h4v2h-4zm6 0h2v2h-2zM13 13h6v4h-6z"/></svg><svg viewBox="0 0 64 64" id="mini_gasg_road" xmlns="http://www.w3.org/2000/svg"><path d="M33 43V18h10.815a4 4 0 013.702 2.485l2.995 7.321a4 4 0 001.582 1.878l5.026 3.141A4 4 0 0159 36.217V42a2 2 0 01-2 2h-2"/><rect x="5" y="17" width="28" height="20" rx="10"/><path d="M23 28.4c0 2.449-1.578 4.6-4 4.6-2.422 0-4-2.151-4-4.6 0-1.745 1.063-3.616 2.283-5.153A19.868 19.868 0 0119 21.357l.081.08a19.868 19.868 0 011.636 1.81C21.937 24.784 23 26.655 23 28.4z"/><path d="M21 30.8c0 1.2-.8 2.2-2 2.2s-2-1-2-2.2c0-.828.546-1.793 1.268-2.66.255-.305.51-.574.732-.792.221.218.477.487.732.792.722.867 1.268 1.832 1.268 2.66zm-2.626-4.02zM4 44h5m9.5 0H45M4 37h29M5 47v-9"/><circle cx="50" cy="46" r="5"/><circle cx="14" cy="46" r="5"/><path d="M48 22h-7a2 2 0 00-2 2v2a4 4 0 004 4h9.5M32 34h4v2h-4zm6 0h2v2h-2zM13 13h6v4h-6zM4 53h56"/><circle cx="53" cy="11" r="2"/><path d="M48 11h-2m14 0h-2"/><circle cx="53" cy="11" r="2" transform="rotate(45 53 11)"/><path d="M49.465 7.464L48.05 6.05m9.9 9.9l-1.415-1.414m-7.07 0L48.05 15.95m9.9-9.9l-1.415 1.414M53 16v2m0-14v2"/></svg><svg viewBox="0 0 64 64" id="mobile" xmlns="http://www.w3.org/2000/svg"><path d="M47 24v2m0 2v26a5 5 0 01-5 5H22a5 5 0 01-5-5V10a5 5 0 015-5h20a5 5 0 015 5v8"/><circle cx="32" cy="54" r="1"/><path d="M25 5l.621 2.485A2 2 0 0027.561 9h8.877a2 2 0 001.94-1.515L39 5"/></svg><svg viewBox="0 0 24 24" id="more" xmlns="http://www.w3.org/2000/svg"><path d="M5 10c-1.1 0-2 .9-2 2s.9 2 2 2 2-.9 2-2-.9-2-2-2zm14 0c-1.1 0-2 .9-2 2s.9 2 2 2 2-.9 2-2-.9-2-2-2zm-7 0c-1.1 0-2 .9-2 2s.9 2 2 2 2-.9 2-2-.9-2-2-2z"/></svg><svg viewBox="0 0 40 40" id="more-detailed" xmlns="http://www.w3.org/2000/svg"><path d="M12.5 20h15m0 0l-7.083-7.083M27.5 20l-7.083 7.083"/><rect x="39.5" y="39.5" width="39" height="39" rx="19.5" transform="rotate(180 39.5 39.5)"/></svg><svg viewBox="0 0 64 64" id="n_delivery" xmlns="http://www.w3.org/2000/svg"><path d="M41 43V18h11.679a4 4 0 013.473 2.015l2.321 4.063A4 4 0 0159 26.062V42a2 2 0 01-2 2h-2"/><rect x="5" y="17" width="36" height="20" rx="10"/><path d="M27 28.4c0 2.449-1.578 4.6-4 4.6-2.422 0-4-2.151-4-4.6 0-1.745 1.063-3.616 2.283-5.153A19.868 19.868 0 0123 21.357l.081.08a19.868 19.868 0 011.636 1.81C25.937 24.784 27 26.655 27 28.4z"/><path d="M25 30.8c0 1.2-.8 2.2-2 2.2s-2-1-2-2.2c0-.828.546-1.793 1.268-2.66.255-.305.51-.574.732-.792.221.218.477.487.732.792.722.867 1.268 1.832 1.268 2.66zm-2.626-4.02zM4 44h5m10 0h5m9 0h12M4 37h37M5 47v-9"/><circle cx="50" cy="46" r="5"/><circle cx="14" cy="46" r="5"/><circle cx="28" cy="46" r="5"/><path d="M57 22h-8a2 2 0 00-2 2v3.117a4 4 0 002.735 3.795L59 34M40 34h4v2h-4zm6 0h2v2h-2zM16 13h8v4h-8z"/></svg><svg viewBox="0 0 64 64" id="n_document" xmlns="http://www.w3.org/2000/svg"><rect x="14" y="7" width="36" height="50" rx="3"/><path d="M18 7h28v46H18z"/><path d="M26 7h12v3a1 1 0 01-1 1H27a1 1 0 01-1-1V7z"/><circle cx="32" cy="22" r="3"/><path d="M28 28a3 3 0 013-3h2a3 3 0 013 3v3h-8v-3zM23 37h18m-18 4h9m-9 4h15m-4-4h2"/></svg><svg viewBox="0 0 40 40" id="n_phone" xmlns="http://www.w3.org/2000/svg"><path d="M22.73 31.925l.729.3.462-.64 2.29-3.17a1 1 0 01.811-.415H36a3 3 0 013 3v5a3 3 0 01-3 3h-3.06A31.93 31.93 0 011 7.06V4a3 3 0 013-3h5a3 3 0 013 3v8.978a1 1 0 01-.414.81L8.414 16.08l-.639.462.3.73A26.928 26.928 0 0022.73 31.925z"/></svg><svg viewBox="0 0 28 28" id="objects1" xmlns="http://www.w3.org/2000/svg"><path d="M2.333 9.333l11.354-5.677a.7.7 0 01.625 0l11.354 5.677m-2.333 3.5v9.334A2.333 2.333 0 0121 24.5H7a2.333 2.333 0 01-2.334-2.333v-9.334"/></svg><svg viewBox="0 0 28 28" id="objects2" xmlns="http://www.w3.org/2000/svg"><path d="M7 23.333H3.5V7L14 4.667 24.5 7v16.333H21m-14 0h14m-14 0v-4.666m14 4.666v-4.666m-14 0V14m0 4.667h14m0 0V14M7 14V9.333h14V14M7 14h14"/></svg><svg viewBox="0 0 28 28" id="objects3" xmlns="http://www.w3.org/2000/svg"><path d="M12.833 22.167V24.5m0-10.5v4.667M18.667 14v4.667h-2.334M24.5 14H9.333m-3.5 0H3.5m0-8.167L14 3.5l10.5 2.333"/><path d="M24.5 10.033V23.8a.7.7 0 01-.7.7H4.2a.7.7 0 01-.7-.7V10.033a.7.7 0 01.7-.7h19.6a.7.7 0 01.7.7z"/></svg><svg viewBox="0 0 28 28" id="objects4" xmlns="http://www.w3.org/2000/svg"><path d="M12.833 18.667v-5.834m0 0H3.5m9.333 0V10.5M24.5 9.333h-7v2.334m0 9.333v3.5m-4.667-2.333V24.5m0-21V7M24.5 17.5h-7v-2.333"/><path d="M24.5 4.2v19.6a.7.7 0 01-.7.7H4.2a.7.7 0 01-.7-.7V4.2a.7.7 0 01.7-.7h19.6a.7.7 0 01.7.7z"/></svg><svg viewBox="0 0 28 28" id="objects5" xmlns="http://www.w3.org/2000/svg"><path d="M5.833 23.333h-3.5v-14l7-3.5 7 3.5v14h-3.5m-7 0v-8.166h7v8.166m-7 0h7m8.167-7v7m-4.667-3.5h9.333m-9.333-3.5h9.333"/></svg><svg viewBox="0 0 28 28" id="objects6" xmlns="http://www.w3.org/2000/svg"><path d="M23.9 3.5h-4.658l.584 5.833s1.166 1.167 2.916 1.167a3.769 3.769 0 002.496-.94.586.586 0 00.175-.543l-.824-4.934a.7.7 0 00-.69-.583z"/><path d="M19.242 3.5l.584 5.833S18.659 10.5 16.909 10.5c-1.75 0-2.917-1.167-2.917-1.167V3.5h5.25z"/><path d="M13.992 3.5v5.833S12.825 10.5 11.075 10.5c-1.75 0-2.917-1.167-2.917-1.167L8.742 3.5h5.25z"/><path d="M8.742 3.5H4.086a.7.7 0 00-.69.585l-.823 4.933a.588.588 0 00.175.543 3.77 3.77 0 002.494.94c1.75 0 2.917-1.166 2.917-1.166L8.742 3.5z"/><path d="M3.5 10.5v11.667A2.333 2.333 0 005.833 24.5h16.334a2.333 2.333 0 002.333-2.333V10.5"/><path d="M17.305 24.5v-7a2.333 2.333 0 00-2.334-2.333h-2.333a2.333 2.333 0 00-2.333 2.333v7"/></svg><svg viewBox="0 0 64 64" id="official" xmlns="http://www.w3.org/2000/svg"><rect x="14" y="5" width="20" height="28" rx="10"/><path d="M34 14s-2 3-7 3c-2.39 0-4.781-1.786-6.318-3.223-.924-.864-2.44-.867-3.25.105L14 18M12 20a2 2 0 012-2v4a2 2 0 01-2-2zm24 0a2 2 0 01-2 2v-4a2 2 0 012 2zM12 50.002v9m24-13v13m-4-22.858c1.052.168 2.06.478 3 .91m-19-.91a11.53 11.53 0 00-9.645 10.163L5 59h38l-1.355-12.694a11.637 11.637 0 00-.114-.807M12 48v-2m14.218-7.635L25 37l4.714-4L32 36l-1.5 2"/><path d="M21.5 38.68l.607-.68.893-1-4.714-4L16 36l.686 1 .314.458"/><circle cx="47" cy="35" r="12"/><path d="M40.5 35l4.333 4 8.667-8M18 44c0 3.013 2.383 7 6.046 7C27.71 51 30 47.013 30 44.128M24 59v-8"/><path d="M17.55 44.272l3-.858A2 2 0 0022 41.491v-.982a2 2 0 00-1.45-1.923l-3-.858A2 2 0 0015 39.651v2.697a2 2 0 002.55 1.924zm12.9-6.544l-3 .858A2 2 0 0026 40.509v.982a2 2 0 001.45 1.923l3 .858A2 2 0 0033 42.349v-2.697a2 2 0 00-2.55-1.924z"/><rect x="22" y="39" width="4" height="4" rx="1"/></svg><svg viewBox="0 0 44 44" id="one" xmlns="http://www.w3.org/2000/svg"><path d="M21.4 30V18.23l-2.7 1.65v-2.66l2.7-1.62h2.46V30H21.4z"/><rect x=".5" y=".5" width="43" height="43" rx="21.5"/></svg><svg viewBox="0 0 64 64" id="parts" xmlns="http://www.w3.org/2000/svg"><path d="M19 25c-5.523 0-10-4.477-10-10S13.477 5 19 5s10 4.477 10 10-4.477 10-10 10z"/><path d="M19 20a5 5 0 110-10 5 5 0 010 10zm2 4.996v4h-4v-4zM16 37h6v19a3 3 0 11-6 0V37z"/><rect x="11" y="28.996" width="16" height="8" rx="3"/><path d="M13.001 47l12-2M13 51l12-2m-12 6l12-2"/><circle cx="47" cy="21" r="12"/><path d="M40.5 21l4.333 4 8.667-8M35.919 54.725l-1.045 1.598a2 2 0 01-2.674.638l-3.357-1.938a2 2 0 01-.785-2.635l5.98-11.83a2 2 0 012.786-.83l4.63 2.674a2 2 0 01.674 2.827l-3.079 4.709m-2.191 3.35l.823-1.258.25-.382M37.098 40.598l1.5-2.598m-11 19.055l1.5-2.598m11.464-11.859l1.5-2.598m-11 19.055l1.5-2.598m.804-13.394l6.928 4"/></svg><svg viewBox="0 0 506 563" id="pattern" xmlns="http://www.w3.org/2000/svg"><g opacity=".25"><path d="M602.212 187.549L481.508 375.333h79.968L682.18 187.549 561.633 0h-79.968l120.547 187.549zm-322.01.118h79.96L239.537 0h-79.968l120.633 187.667z"/><path d="M441.767 187.667L200.516 563h79.968l241.251-375.333h-79.968zm80.038 375.215l-.078.118h79.968l.071-.118-120.547-187.549H401.25l120.555 187.549zm-401.258 0l-.07.118h79.96l.079-.118L79.968 375.333H0l120.547 187.549zm39.264-187.667l120.548-187.548H200.39L79.843 375.215l.07.118h79.969l-.071-.118z"/></g></svg><svg viewBox="0 0 451 355" id="pattern-page" xmlns="http://www.w3.org/2000/svg"><g opacity=".25"><path d="M378.556 118.411L302.68 236.454h50.269l75.876-118.043L353.048.516h-50.269l75.777 117.895zm-202.419.074h50.264L150.575.515h-50.269l75.831 117.97z"/><path d="M277.699 118.485L126.046 354.423h50.269l151.652-235.938h-50.268zm151.032 235.863l-.049.075h50.269l.049-.075-75.782-117.894h-50.264l75.777 117.894zm-100.719 0l-.05.075h50.269l.044-.075-75.777-117.894h-50.269l75.783 117.894zm-252.235 0l-.044.075h50.264l.049-.075-75.777-117.894H0l75.777 117.894z"/><path d="M100.459 236.38l75.777-117.895h-50.269L50.19 236.38l.044.074h50.269l-.044-.074z"/></g></svg><svg viewBox="0 0 64 64" id="pay" xmlns="http://www.w3.org/2000/svg"><path d="M53.456 48.393C48.522 54.84 40.746 59 32 59 17.088 59 5 46.912 5 32S17.088 5 32 5s27 12.088 27 27c0 1.36-.1 2.695-.294 4m-3.318 9.5c.363-.627.701-1.27 1.014-1.929"/><path d="M28 44V33m0 0h5a6 6 0 000-12h-5v12zm0 0h-3m0 6h8"/></svg><svg viewBox="0 0 64 64" id="people" xmlns="http://www.w3.org/2000/svg"><path d="M11 48v11m16-11v11m11.25-27L37 35.77c1.041 2.018 2.794 3.23 4.671 3.23h.658c1.877 0 3.63-1.212 4.671-3.23L45.75 32"/><rect x="34" y="9" width="16" height="24" rx="8"/><path d="M34 19l9.81-3.65a2 2 0 011.783.195l2.242 1.45a2 2 0 002.106.04L50 17M32 22a2 2 0 012-2v4a2 2 0 01-2-2zm20 0a2 2 0 01-2 2v-4a2 2 0 012 2zM52 46v13m-4.954-23h.604c5.218 0 9.597 4.445 10.15 10.305L59 59H33.765m3.541-23h-.603c-3.655 0-6.898 2.18-8.703 5.5M16 35l-1 3.23c.833 1.73 2.235 2.77 3.737 2.77h.526c1.502 0 2.904-1.04 3.737-2.77L22 35"/><rect x="11" y="14" width="16" height="22" rx="8"/><path d="M9 26a1 1 0 011-1v2a1 1 0 01-1-1zm20 0a1 1 0 01-1 1v-2a1 1 0 011 1zM22.733 38c.54.658 1.237 1.165 2.008 1.524 4.119 1.919 6.84 4.422 7.26 9.782L33 59H5l.998-9.694c.422-5.36 3.142-7.864 7.26-9.782.772-.36 1.47-.866 2.009-1.524M37 49h-5m9 0h-2M23 14.5V14a4 4 0 00-4-4 4 4 0 00-4 4v.5M27 24c-5 0-8.6-3-11-3-3 0-5 3-5 4"/></svg><svg viewBox="0 0 64 64" id="personal_account" xmlns="http://www.w3.org/2000/svg"><path d="M27.5 42L26 45.5a6.737 6.737 0 005.606 3h.788a6.737 6.737 0 005.606-3L36.5 42"/><rect x="22" y="15" width="20" height="28" rx="10"/><path d="M22 28l11.854-3.719a2 2 0 011.685.229l2.348 1.518a2 2 0 002.027.085L42 25M20 30a2 2 0 012-2v4a2 2 0 01-2-2zm24 0a2 2 0 01-2 2v-4a2 2 0 012 2zM25.818 46a11.532 11.532 0 00-10.604 7m22.968-7c4.908 0 9.159 3.084 10.804 7.5"/><path d="M53.456 48.393C48.522 54.84 40.746 59 32 59 17.088 59 5 46.912 5 32S17.088 5 32 5s27 12.088 27 27c0 1.36-.1 2.695-.294 4m-3.318 9.5c.363-.627.701-1.27 1.014-1.929"/></svg><svg viewBox="0 0 20 20" id="phone" xmlns="http://www.w3.org/2000/svg"><path fill-rule="evenodd" clip-rule="evenodd" d="M6.385 1.558a1.75 1.75 0 00-1.75 1.75v13.384c0 .967.783 1.75 1.75 1.75h7.23a1.75 1.75 0 001.75-1.75V3.308a1.75 1.75 0 00-1.75-1.75h-7.23zm-.25 1.75a.25.25 0 01.25-.25h7.23a.25.25 0 01.25.25v13.384a.25.25 0 01-.25.25h-7.23a.25.25 0 01-.25-.25V3.308zM10 15.384a.77.77 0 100-1.538.77.77 0 000 1.538z"/></svg><svg viewBox="0 0 40 40" id="plus" xmlns="http://www.w3.org/2000/svg"><path d="M15 20h5m0 0h5m-5 0v-5m0 5v5"/><rect x="39.5" y="39.5" width="39" height="39" rx="19.5" transform="rotate(180 39.5 39.5)"/></svg><svg viewBox="0 0 64 64" id="prom_storage" xmlns="http://www.w3.org/2000/svg"><path d="M37 12.847V55H15V9.18l22 3.667zm22 18V55H37V27.18l22 3.667z"/><path d="M21 35h10v4H21zm2 10h6v10h-6zm18-10h14v10H41zM51 35v10m0-6H41M21 19h10v4H21zm0 8h10v4H21zM5 27h10v28H5zM56 30.5V23a4 4 0 00-4-4h-4m-11 0h3m2 0h2M9 27v-8"/><circle cx="9" cy="17" r="2"/></svg><svg viewBox="0 0 64 64" id="quality" xmlns="http://www.w3.org/2000/svg"><path d="M32.556 5.574l2.063 1.378a3 3 0 002.251.448l2.434-.484a1 1 0 011.026.425l1.379 2.063a3 3 0 001.908 1.275l2.434.485a1 1 0 01.785.785l.485 2.434a3 3 0 001.275 1.908l2.063 1.379a1 1 0 01.425 1.026L50.6 21.13a3 3 0 00.448 2.251l1.378 2.064a1 1 0 010 1.11l-1.378 2.064a3 3 0 00-.448 2.251l.484 2.434a1 1 0 01-.425 1.026l-2.063 1.379a3 3 0 00-1.275 1.908l-.485 2.434a1 1 0 01-.785.785l-2.434.485a3 3 0 00-1.908 1.275l-1.379 2.063a1 1 0 01-1.026.425L36.87 44.6a3 3 0 00-2.251.448l-2.063 1.378a1 1 0 01-1.111 0l-2.064-1.378a3 3 0 00-2.251-.448l-2.434.484a1 1 0 01-1.026-.425l-1.379-2.063a3 3 0 00-1.908-1.275l-2.434-.485a1 1 0 01-.785-.785l-.485-2.434a3 3 0 00-1.275-1.908l-2.063-1.379a1 1 0 01-.425-1.026l.484-2.434a3 3 0 00-.448-2.251l-1.378-2.064a1 1 0 010-1.11l1.378-2.064a3 3 0 00.448-2.251l-.484-2.434a1 1 0 01.425-1.026l2.063-1.379a3 3 0 001.275-1.908l.485-2.434a1 1 0 01.785-.785l2.434-.485a3 3 0 001.908-1.275l1.379-2.063a1 1 0 011.026-.425l2.434.484a3 3 0 002.251-.448l2.064-1.378a1 1 0 011.11 0z"/><path d="M47 26c0-8.284-6.716-15-15-15-8.284 0-15 6.716-15 15 0 8.284 6.716 15 15 15 4.443 0 8.434-1.931 11.18-5m1.51-2a14.81 14.81 0 001.062-2M38 45.5V58l-6-4.001L26 58V45.5"/><path d="M32 18.26l2.042 4.137.233.472.52.076 4.567.663-3.305 3.221-.376.367.089.518.78 4.548-4.085-2.147L32 29.87l-.465.245-4.085 2.147.78-4.548.09-.518-.377-.367-3.305-3.22 4.567-.665.52-.075.233-.471L32 18.26z"/></svg><svg viewBox="0 0 478 422" id="right-reguest" xmlns="http://www.w3.org/2000/svg"><g opacity=".15" clip-path="url(#dda)"><path d="M451.391 140.579l-90.474 140.755h59.941l90.474-140.755L420.975 0h-59.941l90.357 140.579zm-241.364.088h59.935L179.546 0h-59.94l90.421 140.667z"/><path d="M331.129 140.667L150.298 422h59.94l180.831-281.333h-59.94zm180.092 281.245l-.059.088h59.941l.058-.088-90.362-140.579h-59.935l90.357 140.579zm-120.099 0l-.058.088h59.94l.053-.088L360.7 281.333h-59.941l90.363 140.579zm-300.765 0l-.053.088h59.935l.059-.088-90.357-140.579H0l90.357 140.579z"/><path d="M119.787 281.245l90.357-140.578h-59.94L59.847 281.245l.053.089h59.94l-.053-.089z"/></g><defs><clipPath id="dda"><path d="M0 0h478v422H0z"/></clipPath></defs></svg><svg viewBox="0 0 64 64" id="robot" xmlns="http://www.w3.org/2000/svg"><path d="M33 38h-9v2h9v-2zm13-14v8h2v-8h-2zm-28 8v-8h-2v8h2zm14-22c7.732 0 14 6.268 14 14h2c0-8.837-7.163-16-16-16v2zm0-2c-8.837 0-16 7.163-16 16h2c0-7.732 6.268-14 14-14V8zm-8 30a6 6 0 01-6-6h-2a8 8 0 008 8v-2z"/><path d="M47 32c0 2.5-1.5 4.5-2 5m6-13c0-10.493-8.507-19-19-19s-19 8.507-19 19"/><path d="M47 23h3a3 3 0 013 3v4a3 3 0 01-3 3h-3V23zM17 33h-3a3 3 0 01-3-3v-4a3 3 0 013-3h3v10z"/><rect x="21" y="21" width="22" height="10" rx="3"/><circle cx="26" cy="26" r="1"/><circle cx="38" cy="26" r="1"/><path d="M49 34v2a2 2 0 01-2 2h-2m-16 2v2a3 3 0 106 0v-2"/><rect x="33" y="35" width="12" height="6" rx="3"/><path d="M13 23V8"/><circle cx="13" cy="7" r="2"/><path d="M28 55h-5m9 0h-2m-1-14a6.265 6.265 0 00-6.227 6.957l.832 7.485A4 4 0 0027.58 59h8.84a4 4 0 003.975-3.558l.832-7.485A6.265 6.265 0 0035 41"/></svg><svg viewBox="0 0 64 64" id="ruble" xmlns="http://www.w3.org/2000/svg"><path d="M53.456 48.393C48.522 54.84 40.746 59 32 59 17.088 59 5 46.912 5 32S17.088 5 32 5s27 12.088 27 27c0 1.36-.1 2.695-.294 4m-3.318 9.5c.363-.627.701-1.27 1.014-1.929"/><path d="M28 44V33m0 0h5a6 6 0 000-12h-5v12zm0 0h-3m0 6h8"/></svg><svg viewBox="0 0 43 42" id="safety" xmlns="http://www.w3.org/2000/svg"><path d="M3.833 14l17.031-8.516a1.05 1.05 0 01.938 0L38.834 14m-16.622 1.977l3.586.93c.462.12.787.54.772 1.018C26.279 26.656 21.334 28 21.334 28s-4.946-1.344-5.236-10.075a1.021 1.021 0 01.771-1.018l3.588-.928a3.5 3.5 0 011.755-.002z"/><path d="M35.334 19.25v14a3.5 3.5 0 01-3.5 3.5h-21a3.5 3.5 0 01-3.5-3.5v-14"/></svg><svg viewBox="0 0 64 64" id="shops" xmlns="http://www.w3.org/2000/svg"><path d="M4 59h56M9 59V22.693l46-17.25V59H9z"/><path d="M15 27h34v32H15zM15 31h34m-34 4h27m2 0h2"/><circle cx="43" cy="19" r="4"/><rect x="37" y="46" width="8" height="13" rx="3"/><path d="M22 35v3m10-3v3m-9 1h-2a2 2 0 100 4h2a2 2 0 100-4zm10 0h-2a2 2 0 100 4h2a2 2 0 100-4zM12 21.5V12a4 4 0 014-4h32"/></svg><svg viewBox="0 0 64 64" id="station" xmlns="http://www.w3.org/2000/svg"><path d="M36 38.4c0 2.449-1.578 4.6-4 4.6-2.422 0-4-2.151-4-4.6 0-1.745 1.063-3.616 2.283-5.153A19.868 19.868 0 0132 31.357l.081.08a19.868 19.868 0 011.636 1.81C34.937 34.784 36 36.655 36 38.4z"/><path d="M34 40.8c0 1.2-.8 2.2-2 2.2s-2-1-2-2.2c0-.828.546-1.793 1.268-2.66.255-.305.51-.574.732-.792.221.218.477.487.732.792.722.867 1.268 1.832 1.268 2.66z"/><path d="M20 5h24a3 3 0 013 3v45H17V8a3 3 0 013-3z"/><rect x="21" y="9" width="22" height="14" rx="1"/><path d="M14 53h36a1 1 0 011 1v5H13v-5a1 1 0 011-1zm33-25a4 4 0 014 4v13a2 2 0 104 0V17.252a10 10 0 00-1.913-5.882L51 8.5"/><path d="M55 14h-1.333a2.667 2.667 0 00-1.6 4.8L55 21m-31-8h6m2 0h2"/></svg><svg viewBox="0 0 64 64" id="storage" xmlns="http://www.w3.org/2000/svg"><g clip-path="url(#dja)"><path d="M4 59h56M31.5 7.699L54 22.573V57H9V22.573L31.5 7.7z"/><path d="M15 27h34v32H15zM15 31h34M8.5 59V22.5"/><path d="M38 37h7v7h-7v-7zm0 9h7v7h-7v-7zm-8.958 0h7v7h-7v-7z"/></g><defs><clipPath id="dja"><path d="M0 0h64v64H0z"/></clipPath></defs></svg><svg viewBox="0 0 64 64" id="telemetry" xmlns="http://www.w3.org/2000/svg"><path d="M43 48l2-1.999L43 44m-22 0l-2 1.998L21 48"/><rect x="9" y="9" width="46" height="46" rx="3"/><rect x="15" y="15" width="34" height="20" rx="1"/><circle cx="32" cy="46" r="3"/><path d="M43 26.4c0 2.449-1.578 4.6-4 4.6-2.422 0-4-2.151-4-4.6 0-1.745 1.063-3.616 2.283-5.153A19.868 19.868 0 0139 19.357l.081.08a19.868 19.868 0 011.636 1.81C41.937 22.784 43 24.655 43 26.4z"/><path d="M41 28.8c0 1.2-.8 2.2-2 2.2s-2-1-2-2.2c0-.828.546-1.793 1.268-2.66.255-.305.51-.574.732-.792.221.218.477.487.732.792.722.867 1.268 1.832 1.268 2.66zm-2.626-4.02zM20 23h10m-10 4h4m2 0h2"/></svg><svg viewBox="0 0 64 64" id="telephone" xmlns="http://www.w3.org/2000/svg"><path d="M34.73 43.925l.729.3.462-.64 2.29-3.17a1 1 0 01.811-.415H48a3 3 0 013 3v5a3 3 0 01-3 3h-3.06A31.93 31.93 0 0113 19.06V16a3 3 0 013-3h5a3 3 0 013 3v8.978a1 1 0 01-.414.81l-3.172 2.291-.639.462.3.73A26.927 26.927 0 0034.73 43.925zM31 19a14 14 0 0114 14m6 0a18.868 18.868 0 00-.1-2M31 13a20 20 0 0119.6 16"/></svg><svg viewBox="0 0 44 44" id="three" xmlns="http://www.w3.org/2000/svg"><path d="M21.52 30.27c-.72 0-1.4-.14-2.04-.42a4.942 4.942 0 01-1.67-1.19 4.601 4.601 0 01-1.01-1.82l2.33-.63c.167.573.47 1.017.91 1.33.447.307.937.457 1.47.45.473 0 .897-.11 1.27-.33a2.4 2.4 0 00.88-.89c.213-.38.32-.803.32-1.27 0-.713-.23-1.31-.69-1.79-.46-.48-1.053-.72-1.78-.72-.22 0-.437.03-.65.09-.207.06-.407.143-.6.25l-1.1-1.9L24 17.29l.21.58h-6.85V15.6h8.83v2.28l-3.89 3.74-.02-.71c.873.06 1.617.303 2.23.73.62.427 1.093.977 1.42 1.65.333.673.5 1.41.5 2.21 0 .907-.223 1.72-.67 2.44a4.816 4.816 0 01-1.78 1.71c-.74.413-1.56.62-2.46.62z"/><rect x=".5" y=".5" width="43" height="43" rx="21.5"/></svg><svg viewBox="0 0 64 64" id="tour_village" xmlns="http://www.w3.org/2000/svg"><path d="M4.5 37.5l27.5-10 27 10M53 55H37v-5m-26 5h16V41a5 5 0 0110 0v1m0 6v-2"/><path d="M14 38.5a2.5 2.5 0 11-5 0 2.5 2.5 0 015 0zm0 7a2.5 2.5 0 11-5 0 2.5 2.5 0 015 0zm0 7a2.5 2.5 0 11-5 0 2.5 2.5 0 015 0zm42-14a2.5 2.5 0 11-5 0 2.5 2.5 0 015 0zm0 7a2.5 2.5 0 11-5 0 2.5 2.5 0 015 0zm0 7a2.5 2.5 0 11-5 0 2.5 2.5 0 015 0zM16.5 33c-.266-.532-.252-4.335-.164-8m.164-5L13 24m3.5-4a289.87 289.87 0 00-.164 5m.164-5l-.164 5m.164-5l3.5 4m-3.664 1L13 29m3.336-4l3.164 3.5m7 .5c-.266-.532-.252-4.335-.164-8m.164-5L23 20m3.5-4a289.87 289.87 0 00-.164 5m.164-5l-.164 5m.164-5l3.5 4m-3.664 1L23 25m3.336-4l3.164 3.5m9 4.5c-.266-.532-.252-4.335-.164-8m.164-5L35 20m3.5-4a289.87 289.87 0 00-.164 5m.164-5l-.164 5m.164-5l3.5 4m-3.664 1L35 25m3.336-4l3.164 3.5"/><path d="M47.5 33c-.266-.532-.252-4.335-.164-8m.164-5L44 24m3.5-4a289.87 289.87 0 00-.164 5m.164-5l-.164 5m.164-5l3.5 4m-3.664 1L44 29m3.336-4l3.164 3.5M38.5 16L35 20m3.5-4a289.87 289.87 0 00-.164 5m.164-5l-.164 5m.164-5l3.5 4m-3.5 9c-.266-.532-.252-4.335-.164-8m0 0L35 25m3.336-4l3.164 3.5"/></svg><svg viewBox="0 0 44 44" id="two" xmlns="http://www.w3.org/2000/svg"><path d="M17 29.98v-2.1l6.16-5.49c.48-.427.813-.83 1-1.21.187-.38.28-.747.28-1.1 0-.48-.103-.907-.31-1.28a2.326 2.326 0 00-.86-.9 2.35 2.35 0 00-1.25-.33c-.5 0-.943.117-1.33.35-.38.227-.677.53-.89.91a2.33 2.33 0 00-.3 1.23h-2.48c0-.96.213-1.797.64-2.51a4.45 4.45 0 011.78-1.66c.76-.393 1.637-.59 2.63-.59.92 0 1.747.207 2.48.62.733.407 1.31.973 1.73 1.7.42.72.63 1.55.63 2.49 0 .687-.093 1.263-.28 1.73a4.057 4.057 0 01-.84 1.29c-.367.393-.823.83-1.37 1.31l-4.37 3.87-.22-.6h7.08v2.27H17z"/><rect x=".5" y=".5" width="43" height="43" rx="21.5"/></svg><svg viewBox="0 0 36 36" id="vk" xmlns="http://www.w3.org/2000/svg"><path d="M18.575 23.444s.34-.037.514-.22c.16-.168.154-.486.154-.486s-.022-1.481.68-1.7c.69-.215 1.577 1.433 2.518 2.066.71.48 1.25.375 1.25.375l2.515-.035s1.316-.08.692-1.094c-.052-.084-.364-.752-1.87-2.124-1.577-1.436-1.365-1.204.534-3.689 1.156-1.513 1.619-2.437 1.474-2.832-.137-.378-.988-.277-.988-.277l-2.83.017s-.21-.028-.366.063c-.152.09-.25.298-.25.298s-.448 1.171-1.046 2.167c-1.26 2.1-1.765 2.212-1.97 2.082-.48-.305-.36-1.222-.36-1.874 0-2.037.314-2.885-.613-3.105-.308-.073-.534-.121-1.322-.13-1.01-.01-1.865.004-2.349.237-.322.154-.57.5-.419.52.187.024.61.112.835.412.29.387.28 1.257.28 1.257s.167 2.397-.39 2.695c-.38.204-.904-.213-2.028-2.12-.576-.975-1.01-2.055-1.01-2.055s-.084-.201-.234-.31a1.2 1.2 0 00-.435-.172l-2.69.018s-.404.01-.552.183c-.132.153-.01.47-.01.47s2.106 4.837 4.49 7.275c2.188 2.235 4.67 2.088 4.67 2.088h1.126z"/></svg><svg viewBox="0 0 42 42" id="wallet" xmlns="http://www.w3.org/2000/svg"><path d="M33.25 35H8.75a3.5 3.5 0 01-3.5-3.5V15.75a3.5 3.5 0 013.5-3.5h24.5a3.5 3.5 0 013.5 3.5V31.5a3.5 3.5 0 01-3.5 3.5z"/><path d="M28.875 24.5a.875.875 0 110-1.75.875.875 0 010 1.75zM31.5 12.25V9.805a3.5 3.5 0 00-4.401-3.38l-19.25 5.132A3.5 3.5 0 005.25 14.94v.81"/></svg><svg viewBox="0 0 64 64" id="worker" xmlns="http://www.w3.org/2000/svg"><path d="M27.5 32L26 35.5a6.737 6.737 0 005.606 3h.788a6.737 6.737 0 005.606-3L36.5 32"/><path d="M42 16v7c0 5.523-4.477 10-10 10s-10-4.477-10-10v-7m-2 4a2 2 0 012-2v4a2 2 0 01-2-2zm24 0a2 2 0 01-2 2v-4a2 2 0 012 2zM20 46v13m24-13v13m-6.5-23h.682a11.528 11.528 0 0111.463 10.305L51 59H13l1.355-12.695A11.528 11.528 0 0125.818 36h.682M36 51h-2m-2 0h-4"/><path d="M20 51a4 4 0 004-4V36.5M44 51a4 4 0 01-4-4V37m-16 7h16m2-27c0 3-5 3-9.999 3H32c-5 0-9.999 0-9.999-3v-2h20v2zm0-2v-2a8 8 0 00-8-8h-4a8 8 0 00-8 8v2"/></svg></svg>