<svg width="140" height="58" viewBox="0 0 140 58" fill="none" xmlns="http://www.w3.org/2000/svg">
<path d="M47.1332 29.4689H54.1675L41.783 0.5H35.1645L22.8215 29.4689H29.6895L31.7894 24.084H45.0402L47.1332 29.4689ZM33.8893 18.7199L38.4356 7.08383L42.9542 18.7199H33.8893Z" fill="#1A2141"/>
<path d="M119.355 0.5H111.752L122.099 14.9844L111.752 29.4689H119.355L129.702 14.9844L119.355 0.5Z" fill="#3AAA35"/>
<path d="M19.2179 1.78211C21.1098 2.63455 22.5652 3.85429 23.584 5.42055C24.6027 6.99374 25.1156 8.858 25.1156 11.0064C25.1156 13.1548 24.6027 14.9844 23.584 16.5715C22.5652 18.1585 21.1098 19.3713 19.2179 20.2168C17.3259 21.0554 15.1012 21.4782 12.537 21.4782H6.70165V29.4689H0V0.5H12.537C15.1012 0.5 17.3328 0.929682 19.2179 1.78211ZM16.7576 14.7141C17.8041 13.8479 18.3308 12.6073 18.3308 11.0133C18.3308 9.41936 17.8041 8.13725 16.7576 7.27095C15.7111 6.40466 14.1795 5.96805 12.1628 5.96805H6.70165V16.024H12.1628C14.1726 16.024 15.7042 15.5874 16.7576 14.7211V14.7141Z" fill="#1A2141"/>
<path d="M82.9493 0.5V29.4689H77.4466L63.0037 11.8796V29.4689H56.3853V0.5H61.9295L76.3308 18.0892V0.5H82.9493Z" fill="#1A2141"/>
<path d="M109.694 24.084V29.4619H87.7937V0.5H109.687V5.87795H94.4607V24.084H109.694Z" fill="#1A2141"/>
<path d="M127.22 7.73529L131.025 13.0647L140 0.5H132.397L127.22 7.73529Z" fill="#1A2141"/>
<path d="M127.22 22.2267L131.025 16.8972L140 29.4689H132.397L127.22 22.2267Z" fill="#1A2141"/>
<path d="M114.871 12.2955H98.7437V17.6665H114.871V12.2955Z" fill="#1A2141"/>
<path d="M67.1967 52.935C66.2749 52.4014 65.5542 51.6668 65.0413 50.7173C64.5216 49.7679 64.2651 48.7006 64.2651 47.5016C64.2651 46.3027 64.5216 45.2354 65.0413 44.2929C65.5611 43.3504 66.2749 42.6157 67.1897 42.089C68.1045 41.5554 69.151 41.2921 70.3223 41.2921C71.4242 41.2921 72.3944 41.5346 73.2261 42.0197C74.0577 42.5049 74.6815 43.2048 75.1042 44.1127L73.0944 45.3879C72.7756 44.8265 72.3736 44.4038 71.8885 44.1266C71.4034 43.8424 70.8767 43.7038 70.3084 43.7038C69.3312 43.7038 68.5204 44.0503 67.8758 44.7364C67.2313 45.4295 66.9125 46.3443 66.9125 47.5016C66.9125 48.659 67.2313 49.5738 67.8689 50.2669C68.5065 50.9599 69.3174 51.2995 70.3084 51.2995C70.8836 51.2995 71.4103 51.1609 71.8885 50.8767C72.3667 50.5926 72.7687 50.1768 73.0944 49.6154L75.1042 50.8906C74.6745 51.7985 74.0369 52.4984 73.2053 52.9905C72.3736 53.4825 71.4103 53.732 70.3223 53.732C69.1649 53.732 68.1253 53.4687 67.1967 52.935Z" fill="#3AAA35"/>
<path d="M87.1491 48.4095H78.3684C78.5208 49.3035 78.9228 50.0104 79.5742 50.5371C80.2257 51.0638 81.0296 51.3203 81.9929 51.3203C83.2196 51.3203 84.2384 50.8837 85.0354 50.0035L86.4422 51.7569C85.9363 52.4083 85.3056 52.9004 84.5364 53.233C83.7671 53.5657 82.9008 53.732 81.9375 53.732C80.7108 53.732 79.6228 53.4687 78.6872 52.935C77.7516 52.4014 77.0308 51.6668 76.518 50.7173C76.0051 49.7679 75.7556 48.7006 75.7556 47.5016C75.7556 46.3027 76.0051 45.2562 76.4972 44.3068C76.9961 43.3573 77.6823 42.6227 78.5624 42.089C79.4426 41.5554 80.4336 41.2921 81.5355 41.2921C82.6375 41.2921 83.6008 41.5554 84.4601 42.0752C85.3195 42.595 85.9917 43.3365 86.4699 44.279C86.9551 45.2285 87.1907 46.3235 87.1907 47.564C87.1907 47.765 87.1768 48.0422 87.1491 48.4026V48.4095ZM79.4079 44.3761C78.8258 44.9166 78.4723 45.6305 78.3476 46.5245H84.6958C84.5849 45.6443 84.2453 44.9305 83.6701 44.3899C83.0949 43.8424 82.388 43.5721 81.5355 43.5721C80.6831 43.5721 79.9901 43.8424 79.4079 44.383V44.3761Z" fill="#3AAA35"/>
<path d="M98.6673 42.0614C99.5267 42.5742 100.199 43.3019 100.691 44.2444C101.183 45.1869 101.426 46.2681 101.426 47.4947C101.426 48.7214 101.183 49.8095 100.691 50.7589C100.199 51.7084 99.5267 52.4361 98.6673 52.9559C97.8079 53.4687 96.8308 53.7321 95.7427 53.7321C94.2319 53.7321 93.0399 53.1846 92.1597 52.0965V57.9873H89.54V41.4307H92.035V43.0247C92.4647 42.4495 93.0052 42.0128 93.6359 41.7287C94.2735 41.4376 94.9734 41.299 95.7427 41.299C96.8308 41.299 97.8079 41.5554 98.6673 42.0752V42.0614ZM97.8287 50.2461C98.4525 49.5531 98.7643 48.6313 98.7643 47.4947C98.7643 46.3582 98.4525 45.4434 97.8287 44.7434C97.205 44.0434 96.4149 43.6969 95.4516 43.6969C94.821 43.6969 94.2596 43.8563 93.7537 44.1612C93.2478 44.4731 92.8527 44.9167 92.5617 45.4919C92.2706 46.0671 92.1181 46.7324 92.1181 47.4947C92.1181 48.2571 92.2637 48.9224 92.5617 49.4976C92.8527 50.0728 93.2547 50.5164 93.7537 50.8282C94.2596 51.1401 94.821 51.2926 95.4516 51.2926C96.4149 51.2926 97.205 50.9461 97.8287 50.2461Z" fill="#3AAA35"/>
<path d="M113.679 50.1559C113.679 51.244 113.304 52.0895 112.549 52.6786C111.794 53.2677 110.678 53.5657 109.195 53.5657H103.491V41.4237H108.959C110.331 41.4237 111.398 41.694 112.168 42.2415C112.937 42.789 113.318 43.5583 113.318 44.5632C113.318 45.1869 113.166 45.7205 112.868 46.1779C112.57 46.6353 112.147 46.9888 111.599 47.2452C112.986 47.7026 113.672 48.6729 113.672 50.1559H113.679ZM105.986 46.4967H108.73C110.089 46.4967 110.761 45.9908 110.761 44.972C110.761 43.9533 110.082 43.4959 108.73 43.4959H105.986V46.4967ZM111.142 49.9758C111.142 49.4421 110.976 49.0471 110.636 48.7837C110.303 48.5204 109.777 48.3818 109.063 48.3818H105.979V51.5004H108.973C110.414 51.5004 111.128 50.9945 111.128 49.9758H111.142Z" fill="#3AAA35"/>
<path d="M115.945 41.4237H118.564V49.4283L124.746 41.4237H127.137V53.5657H124.518V45.5611L118.357 53.5657H115.945V41.4237Z" fill="#3AAA35"/>
<path d="M132.1 52.935C131.178 52.4014 130.457 51.6668 129.944 50.7173C129.424 49.7679 129.168 48.7006 129.168 47.5016C129.168 46.3027 129.424 45.2354 129.944 44.2929C130.464 43.3504 131.178 42.6157 132.093 42.089C133.007 41.5554 134.054 41.2921 135.225 41.2921C136.327 41.2921 137.297 41.5346 138.129 42.0197C138.961 42.5049 139.584 43.2048 140.007 44.1127L137.997 45.3879C137.678 44.8265 137.276 44.4038 136.791 44.1266C136.306 43.8424 135.78 43.7038 135.211 43.7038C134.234 43.7038 133.423 44.0503 132.779 44.7364C132.134 45.4295 131.815 46.3443 131.815 47.5016C131.815 48.659 132.134 49.5738 132.772 50.2669C133.409 50.9599 134.22 51.2995 135.211 51.2995C135.786 51.2995 136.313 51.1609 136.791 50.8767C137.27 50.5926 137.672 50.1768 137.997 49.6154L140.007 50.8906C139.577 51.7985 138.94 52.4984 138.108 52.9905C137.276 53.4825 136.313 53.732 135.225 53.732C134.068 53.732 133.028 53.4687 132.1 52.935Z" fill="#3AAA35"/>
</svg>
