<svg width="64" height="64" viewBox="0 0 64 64" fill="none" xmlns="http://www.w3.org/2000/svg">
    <path d="M22 26.4627L22 25.0786V25.0017C22 23.8973 22.8951 23.002 23.9994 23.0017L27.9994 23.0006C29.1042 23.0002 30 23.8958 30 25.0006V28.0268C30 28.6412 29.7176 29.2214 29.2342 29.6006L22.7658 34.6731C22.2824 35.0522 22 35.6325 22 36.2469V39.0004C22 40.1049 22.8954 41.0004 24 41.0004H31" stroke="#2E3237" stroke-width="2"/>
    <path d="M42 42V22" stroke="#2E3237" stroke-width="2"/>
    <path d="M34 22L34 33C34 34.1046 34.8954 35 36 35H41" stroke="#2E3237" stroke-width="2"/>
    <path d="M56.1481 38.4719C59.7216 25.1353 51.8071 11.4268 38.4704 7.85329C25.1338 4.27974 11.4253 12.1943 7.85179 25.531C4.27824 38.8676 12.1928 52.576 25.5295 56.1496C33.3245 58.2383 41.2466 56.4023 47.1978 51.853M50.4415 48.8883C49.9671 49.4054 49.4723 49.9012 48.9585 50.3745" stroke="#2E3237" stroke-width="2"/>
    <path d="M55.9822 42.5428C55.4355 43.1594 54.4195 42.8872 54.2543 42.0799L53.4633 38.2156C53.3142 37.4873 53.9837 36.8567 54.7018 37.0492L58.1095 37.9622C58.8275 38.1546 59.0921 39.0354 58.5989 39.5916L55.9822 42.5428Z" stroke="#2E3237" stroke-width="2"/>
</svg>
