<svg width="64" height="64" viewBox="0 0 64 64" fill="none" xmlns="http://www.w3.org/2000/svg">
    <path d="M23.85 13.9862C27.202 8.59163 33.1816 5 40 5C50.4934 5 59 13.5066 59 24C59 34.4934 50.4934 43 40 43C36.7437 43 33.6788 42.1809 31 40.7374" stroke="#2E3237" stroke-width="2"/>
    <path d="M9.33333 59L10.5 55H26.5L27.6667 59H9.33333Z" stroke="#2E3237" stroke-width="2"/>
    <path d="M4 59L56 59" stroke="#2E3237" stroke-width="2"/>
    <line x1="58" y1="59" x2="60" y2="59" stroke="#2E3237" stroke-width="2"/>
    <path d="M5 22C5 20.3431 6.34315 19 8 19H28C29.6569 19 31 20.3431 31 22V52C31 53.6569 29.6569 55 28 55H8C6.34315 55 5 53.6569 5 52V22Z" stroke="#2E3237" stroke-width="2"/>
    <path d="M23 37.6C23 40.3998 21.0941 43 18 43C14.9059 43 13 40.3998 13 37.6C13 35.572 14.2957 33.4072 15.7682 31.6402C16.4847 30.7804 17.204 30.0609 17.7448 29.5561C17.8354 29.4716 17.9207 29.3932 18 29.3215C18.0793 29.3932 18.1646 29.4716 18.2552 29.5561C18.796 30.0609 19.5153 30.7804 20.2318 31.6402C21.7043 33.4072 23 35.572 23 37.6Z" stroke="#2E3237" stroke-width="2"/>
    <path d="M20 40.8C20 41.9998 19.2006 43 18 43C16.7994 43 16 41.9998 16 40.8C16 39.972 16.5457 39.0072 17.2682 38.1402C17.5227 37.8348 17.7787 37.5657 18 37.3482C18.2213 37.5657 18.4773 37.8348 18.7318 38.1402C19.4543 39.0072 20 39.972 20 40.8ZM17.3744 36.7801C17.3742 36.78 17.3743 36.78 17.3745 36.7802L17.3744 36.7801Z" stroke="#2E3237" stroke-width="2"/>
    <path d="M12 14C12 13.4477 12.4477 13 13 13H21H23C23.5523 13 24 13.4477 24 14V19H12V14Z" stroke="#2E3237" stroke-width="2"/>
    <path d="M30 8L36.1953 15.0803C36.6893 15.6449 37.4577 15.8856 38.1855 15.7036L43.8358 14.291C44.5524 14.1119 45.1119 13.5524 45.291 12.8358L47 6M58 18L53.874 22.126C53.3384 22.6616 52.546 22.8487 51.8274 22.6091L48.1726 21.3909C47.454 21.1513 46.6616 21.3384 46.126 21.874L42.9575 25.0425C42.3792 25.6208 42.2112 26.4929 42.5334 27.2446L44.6737 32.2386C44.8826 32.7261 44.8893 33.2767 44.6923 33.7692L41 43" stroke="#2E3237" stroke-width="2" stroke-miterlimit="16"/>
    <path d="M31 31L34.6662 35.5828C34.8849 35.8561 35.028 36.1821 35.0812 36.5281L36 42.5" stroke="#2E3237" stroke-width="2" stroke-miterlimit="16"/>
</svg>
