<svg width="64" height="64" viewBox="0 0 64 64" fill="none" xmlns="http://www.w3.org/2000/svg">
    <path d="M21.3874 59L22.7208 55H41.2792L42.6126 59H21.3874Z" stroke="#2E3237" stroke-width="2"/>
    <path d="M4 59L56 59" stroke="#2E3237" stroke-width="2"/>
    <line x1="58" y1="59" x2="60" y2="59" stroke="#2E3237" stroke-width="2"/>
    <path d="M17 16C17 14.3431 18.3431 13 20 13H44C45.6569 13 47 14.3431 47 16V52C47 53.6569 45.6569 55 44 55H20C18.3431 55 17 53.6569 17 52V16Z" stroke="#2E3237" stroke-width="2"/>
    <path d="M25 6C25 5.44772 25.4477 5 26 5H38C38.5523 5 39 5.44772 39 6V13H25V6Z" stroke="#2E3237" stroke-width="2"/>
    <line x1="32" y1="10" x2="32" y2="12" stroke="#2E3237" stroke-width="2"/>
    <line x1="28" y1="9" x2="36" y2="9" stroke="#2E3237" stroke-width="2"/>
    <path d="M39 33.2C39 37.2307 36.3304 41 32 41C27.6696 41 25 37.2307 25 33.2C25 30.2614 26.8069 27.1925 28.7778 24.7535C29.7451 23.5565 30.7149 22.5561 31.4435 21.8549C31.651 21.6551 31.8384 21.4802 32 21.3323C32.1616 21.4802 32.349 21.6551 32.5565 21.8549C33.2851 22.5561 34.2549 23.5565 35.2222 24.7535C37.1931 27.1925 39 30.2614 39 33.2Z" stroke="#2E3237" stroke-width="2"/>
    <path d="M35 37.2C35 38.2088 34.6871 39.1894 34.1508 39.8947C33.6289 40.5809 32.9085 41 32 41C31.0915 41 30.3711 40.5809 29.8492 39.8947C29.3129 39.1894 29 38.2088 29 37.2C29 35.7327 29.8356 34.1519 30.8036 32.8452C31.2306 32.2687 31.6593 31.7776 32 31.4134C32.3407 31.7776 32.7694 32.2687 33.1964 32.8452C34.1644 34.1519 35 35.7327 35 37.2Z" stroke="#2E3237" stroke-width="2"/>
</svg>
