<svg width="64" height="64" viewBox="0 0 64 64" fill="none" xmlns="http://www.w3.org/2000/svg">
    <path d="M41 43V18H52.6787C54.1141 18 55.4395 18.7691 56.1517 20.0154L58.473 24.0777C58.8183 24.6821 59 25.3662 59 26.0623V42C59 43.1046 58.1046 44 57 44H55" stroke="#2E3237" stroke-width="2"/>
    <rect x="5" y="17" width="36" height="20" rx="10" stroke="#2E3237" stroke-width="2"/>
    <path d="M27 28.4C27 30.8489 25.4219 33 23 33C20.5781 33 19 30.8489 19 28.4C19 26.6553 20.0632 24.784 21.2833 23.2467C21.876 22.4998 22.4712 21.8746 22.9187 21.4361C22.9464 21.4089 22.9735 21.3825 23 21.3569C23.0265 21.3825 23.0536 21.4089 23.0813 21.4361C23.5288 21.8746 24.124 22.4998 24.7167 23.2467C25.9368 24.784 27 26.6553 27 28.4Z" stroke="#2E3237" stroke-width="2"/>
    <path d="M25 30.8C25 31.9998 24.2006 33 23 33C21.7994 33 21 31.9998 21 30.8C21 29.972 21.5457 29.0072 22.2682 28.1402C22.5227 27.8348 22.7787 27.5657 23 27.3482C23.2213 27.5657 23.4773 27.8348 23.7318 28.1402C24.4543 29.0072 25 29.972 25 30.8ZM22.3744 26.7801C22.3742 26.78 22.3743 26.78 22.3745 26.7802L22.3744 26.7801Z" stroke="#2E3237" stroke-width="2"/>
    <path d="M4 44H9" stroke="#2E3237" stroke-width="2"/>
    <path d="M19 44H24" stroke="#2E3237" stroke-width="2"/>
    <path d="M33 44H45" stroke="#2E3237" stroke-width="2"/>
    <path d="M4 37H41" stroke="#2E3237" stroke-width="2"/>
    <path d="M5 47L5 38" stroke="#2E3237" stroke-width="2"/>
    <circle cx="50" cy="46" r="5" stroke="#2E3237" stroke-width="2"/>
    <circle cx="14" cy="46" r="5" stroke="#2E3237" stroke-width="2"/>
    <circle cx="28" cy="46" r="5" stroke="#2E3237" stroke-width="2"/>
    <path d="M57 22H49C47.8954 22 47 22.8954 47 24V27.117C47 28.8387 48.1017 30.3672 49.7351 30.9117L59 34" stroke="#2E3237" stroke-width="2"/>
    <rect x="40" y="34" width="4" height="2" fill="#2E3237"/>
    <rect x="46" y="34" width="2" height="2" fill="#2E3237"/>
    <rect x="16" y="13" width="8" height="4" stroke="#2E3237" stroke-width="2"/>
</svg>
