<svg width="64" height="64" viewBox="0 0 64 64" fill="none" xmlns="http://www.w3.org/2000/svg">
    <path d="M49.3167 16.8695L53.382 25L10.618 25L14.6833 16.8695C15.869 14.498 18.2929 13 20.9443 13L43.0557 13C45.7071 13 48.131 14.498 49.3167 16.8695Z" stroke="#2E3237" stroke-width="2"/>
    <path d="M19.5771 43.864C19.645 43.3689 20.068 43 20.5678 43H43.4322C43.932 43 44.355 43.3689 44.4229 43.864L44.8534 47H19.1466L19.5771 43.864Z" stroke="#2E3237" stroke-width="2"/>
    <path d="M5 32C5 31.4477 5.44772 31 6 31H14C14.5523 31 15 31.4477 15 32C15 33.6569 13.6569 35 12 35H5V32Z" stroke="#2E3237" stroke-width="2"/>
    <path d="M49 32C49 31.4477 49.4477 31 50 31H58C58.5523 31 59 31.4477 59 32V35H52C50.3431 35 49 33.6569 49 32Z" stroke="#2E3237" stroke-width="2"/>
    <path d="M55 23C55 22.4477 55.4477 22 56 22H58C58.5523 22 59 22.4477 59 23C59 23.5523 58.5523 24 58 24H55V23Z" stroke="#2E3237" stroke-width="2"/>
    <path d="M5 23C5 22.4477 5.44772 22 6 22H8C8.55228 22 9 22.4477 9 23V24H6C5.44772 24 5 23.5523 5 23Z" stroke="#2E3237" stroke-width="2"/>
    <path d="M59 32.9972V31.8259C59 31.2953 58.7892 30.7865 58.4139 30.4114L53 25" stroke="#2E3237" stroke-width="2"/>
    <path d="M5 32.9972V31.8259C5 31.2953 5.21084 30.7865 5.58611 30.4114L11 25" stroke="#2E3237" stroke-width="2"/>
    <path d="M5 40V35" stroke="#2E3237" stroke-width="2"/>
    <path d="M59 40V35" stroke="#2E3237" stroke-width="2"/>
    <line x1="18" y1="31" x2="46" y2="31" stroke="#2E3237" stroke-width="2"/>
    <line x1="21" y1="35" x2="39" y2="35" stroke="#2E3237" stroke-width="2"/>
    <line x1="41" y1="35" x2="43" y2="35" stroke="#2E3237" stroke-width="2"/>
    <circle cx="53" cy="41" r="2" stroke="#2E3237" stroke-width="2"/>
    <circle cx="11" cy="41" r="2" stroke="#2E3237" stroke-width="2"/>
    <path d="M5 43L5 49C5 50.1046 5.89543 51 7 51H11C12.1046 51 13 50.1046 13 49V46.4286" stroke="#2E3237" stroke-width="2"/>
    <path d="M59 43L59 49C59 50.1046 58.1046 51 57 51H53C51.8954 51 51 50.1046 51 49V46.4286" stroke="#2E3237" stroke-width="2"/>
    <path d="M5 37V43C5 45.2091 6.79086 47 9 47H55C57.2091 47 59 45.2091 59 43V37" stroke="#2E3237" stroke-width="2"/>
</svg>
