<svg width="64" height="64" viewBox="0 0 64 64" fill="none" xmlns="http://www.w3.org/2000/svg">
    <rect x="22" y="5" width="20" height="28" rx="10" stroke="#2E3237" stroke-width="2"/>
    <path d="M20 20C20 18.8954 20.8954 18 22 18L22 22C20.8954 22 20 21.1046 20 20Z" stroke="#2E3237" stroke-width="2"/>
    <path d="M44 20C44 21.1046 43.1046 22 42 22L42 18C43.1046 18 44 18.8954 44 20Z" stroke="#2E3237" stroke-width="2"/>
    <path d="M20 50V59M44 46V59M37.5 36H38.1818C44.0753 36 49.0198 40.4449 49.6452 46.3051L51 59H13L14.3548 46.3051C14.9802 40.4449 19.9247 36 25.8182 36H26.5" stroke="#2E3237" stroke-width="2" stroke-miterlimit="16"/>
    <path d="M20 48V46" stroke="#2E3237" stroke-width="2" stroke-miterlimit="16"/>
    <path d="M27.5 32L26 35.5C27.2495 37.3742 29.353 38.5 31.6056 38.5H32.3944C34.647 38.5 36.7505 37.3742 38 35.5L36.5 32" stroke="#2E3237" stroke-width="2" stroke-miterlimit="16"/>
    <path d="M32 59V39.5" stroke="#2E3237" stroke-width="2" stroke-miterlimit="16"/>
    <path d="M22 17V17C23.8551 15.1449 26.562 14.426 29.0931 15.1163L34.4969 16.5901C35.4264 16.8436 36.4204 16.5796 37.1017 15.8983V15.8983C38.1501 14.8499 39.8499 14.8499 40.8983 15.8983L42 17" stroke="#2E3237" stroke-width="2" stroke-miterlimit="16"/>
</svg>
