<svg width="64" height="64" viewBox="0 0 64 64" fill="none" xmlns="http://www.w3.org/2000/svg">
    <path d="M22.8182 36V36C16.8168 36 11.6742 40.2919 10.6006 46.1965L9 55H28" stroke="#2E3237" stroke-width="2"/>
    <path d="M22 36L23.5 32.5M33.5 35L32.7501 32.5" stroke="#2E3237" stroke-width="2"/>
    <path d="M28 39H27.6056C25.353 39 23.2495 37.8742 22 36V36" stroke="#2E3237" stroke-width="2" stroke-miterlimit="16"/>
    <rect x="18" y="5" width="20" height="28" rx="10" stroke="#2E3237" stroke-width="2"/>
    <path d="M18 18L29.8541 14.2811C30.4216 14.103 31.039 14.1868 31.5386 14.5098L33.8866 16.0277C34.4966 16.4221 35.2726 16.4546 35.9135 16.1128L38 15" stroke="#2E3237" stroke-width="2" stroke-miterlimit="16"/>
    <path d="M16 20C16 18.8954 16.8954 18 18 18L18 22C16.8954 22 16 21.1046 16 20Z" stroke="#2E3237" stroke-width="2"/>
    <path d="M40 20C40 21.1046 39.1046 22 38 22L38 18C39.1046 18 40 18.8954 40 20Z" stroke="#2E3237" stroke-width="2"/>
    <path d="M55 40V49C55 50.1046 54.1046 51 53 51H29C27.8954 51 27 50.1046 27 49V39C27 36.7909 28.7909 35 31 35H43" stroke="#2E3237" stroke-width="2" stroke-miterlimit="16"/>
    <path d="M27 52C27 51.4477 27.4477 51 28 51H54C54.5523 51 55 51.4477 55 52V55H27V52Z" stroke="#2E3237" stroke-width="2"/>
    <path d="M16 50V55" stroke="#2E3237" stroke-width="2" stroke-miterlimit="16"/>
    <path d="M16 46V48" stroke="#2E3237" stroke-width="2" stroke-miterlimit="16"/>
    <rect x="5" y="55" width="54" height="4" stroke="#2E3237" stroke-width="2"/>
    <circle cx="51" cy="33" r="8" stroke="#2E3237" stroke-width="2"/>
    <line x1="54" y1="33" x2="56" y2="33" stroke="#2E3237" stroke-width="2"/>
    <line x1="50" y1="33" x2="52" y2="33" stroke="#2E3237" stroke-width="2"/>
    <line x1="46" y1="33" x2="48" y2="33" stroke="#2E3237" stroke-width="2"/>
</svg>
