<svg width="24" height="24" viewBox="0 0 24 24" fill="none" xmlns="http://www.w3.org/2000/svg">
<path d="M19.4 20.0001H9.6C9.44087 20.0001 9.28826 19.9369 9.17574 19.8244C9.06321 19.7119 9 19.5593 9 19.4001V9.60012C9 9.44099 9.06321 9.28838 9.17574 9.17586C9.28826 9.06334 9.44087 9.00012 9.6 9.00012H19.4C19.5591 9.00012 19.7117 9.06334 19.8243 9.17586C19.9368 9.28838 20 9.44099 20 9.60012V19.4001C20 19.5593 19.9368 19.7119 19.8243 19.8244C19.7117 19.9369 19.5591 20.0001 19.4 20.0001Z" stroke="#009FE3" stroke-width="2" stroke-linecap="round" stroke-linejoin="round"/>
<path d="M15 9.00012V4.60012C15 4.44099 14.9368 4.28838 14.8243 4.17586C14.7117 4.06334 14.5591 4.00012 14.4 4.00012H4.6C4.44087 4.00012 4.28826 4.06334 4.17574 4.17586C4.06321 4.28838 4 4.44099 4 4.60012V14.4001C4 14.5593 4.06321 14.7119 4.17574 14.8244C4.28826 14.9369 4.44087 15.0001 4.6 15.0001H9" stroke="#009FE3" stroke-width="2" stroke-linecap="round" stroke-linejoin="round"/>
</svg>
