<svg width="64" height="64" viewBox="0 0 64 64" fill="none" xmlns="http://www.w3.org/2000/svg">
    <path d="M44.5 46.3789C45.8534 45.2114 47.0403 43.8568 48.0202 42.3556M14.1439 38.5022C13.4037 36.4743 13 34.2851 13 32.0019C13 31.3994 13.0281 30.8035 13.0831 30.2153M13.9691 26.0022C13.7519 26.6539 13.569 27.3213 13.4228 28.0022M49.5528 24.5022C47.7985 20.433 44.6602 17.0977 40.7289 15.0859" stroke="#2E3237" stroke-width="2"/>
    <path d="M57.6194 33.6505L51.2804 38.933C50.5387 39.5511 49.4613 39.5511 48.7196 38.933L42.3806 33.6505C41.5954 32.9962 41.4299 31.8551 41.9969 31.0047L43.4063 28.8906C43.7772 28.3342 44.4017 28 45.0704 28H50H54.9296C55.5983 28 56.2228 28.3342 56.5937 28.8906L58.0031 31.0047C58.5701 31.8551 58.4046 32.9962 57.6194 33.6505Z" stroke="#2E3237" stroke-width="2" stroke-miterlimit="16"/>
    <path d="M44 28L50 32L56 28" stroke="#2E3237" stroke-width="2" stroke-miterlimit="16"/>
    <path d="M50 40V32" stroke="#2E3237" stroke-width="2" stroke-miterlimit="16"/>
    <path d="M58 33L50 32" stroke="#2E3237" stroke-width="2" stroke-miterlimit="16"/>
    <path d="M42 33L49.9998 32" stroke="#2E3237" stroke-width="2" stroke-miterlimit="16"/>
    <path d="M22.5 32L21 35.5C22.2495 37.3742 24.353 38.5 26.6056 38.5H27.3944C29.647 38.5 31.7505 37.3742 33 35.5L31.5 32" stroke="#2E3237" stroke-width="2" stroke-miterlimit="16"/>
    <rect x="17" y="5" width="20" height="28" rx="10" stroke="#2E3237" stroke-width="2"/>
    <path d="M16.9998 18L28.8541 14.2811C29.4216 14.103 30.039 14.1868 30.5385 14.5098L32.8866 16.0277C33.4966 16.4221 34.2726 16.4546 34.9135 16.1128L37 15" stroke="#2E3237" stroke-width="2" stroke-miterlimit="16"/>
    <path d="M15 20C15 18.8954 15.8954 18 17 18L17 22C15.8954 22 15 21.1046 15 20Z" stroke="#2E3237" stroke-width="2"/>
    <path d="M39 20C39 21.1046 38.1046 22 37 22L37 18C38.1046 18 39 18.8954 39 20Z" stroke="#2E3237" stroke-width="2"/>
    <path d="M15 46V59M39 46V59M32.5 36H33.1818C39.0753 36 44.0198 40.4449 44.6452 46.3051L46 59H8L9.35479 46.3051C9.98018 40.4449 14.9247 36 20.8182 36H21.5" stroke="#2E3237" stroke-width="2" stroke-miterlimit="16"/>
</svg>
