<svg width="64" height="64" viewBox="0 0 64 64" fill="none" xmlns="http://www.w3.org/2000/svg">
    <path d="M55 48.75C55 49.4917 54.7426 50.5201 54.2612 51.7038C53.7877 52.868 53.1302 54.1037 52.4074 55.2344C51.6828 56.368 50.9121 57.3653 50.2241 58.0656C49.879 58.417 49.5765 58.6711 49.3306 58.8307C49.1334 58.9587 49.0275 58.99 49 58.9976C48.9725 58.99 48.8666 58.9587 48.6694 58.8307C48.4235 58.6711 48.121 58.417 47.7759 58.0656C47.0879 57.3653 46.3172 56.368 45.5926 55.2344C44.8698 54.1037 44.2123 52.868 43.7388 51.7038C43.2574 50.5201 43 49.4917 43 48.75C43 45.6083 45.6517 43 49 43C52.3483 43 55 45.6083 55 48.75Z" stroke="#2E3237" stroke-width="2"/>
    <circle cx="49" cy="49" r="2" stroke="#2E3237" stroke-width="2"/>
    <rect x="5" y="9" width="10" height="12" rx="3" stroke="#2E3237" stroke-width="2"/>
    <line x1="6" y1="5" x2="14" y2="5" stroke="#2E3237" stroke-width="2"/>
    <line x1="10" y1="4" x2="10" y2="10" stroke="#2E3237" stroke-width="2"/>
    <path d="M15.5 15H43C46.3137 15 49 17.6863 49 21V21C49 24.3137 46.3137 27 43 27H16C13.7909 27 12 28.7909 12 31V31C12 33.2091 13.7909 35 16 35H37C39.2091 35 41 36.7909 41 39V39C41 41.2091 39.2091 43 37 43H16C13.7909 43 12 44.7909 12 47V47C12 49.2091 13.7909 51 16 51H36" stroke="#2E3237" stroke-width="2"/>
    <line x1="38" y1="51" x2="40" y2="51" stroke="#2E3237" stroke-width="2"/>
</svg>
