<svg width="64" height="64" viewBox="0 0 64 64" fill="none" xmlns="http://www.w3.org/2000/svg">
    <rect x="5" y="19" width="54" height="8" stroke="#2E3237" stroke-width="2"/>
    <path d="M10 45H16" stroke="#2E3237" stroke-width="2"/>
    <path d="M10 41H24" stroke="#2E3237" stroke-width="2"/>
    <path d="M18 45H20" stroke="#2E3237" stroke-width="2"/>
    <circle cx="43" cy="43" r="12" stroke="#2E3237" stroke-width="2"/>
    <line x1="49.364" y1="36.636" x2="36.636" y2="49.364" stroke="#2E3237" stroke-width="2"/>
    <circle cx="47.2426" cy="47.2426" r="2" transform="rotate(45 47.2426 47.2426)" stroke="#2E3237" stroke-width="2"/>
    <circle cx="38.7574" cy="38.7574" r="2" transform="rotate(45 38.7574 38.7574)" stroke="#2E3237" stroke-width="2"/>
    <path d="M52 51H55C57.2091 51 59 49.2091 59 47V17C59 14.7909 57.2091 13 55 13H9C6.79086 13 5 14.7909 5 17V47C5 49.2091 6.79086 51 9 51H34" stroke="#2E3237" stroke-width="2"/>
</svg>
