<svg width="28" height="28" viewBox="0 0 28 28" fill="none" xmlns="http://www.w3.org/2000/svg">
<path d="M16.3333 22.1662H17.4999V24.4995H2.33325V22.1662H3.49992V4.66618C3.49992 4.35676 3.62283 4.06001 3.84163 3.84122C4.06042 3.62243 4.35717 3.49951 4.66659 3.49951H15.1666C15.476 3.49951 15.7728 3.62243 15.9915 3.84122C16.2103 4.06001 16.3333 4.35676 16.3333 4.66618V13.9995H18.6666C19.2854 13.9995 19.8789 14.2453 20.3165 14.6829C20.7541 15.1205 20.9999 15.714 20.9999 16.3328V20.9995C20.9999 21.3089 21.1228 21.6057 21.3416 21.8245C21.5604 22.0433 21.8572 22.1662 22.1666 22.1662C22.476 22.1662 22.7728 22.0433 22.9915 21.8245C23.2103 21.6057 23.3333 21.3089 23.3333 20.9995V12.8328H20.9999C20.6905 12.8328 20.3938 12.7099 20.175 12.4911C19.9562 12.2723 19.8333 11.9756 19.8333 11.6662V7.48251L17.9001 5.54935L19.5498 3.89968L25.3248 9.67468C25.4333 9.78287 25.5193 9.91144 25.578 10.053C25.6366 10.1945 25.6667 10.3463 25.6666 10.4995V20.9995C25.6666 21.9278 25.2978 22.818 24.6415 23.4744C23.9851 24.1308 23.0948 24.4995 22.1666 24.4995C21.2383 24.4995 20.3481 24.1308 19.6917 23.4744C19.0353 22.818 18.6666 21.9278 18.6666 20.9995V16.3328H16.3333V22.1662ZM5.83325 22.1662H13.9999V15.1662H5.83325V22.1662ZM5.83325 5.83285V12.8328H13.9999V5.83285H5.83325Z" fill="#00A3DA"/>
</svg>
