<svg width="64" height="64" viewBox="0 0 64 64" fill="none" xmlns="http://www.w3.org/2000/svg">
    <rect x="5" y="13" width="54" height="38" rx="3" stroke="#2E3237" stroke-width="2"/>
    <rect x="5" y="19" width="54" height="8" stroke="#2E3237" stroke-width="2"/>
    <path d="M53 40.4C53 42.8489 51.4219 45 49 45C46.5781 45 45 42.8489 45 40.4C45 38.6553 46.0632 36.784 47.2833 35.2467C47.876 34.4998 48.4712 33.8746 48.9187 33.4361C48.9464 33.4089 48.9735 33.3825 49 33.3569C49.0265 33.3825 49.0536 33.4089 49.0813 33.4361C49.5288 33.8746 50.124 34.4998 50.7167 35.2467C51.9368 36.784 53 38.6553 53 40.4Z" stroke="#2E3237" stroke-width="2"/>
    <path d="M51 42.8C51 43.9998 50.2006 45 49 45C47.7994 45 47 43.9998 47 42.8C47 41.972 47.5457 41.0072 48.2682 40.1402C48.5227 39.8348 48.7787 39.5657 49 39.3482C49.2213 39.5657 49.4773 39.8348 49.7318 40.1402C50.4543 41.0072 51 41.972 51 42.8Z" stroke="#2E3237" stroke-width="2"/>
    <path d="M10 45H16" stroke="#2E3237" stroke-width="2"/>
    <path d="M10 41H24" stroke="#2E3237" stroke-width="2"/>
    <path d="M18 45H20" stroke="#2E3237" stroke-width="2"/>
</svg>
