<svg width="64" height="64" viewBox="0 0 64 64" fill="none" xmlns="http://www.w3.org/2000/svg">
    <path d="M39.7235 46C39.9004 46.7272 40 47.4636 40 48.2C40 52.6 37.0495 57 32 57C26.9505 57 24 52.6 24 48.2C24 41.6 32 35 32 35C32 35 34 36.65 36 39.125M39.1163 44.1667C38.8562 43.54 38.5498 42.9267 38.2129 42.3333" stroke="#2E3237" stroke-width="2"/>
    <path d="M50 37.2C50 47.2259 43.2775 57 32 57C20.7225 57 14 47.2259 14 37.2C14 29.763 18.5552 22.1948 23.2763 16.3803C25.6185 13.4958 27.9632 11.0891 29.723 9.4034C30.6023 8.56114 31.3339 7.90041 31.8441 7.45161C31.8986 7.40363 31.9506 7.35809 32 7.315C32.0494 7.35809 32.1014 7.40363 32.1559 7.45161C32.6661 7.90041 33.3977 8.56114 34.277 9.4034C36.0368 11.0891 38.3815 13.4958 40.7237 16.3803C45.4448 22.1948 50 29.763 50 37.2Z" stroke="#2E3237" stroke-width="2"/>
</svg>
