<svg width="64" height="64" viewBox="0 0 64 64" fill="none" xmlns="http://www.w3.org/2000/svg">
    <path d="M37.9087 12.7692C34.6458 9.20485 32 7 32 7C32 7 14 22 14 37C14 47 20.6387 57 32 57C42.3389 57 48.767 48.7188 49.8401 39.6923C49.877 39.3817 49.9076 39.0703 49.9318 38.7583" stroke="#2E3237" stroke-width="2"/>
    <path d="M39.7235 46C39.9004 46.7272 40 47.4636 40 48.2C40 52.6 37.0495 57 32 57C26.9505 57 24 52.6 24 48.2C24 41.6 32 35 32 35C32 35 34 36.65 36 39.125M39.1163 44.1667C38.8562 43.54 38.5498 42.9267 38.2129 42.3333" stroke="#2E3237" stroke-width="2"/>
    <path d="M52 32V40L47 36.8L42 40L42 32" stroke="#2E3237" stroke-width="2" stroke-miterlimit="16"/>
    <circle cx="47" cy="21" r="12" stroke="#2E3237" stroke-width="2"/>
    <path d="M47 15.2596L48.4544 18.2065L48.6871 18.6779L49.2073 18.7535L52.4595 19.2261L50.1062 21.52L49.7297 21.8869L49.8186 22.4051L50.3742 25.6441L47.4653 24.1149L47 23.8702L46.5347 24.1149L43.6258 25.6441L44.1814 22.4051L44.2703 21.8869L43.8938 21.52L41.5405 19.2261L44.7927 18.7535L45.3129 18.6779L45.5456 18.2065L47 15.2596Z" stroke="#2E3237" stroke-width="2"/>
</svg>
