<svg width="64" height="64" viewBox="0 0 64 64" fill="none" xmlns="http://www.w3.org/2000/svg">
    <rect x="30" y="35" width="4" height="5" stroke="#2E3237" stroke-width="2"/>
    <path d="M39 41C39 40.4477 38.5523 40 38 40L26 40C25.4477 40 25 40.4477 25 41L25 44L39 44L39 41Z" stroke="#2E3237" stroke-width="2"/>
    <rect x="13" y="44" width="38" height="12" stroke="#2E3237" stroke-width="2"/>
    <rect x="-1" y="1" width="8" height="18" transform="matrix(-1 0 0 1 58 40)" stroke="#2E3237" stroke-width="2"/>
    <rect x="-1" y="1" width="8" height="18" transform="matrix(-1 0 0 1 12 40)" stroke="#2E3237" stroke-width="2"/>
    <circle cx="32" cy="20" r="15" stroke="#2E3237" stroke-width="2"/>
    <line x1="20" y1="48" x2="40" y2="48" stroke="#2E3237" stroke-width="2"/>
    <line x1="20" y1="52" x2="44" y2="52" stroke="#2E3237" stroke-width="2"/>
    <line x1="42" y1="48" x2="44" y2="48" stroke="#2E3237" stroke-width="2"/>
    <path d="M22 20H16" stroke="#2E3237" stroke-width="2"/>
    <path d="M48 20H42" stroke="#2E3237" stroke-width="2"/>
    <path d="M32 10L32 4" stroke="#2E3237" stroke-width="2"/>
    <path d="M32 36L32 30" stroke="#2E3237" stroke-width="2"/>
    <circle cx="32" cy="20" r="2" stroke="#2E3237" stroke-width="2"/>
    <path d="M33.0005 18.9998L38.3639 13.636" stroke="#2E3237" stroke-width="2"/>
</svg>
