<svg width="64" height="64" viewBox="0 0 64 64" fill="none" xmlns="http://www.w3.org/2000/svg">
    <path d="M5 59H59" stroke="#2E3237" stroke-width="2" stroke-miterlimit="16" stroke-linecap="square"/>
    <rect x="9" y="41" width="6" height="14" rx="3" stroke="#2E3237" stroke-width="2"/>
    <rect x="19" y="25" width="6" height="30" rx="3" stroke="#2E3237" stroke-width="2"/>
    <rect x="29" y="33" width="6" height="22" rx="3" stroke="#2E3237" stroke-width="2"/>
    <rect x="39" y="17" width="6" height="38" rx="3" stroke="#2E3237" stroke-width="2"/>
    <path d="M55 31V52C55 53.6569 53.6569 55 52 55V55C50.3431 55 49 53.6569 49 52V12C49 10.3431 50.3431 9 52 9V9C53.6569 9 55 10.3431 55 12V19" stroke="#2E3237" stroke-width="2" stroke-miterlimit="16" stroke-linecap="square"/>
    <line x1="55" y1="28" x2="55" y2="26" stroke="#2E3237" stroke-width="2"/>
</svg>
