<svg width="64" height="64" viewBox="0 0 64 64" fill="none" xmlns="http://www.w3.org/2000/svg">
    <rect x="22.8683" y="8.51903" width="8" height="23" transform="rotate(45 22.8683 8.51903)" stroke="#2E3237" stroke-width="2"/>
    <path d="M51.8598 37.5092L38.4248 24.0742L37.0106 25.4884" stroke="#2E3237" stroke-width="2" stroke-miterlimit="16" stroke-linecap="square"/>
    <path d="M44.0815 12.7617L40.546 9.22614L34.8891 14.883L51.1526 31.1464L56.8094 25.4896L52.5668 21.247" stroke="#2E3237" stroke-width="2" stroke-miterlimit="16" stroke-linecap="square"/>
    <path d="M14.383 33.9749L12.3966 30.3044L28.5251 14.1759L31.3536 17.0043" stroke="#2E3237" stroke-width="2" stroke-miterlimit="16" stroke-linecap="square"/>
    <rect x="15.7974" y="32.5587" width="6" height="10" rx="3" transform="rotate(45 15.7974 32.5587)" stroke="#2E3237" stroke-width="2"/>
    <path d="M29.2322 19.1256L24.7543 23.6036L22.1616 26.1963C20.99 27.3679 20.99 29.2674 22.1616 30.4389V30.4389C23.3331 31.6105 25.2326 31.6105 26.4042 30.4389L27.2292 29.614L29.2322 27.6109" stroke="#2E3237" stroke-width="2"/>
    <rect x="20.04" y="36.8048" width="6" height="10" rx="3" transform="rotate(45 20.04 36.8048)" stroke="#2E3237" stroke-width="2"/>
    <rect x="24.2827" y="41.047" width="6" height="10" rx="3" transform="rotate(45 24.2827 41.047)" stroke="#2E3237" stroke-width="2"/>
    <rect x="28.5251" y="45.2886" width="6" height="10" rx="3" transform="rotate(45 28.5251 45.2886)" stroke="#2E3237" stroke-width="2"/>
    <path d="M39.1318 50.2384L39.8389 50.9455C41.0105 52.117 41.0105 54.0165 39.8389 55.1881V55.1881C38.6673 56.3597 36.7678 56.3597 35.5963 55.1881L31.3536 50.9454" stroke="#2E3237" stroke-width="2"/>
    <path d="M43.3744 45.9957L44.0815 46.7028C45.253 47.8744 45.253 49.7739 44.0815 50.9454V50.9454C42.9099 52.117 41.0104 52.117 39.8388 50.9454L39.1317 50.2383" stroke="#2E3237" stroke-width="2"/>
    <path d="M47.617 41.7531L48.3241 42.4602C49.4957 43.6317 49.4957 45.5312 48.3241 46.7028V46.7028C47.1526 47.8744 45.2531 47.8744 44.0815 46.7028L43.3744 45.9957" stroke="#2E3237" stroke-width="2"/>
    <path d="M51.8596 37.5104L52.5668 38.2175C53.7383 39.3891 53.7383 41.2886 52.5668 42.4602V42.4602C51.3952 43.6317 49.4957 43.6317 48.3241 42.4602L47.617 41.7531" stroke="#2E3237" stroke-width="2"/>
    <path d="M28.5253 18.4184L27.8182 19.1255L29.2324 20.5397L29.9395 19.8326L28.5253 18.4184ZM34.8891 14.883L35.5962 14.1759L34.9972 13.5769L34.3079 14.0693L34.8891 14.883ZM51.1526 31.1465L51.8597 31.8536L52.5668 31.1465L51.8597 30.4393L51.1526 31.1465ZM47.6183 33.2665L46.9112 33.9736L48.3254 35.3878L49.0325 34.6807L47.6183 33.2665ZM29.9395 19.8326C30.0592 19.7129 30.4408 19.4031 31.022 18.9586C31.5777 18.5337 32.2565 18.0301 32.9173 17.5455C33.5773 17.0615 34.2158 16.5991 34.6895 16.2576C34.9263 16.0869 35.1217 15.9466 35.2578 15.8489C35.3259 15.8001 35.3791 15.762 35.4153 15.7361C35.4334 15.7231 35.4472 15.7133 35.4565 15.7066C35.4611 15.7033 35.4646 15.7008 35.4669 15.6992C35.4681 15.6983 35.469 15.6977 35.4695 15.6973C35.4698 15.6971 35.47 15.697 35.4702 15.6969C35.4702 15.6968 35.4703 15.6968 35.4703 15.6968C35.4703 15.6967 35.4703 15.6967 34.8891 14.883C34.3079 14.0693 34.3079 14.0693 34.3078 14.0693C34.3078 14.0693 34.3077 14.0694 34.3076 14.0694C34.3074 14.0696 34.3072 14.0697 34.3069 14.07C34.3063 14.0704 34.3053 14.0711 34.3041 14.0719C34.3017 14.0737 34.2981 14.0763 34.2933 14.0797C34.2838 14.0865 34.2697 14.0965 34.2514 14.1097C34.2147 14.1359 34.1609 14.1744 34.0923 14.2237C33.955 14.3221 33.7582 14.4635 33.5199 14.6353C33.0435 14.9787 32.4003 15.4444 31.7346 15.9327C31.0696 16.4203 30.3784 16.9331 29.8071 17.3699C29.2615 17.7872 28.7592 18.1845 28.5253 18.4184L29.9395 19.8326ZM34.182 15.5901L50.4455 31.8536L51.8597 30.4393L35.5962 14.1759L34.182 15.5901ZM50.4455 30.4393L47.6183 33.2665L49.0325 34.6807L51.8597 31.8536L50.4455 30.4393Z" fill="#2E3237"/>
    <path d="M36.3035 26.1956C35.0064 27.4928 33.4448 27.6442 32.2656 27.2966C31.2911 27.0094 29.9508 26.8915 29.2325 27.6098V27.6098" stroke="#2E3237" stroke-width="2" stroke-miterlimit="16" stroke-linecap="square" stroke-linejoin="round"/>
    <path d="M48.324 42.4612L45.4956 39.6328" stroke="#2E3237" stroke-width="2" stroke-miterlimit="16" stroke-linecap="round" stroke-linejoin="round"/>
    <path d="M44.0815 46.7028L41.2531 43.8744" stroke="#2E3237" stroke-width="2" stroke-miterlimit="16" stroke-linecap="round" stroke-linejoin="round"/>
    <path d="M39.8388 50.9454L37.0104 48.117" stroke="#2E3237" stroke-width="2" stroke-miterlimit="16" stroke-linecap="round" stroke-linejoin="round"/>
    <line x1="49.0312" y1="17.7114" x2="50.4454" y2="19.1256" stroke="#2E3237" stroke-width="2"/>
</svg>
