<svg width="21" height="21" viewBox="0 0 21 21" fill="none" xmlns="http://www.w3.org/2000/svg">
<path d="M10.5 3.5C8.64348 3.5 6.86301 4.2375 5.55025 5.55025C4.2375 6.86301 3.5 8.64348 3.5 10.5H6.125C6.58913 10.5 7.03425 10.6844 7.36244 11.0126C7.69063 11.3408 7.875 11.7859 7.875 12.25V16.625C7.875 17.0891 7.69063 17.5342 7.36244 17.8624C7.03425 18.1906 6.58913 18.375 6.125 18.375H3.5C3.03587 18.375 2.59075 18.1906 2.26256 17.8624C1.93437 17.5342 1.75 17.0891 1.75 16.625V10.5C1.75 5.66738 5.66738 1.75 10.5 1.75C15.3326 1.75 19.25 5.66738 19.25 10.5V16.625C19.25 17.0891 19.0656 17.5342 18.7374 17.8624C18.4092 18.1906 17.9641 18.375 17.5 18.375H14.875C14.4109 18.375 13.9658 18.1906 13.6376 17.8624C13.3094 17.5342 13.125 17.0891 13.125 16.625V12.25C13.125 11.7859 13.3094 11.3408 13.6376 11.0126C13.9658 10.6844 14.4109 10.5 14.875 10.5H17.5C17.5 8.64348 16.7625 6.86301 15.4497 5.55025C14.137 4.2375 12.3565 3.5 10.5 3.5V3.5ZM3.5 12.25V16.625H6.125V12.25H3.5ZM14.875 12.25V16.625H17.5V12.25H14.875Z" fill="white"/>
</svg>
