<svg width="43" height="42" viewBox="0 0 43 42" fill="none" xmlns="http://www.w3.org/2000/svg">
<path d="M4.16675 35V33.25C4.16675 30.0011 5.45737 26.8853 7.75469 24.5879C10.052 22.2906 13.1678 21 16.4167 21" stroke="#E94E1B" stroke-width="2" stroke-linecap="round" stroke-linejoin="round"/>
<path d="M28.3238 21.5478C28.5891 21.2565 28.9123 21.0239 29.2727 20.8647C29.6331 20.7055 30.0228 20.6233 30.4168 20.6233C30.8108 20.6233 31.2004 20.7055 31.5608 20.8647C31.9212 21.0239 32.2444 21.2565 32.5098 21.5478C33.0785 22.1725 33.8923 22.5103 34.7358 22.47C35.1295 22.4516 35.5228 22.5155 35.8904 22.6578C36.258 22.8001 36.5918 23.0175 36.8705 23.2962C37.1493 23.575 37.3667 23.9088 37.509 24.2764C37.6513 24.644 37.7152 25.0373 37.6968 25.431C37.6565 26.2728 37.9943 27.0883 38.6173 27.657C39.851 28.7805 39.851 30.7195 38.6173 31.843C37.9943 32.4118 37.6565 33.2255 37.6968 34.069C37.7152 34.4628 37.6513 34.856 37.509 35.2236C37.3667 35.5912 37.1493 35.9251 36.8705 36.2038C36.5918 36.4825 36.258 36.7 35.8904 36.8423C35.5228 36.9845 35.1295 37.0485 34.7358 37.03C34.3199 37.0104 33.9048 37.0826 33.52 37.2418C33.1352 37.4009 32.7903 37.6429 32.5098 37.9505C32.2444 38.2417 31.9212 38.4744 31.5608 38.6336C31.2004 38.7928 30.8108 38.875 30.4168 38.875C30.0228 38.875 29.6331 38.7928 29.2727 38.6336C28.9123 38.4744 28.5891 38.2417 28.3238 37.9505C28.0432 37.6429 27.6983 37.4009 27.3135 37.2418C26.9288 37.0826 26.5137 37.0104 26.0978 37.03C25.704 37.0485 25.3108 36.9845 24.9432 36.8423C24.5756 36.7 24.2417 36.4825 23.963 36.2038C23.6843 35.9251 23.4668 35.5912 23.3245 35.2236C23.1823 34.856 23.1183 34.4628 23.1368 34.069C23.1562 33.653 23.0836 33.2378 22.9242 32.853C22.7648 32.4683 22.5225 32.1234 22.2145 31.843C21.9233 31.5777 21.6906 31.2545 21.5314 30.8941C21.3723 30.5337 21.29 30.144 21.29 29.75C21.29 29.356 21.3723 28.9664 21.5314 28.606C21.6906 28.2456 21.9233 27.9224 22.2145 27.657C22.8393 27.0883 23.177 26.2745 23.1368 25.431C23.1183 25.0373 23.1823 24.644 23.3245 24.2764C23.4668 23.9088 23.6843 23.575 23.963 23.2962C24.2417 23.0175 24.5756 22.8001 24.9432 22.6578C25.3108 22.5155 25.704 22.4516 26.0978 22.47C26.9395 22.5103 27.755 22.1725 28.3238 21.5478Z" stroke="#E94E1B" stroke-width="2"/>
<path d="M27.5537 29.75L29.4612 31.6575L33.2797 27.8425M16.4167 21C18.2733 21 20.0537 20.2625 21.3665 18.9497C22.6793 17.637 23.4167 15.8565 23.4167 14C23.4167 12.1435 22.6793 10.363 21.3665 9.05025C20.0537 7.7375 18.2733 7 16.4167 7C14.5602 7 12.7798 7.7375 11.467 9.05025C10.1542 10.363 9.41675 12.1435 9.41675 14C9.41675 15.8565 10.1542 17.637 11.467 18.9497C12.7798 20.2625 14.5602 21 16.4167 21Z" stroke="#E94E1B" stroke-width="2" stroke-linecap="round" stroke-linejoin="round"/>
</svg>
