<svg width="36" height="36" viewBox="0 0 36 36" fill="none" xmlns="http://www.w3.org/2000/svg">
<path d="M17.6524 14.5135C19.3854 14.5135 20.7905 15.9184 20.7905 17.6516C20.7905 19.3846 19.3854 20.7897 17.6524 20.7897C15.9192 20.7897 14.5143 19.3846 14.5143 17.6516C14.5143 15.9184 15.9192 14.5135 17.6524 14.5135V14.5135Z" fill="#2E3237"/>
<path fill-rule="evenodd" clip-rule="evenodd" d="M16.8079 9.93387C16.9719 9.93362 17.1483 9.93369 17.3387 9.93378L17.6524 9.93387C20.166 9.93387 20.464 9.94289 21.4566 9.988C22.3745 10.03 22.8726 10.1834 23.2045 10.3122C23.6438 10.4828 23.957 10.6868 24.2864 11.0163C24.6159 11.3458 24.8198 11.6596 24.9909 12.099C25.1197 12.4304 25.2733 12.9286 25.3151 13.8465C25.3602 14.8389 25.37 15.137 25.37 17.6495C25.37 20.1619 25.3602 20.46 25.3151 21.4524C25.2731 22.3703 25.1197 22.8685 24.9909 23.1999C24.8202 23.6393 24.6159 23.9521 24.2864 24.2814C23.9569 24.6109 23.644 24.8149 23.2045 24.9855C22.873 25.115 22.3745 25.268 21.4566 25.3099C20.4642 25.355 20.166 25.3648 17.6524 25.3648C15.1386 25.3648 14.8407 25.355 13.8483 25.3099C12.9304 25.2676 12.4322 25.1142 12.1002 24.9853C11.6608 24.8147 11.347 24.6107 11.0175 24.2812C10.688 23.9517 10.4841 23.6387 10.313 23.1992C10.1842 22.8677 10.0306 22.3695 9.98882 21.4516C9.94371 20.4592 9.93469 20.1611 9.93469 17.6471C9.93469 15.1331 9.94371 14.8365 9.98882 13.8441C10.0308 12.9262 10.1842 12.4281 10.313 12.0962C10.4837 11.6569 10.688 11.3431 11.0175 11.0136C11.347 10.6841 11.6608 10.4801 12.1002 10.3091C12.432 10.1796 12.9304 10.0266 13.8483 9.98447C14.7167 9.94525 15.0533 9.93348 16.8079 9.93152V9.93387ZM22.6777 11.4971C22.054 11.4971 21.548 12.0025 21.548 12.6264C21.548 13.2501 22.054 13.7561 22.6777 13.7561C23.3014 13.7561 23.8074 13.2501 23.8074 12.6264C23.8074 12.0027 23.3014 11.4967 22.6777 11.4967V11.4971ZM12.8178 17.6516C12.8178 14.9817 14.9825 12.817 17.6525 12.817H17.6523C20.3222 12.817 22.4863 14.9817 22.4863 17.6516C22.4863 20.3215 20.3224 22.4852 17.6525 22.4852C14.9825 22.4852 12.8178 20.3215 12.8178 17.6516Z" fill="#2E3237"/>
</svg>
