<svg width="21" height="21" viewBox="0 0 21 21" fill="none" xmlns="http://www.w3.org/2000/svg">
<path d="M7.875 2.625H13.125L14.875 4.375H18.375C18.6071 4.375 18.8296 4.46719 18.9937 4.63128C19.1578 4.79538 19.25 5.01794 19.25 5.25V17.5C19.25 17.7321 19.1578 17.9546 18.9937 18.1187C18.8296 18.2828 18.6071 18.375 18.375 18.375H2.625C2.39294 18.375 2.17038 18.2828 2.00628 18.1187C1.84219 17.9546 1.75 17.7321 1.75 17.5V5.25C1.75 5.01794 1.84219 4.79538 2.00628 4.63128C2.17038 4.46719 2.39294 4.375 2.625 4.375H6.125L7.875 2.625ZM10.5 16.625C11.8924 16.625 13.2277 16.0719 14.2123 15.0873C15.1969 14.1027 15.75 12.7674 15.75 11.375C15.75 9.98261 15.1969 8.64726 14.2123 7.66269C13.2277 6.67812 11.8924 6.125 10.5 6.125C9.10761 6.125 7.77226 6.67812 6.78769 7.66269C5.80312 8.64726 5.25 9.98261 5.25 11.375C5.25 12.7674 5.80312 14.1027 6.78769 15.0873C7.77226 16.0719 9.10761 16.625 10.5 16.625V16.625ZM10.5 14.875C9.57174 14.875 8.6815 14.5063 8.02513 13.8499C7.36875 13.1935 7 12.3033 7 11.375C7 10.4467 7.36875 9.5565 8.02513 8.90013C8.6815 8.24375 9.57174 7.875 10.5 7.875C11.4283 7.875 12.3185 8.24375 12.9749 8.90013C13.6313 9.5565 14 10.4467 14 11.375C14 12.3033 13.6313 13.1935 12.9749 13.8499C12.3185 14.5063 11.4283 14.875 10.5 14.875Z" fill="#00A3DA"/>
</svg>
