<svg width="64" height="64" viewBox="0 0 64 64" fill="none" xmlns="http://www.w3.org/2000/svg">
    <path d="M33 43V18H43.8146C45.4388 18 46.9018 18.9822 47.5168 20.4855L50.5116 27.8062C50.8292 28.5824 51.3826 29.2391 52.0938 29.6836L57.12 32.825C58.2895 33.556 59 34.8378 59 36.217V42C59 43.1046 58.1046 44 57 44H55" stroke="#2E3237" stroke-width="2"/>
    <rect x="5" y="17" width="28" height="20" rx="10" stroke="#2E3237" stroke-width="2"/>
    <path d="M23 28.4C23 30.8489 21.4219 33 19 33C16.5781 33 15 30.8489 15 28.4C15 26.6553 16.0632 24.784 17.2833 23.2467C17.876 22.4998 18.4712 21.8746 18.9187 21.4361C18.9464 21.4089 18.9735 21.3825 19 21.3569C19.0265 21.3825 19.0536 21.4089 19.0813 21.4361C19.5288 21.8746 20.124 22.4998 20.7167 23.2467C21.9368 24.784 23 26.6553 23 28.4Z" stroke="#2E3237" stroke-width="2"/>
    <path d="M21 30.8C21 31.9998 20.2006 33 19 33C17.7994 33 17 31.9998 17 30.8C17 29.972 17.5457 29.0072 18.2682 28.1402C18.5227 27.8348 18.7787 27.5657 19 27.3482C19.2213 27.5657 19.4773 27.8348 19.7318 28.1402C20.4543 29.0072 21 29.972 21 30.8ZM18.3744 26.7801C18.3742 26.78 18.3743 26.78 18.3745 26.7802L18.3744 26.7801Z" stroke="#2E3237" stroke-width="2"/>
    <path d="M4 44H9" stroke="#2E3237" stroke-width="2"/>
    <path d="M18.5 44H45" stroke="#2E3237" stroke-width="2"/>
    <path d="M4 37H33" stroke="#2E3237" stroke-width="2"/>
    <path d="M5 47L5 38" stroke="#2E3237" stroke-width="2"/>
    <circle cx="50" cy="46" r="5" stroke="#2E3237" stroke-width="2"/>
    <circle cx="14" cy="46" r="5" stroke="#2E3237" stroke-width="2"/>
    <path d="M48 22H41C39.8954 22 39 22.8954 39 24V26C39 28.2091 40.7909 30 43 30H52.5" stroke="#2E3237" stroke-width="2"/>
    <rect x="32" y="34" width="4" height="2" fill="#2E3237"/>
    <rect x="38" y="34" width="2" height="2" fill="#2E3237"/>
    <rect x="13" y="13" width="6" height="4" stroke="#2E3237" stroke-width="2"/>
    <line x1="4" y1="53" x2="60" y2="53" stroke="#2E3237" stroke-width="2"/>
    <circle cx="53" cy="11" r="2" stroke="#2E3237" stroke-width="2"/>
    <line x1="48" y1="11" x2="46" y2="11" stroke="#2E3237" stroke-width="2"/>
    <line x1="60" y1="11" x2="58" y2="11" stroke="#2E3237" stroke-width="2"/>
    <circle cx="53" cy="11" r="2" transform="rotate(45 53 11)" stroke="#2E3237" stroke-width="2"/>
    <line x1="49.4645" y1="7.46447" x2="48.0503" y2="6.05026" stroke="#2E3237" stroke-width="2"/>
    <line x1="57.9498" y1="15.9497" x2="56.5355" y2="14.5355" stroke="#2E3237" stroke-width="2"/>
    <line x1="49.4645" y1="14.5355" x2="48.0502" y2="15.9498" stroke="#2E3237" stroke-width="2"/>
    <line x1="57.9498" y1="6.05025" x2="56.5355" y2="7.46447" stroke="#2E3237" stroke-width="2"/>
    <line x1="53" y1="16" x2="53" y2="18" stroke="#2E3237" stroke-width="2"/>
    <line x1="53" y1="4" x2="53" y2="6" stroke="#2E3237" stroke-width="2"/>
</svg>
