<svg width="40" height="40" viewBox="0 0 40 40" fill="none" xmlns="http://www.w3.org/2000/svg">
<path d="M22.7294 31.9247L23.4587 32.2249L23.9206 31.5856L26.2118 28.4144C26.3998 28.1541 26.7014 28 27.0224 28H36C37.6569 28 39 29.3431 39 31V36C39 37.6569 37.6569 39 36 39H32.94H32.9397C28.745 39.0013 24.5911 38.176 20.7154 36.5713C16.8397 34.9667 13.3182 32.614 10.3521 29.6479C7.38595 26.6818 5.03334 23.1603 3.42867 19.2846C1.824 15.4089 0.998727 11.255 1 7.0603V7.06V4C1 2.34315 2.34315 1 4 1H9C10.6569 1 12 2.34315 12 4V12.9776C12 13.2986 11.8459 13.6002 11.5856 13.7882L8.41436 16.0794L7.77511 16.5413L8.07526 17.2706C9.42903 20.56 11.421 23.5485 13.9363 26.0637C16.4515 28.579 19.4401 30.571 22.7294 31.9247Z" stroke="#2E3237" stroke-width="2"/>
</svg>
