<svg width="28" height="28" viewBox="0 0 28 28" fill="none" xmlns="http://www.w3.org/2000/svg">
<path d="M23.8995 3.5H19.2422L19.8255 9.33333C19.8255 9.33333 20.9922 10.5 22.7422 10.5C23.6608 10.5012 24.5483 10.1668 25.2377 9.55967C25.3106 9.49156 25.3649 9.40601 25.3955 9.31109C25.4261 9.21617 25.432 9.11501 25.4127 9.01717L24.589 4.08333C24.5615 3.92034 24.4771 3.77236 24.3509 3.66559C24.2247 3.55883 24.0648 3.50017 23.8995 3.5Z" stroke="#E94E1B" stroke-width="2"/>
<path d="M19.2422 3.5L19.8255 9.33333C19.8255 9.33333 18.6589 10.5 16.9089 10.5C15.1589 10.5 13.9922 9.33333 13.9922 9.33333V3.5H19.2422Z" stroke="#E94E1B" stroke-width="2"/>
<path d="M13.9915 3.5V9.33333C13.9915 9.33333 12.8249 10.5 11.0749 10.5C9.32487 10.5 8.1582 9.33333 8.1582 9.33333L8.74154 3.5H13.9915Z" stroke="#E94E1B" stroke-width="2"/>
<path d="M8.74222 3.5H4.08606C3.92038 3.49994 3.76006 3.55864 3.63359 3.66566C3.50713 3.77269 3.42272 3.9211 3.39539 4.0845L2.57289 9.01833C2.53906 9.219 2.59622 9.4255 2.74789 9.56083C3.13056 9.89917 3.98572 10.5012 5.24222 10.5012C6.99222 10.5012 8.15889 9.3345 8.15889 9.3345L8.74222 3.5Z" stroke="#E94E1B" stroke-width="2"/>
<path d="M3.5 10.5V22.1667C3.5 22.7855 3.74583 23.379 4.18342 23.8166C4.621 24.2542 5.21449 24.5 5.83333 24.5H22.1667C22.7855 24.5 23.379 24.2542 23.8166 23.8166C24.2542 23.379 24.5 22.7855 24.5 22.1667V10.5" stroke="#E94E1B" stroke-width="2"/>
<path d="M17.3047 24.5001V17.5001C17.3047 16.8812 17.0589 16.2878 16.6213 15.8502C16.1837 15.4126 15.5902 15.1667 14.9714 15.1667H12.638C12.0192 15.1667 11.4257 15.4126 10.9881 15.8502C10.5505 16.2878 10.3047 16.8812 10.3047 17.5001V24.5001" stroke="#E94E1B" stroke-width="2" stroke-miterlimit="16"/>
</svg>
