<svg width="28" height="28" viewBox="0 0 28 28" fill="none" xmlns="http://www.w3.org/2000/svg">
<path d="M12.8333 18.6667V12.8333M12.8333 12.8333H3.5M12.8333 12.8333V10.5M24.5 9.33333H17.5V11.6667M17.5 21V24.5M12.8333 22.1667V24.5M12.8333 3.5V7M24.5 17.5H17.5V15.1667" stroke="#E94E1B" stroke-width="2" stroke-linecap="round" stroke-linejoin="round"/>
<path d="M24.5 4.2V23.8C24.5 23.9857 24.4263 24.1637 24.295 24.295C24.1637 24.4263 23.9857 24.5 23.8 24.5H4.2C4.01435 24.5 3.8363 24.4263 3.70503 24.295C3.57375 24.1637 3.5 23.9857 3.5 23.8V4.2C3.5 4.01435 3.57375 3.8363 3.70503 3.70503C3.8363 3.57375 4.01435 3.5 4.2 3.5H23.8C23.9857 3.5 24.1637 3.57375 24.295 3.70503C24.4263 3.8363 24.5 4.01435 24.5 4.2Z" stroke="#E94E1B" stroke-width="2" stroke-linecap="round" stroke-linejoin="round"/>
</svg>
