<svg width="28" height="28" viewBox="0 0 28 28" fill="none" xmlns="http://www.w3.org/2000/svg">
<path d="M12.8333 22.1667V24.5M12.8333 14V18.6667M18.6667 14V18.6667H16.3333M24.5 14H9.33333M5.83333 14H3.5M3.5 5.83333L14 3.5L24.5 5.83333" stroke="#E94E1B" stroke-width="2" stroke-linecap="round" stroke-linejoin="round"/>
<path d="M24.5 10.0333V23.7999C24.5 23.9856 24.4263 24.1636 24.295 24.2949C24.1637 24.4262 23.9857 24.4999 23.8 24.4999H4.2C4.01435 24.4999 3.8363 24.4262 3.70503 24.2949C3.57375 24.1636 3.5 23.9856 3.5 23.7999V10.0333C3.5 9.8476 3.57375 9.66955 3.70503 9.53828C3.8363 9.407 4.01435 9.33325 4.2 9.33325H23.8C23.9857 9.33325 24.1637 9.407 24.295 9.53828C24.4263 9.66955 24.5 9.8476 24.5 10.0333Z" stroke="#E94E1B" stroke-width="2" stroke-linecap="round" stroke-linejoin="round"/>
</svg>
