<svg width="64" height="64" viewBox="0 0 64 64" fill="none" xmlns="http://www.w3.org/2000/svg">
    <path d="M19 25C13.4772 25 9 20.5228 9 15C9 9.47715 13.4772 5 19 5C24.5228 5 29 9.47715 29 15C29 20.5228 24.5228 25 19 25Z" stroke="#2E3237" stroke-width="2"/>
    <path d="M19 20C16.2386 20 14 17.7614 14 15C14 12.2386 16.2386 10 19 10C21.7614 10 24 12.2386 24 15C24 17.7614 21.7614 20 19 20Z" stroke="#2E3237" stroke-width="2"/>
    <rect x="21.0005" y="24.9961" width="4" height="4" transform="rotate(90 21.0005 24.9961)" stroke="#2E3237" stroke-width="2"/>
    <path d="M16.0005 36.9999L22.0004 36.9999L22.0004 55.9999C22.0004 57.6568 20.6573 58.9999 19.0005 58.9999C17.3436 58.9999 16.0005 57.6568 16.0005 55.9999L16.0005 36.9999Z" stroke="#2E3237" stroke-width="2"/>
    <rect x="11" y="28.9961" width="16" height="8" rx="3" stroke="#2E3237" stroke-width="2"/>
    <path d="M13.001 47L25.001 45" stroke="#2E3237" stroke-width="2" stroke-miterlimit="16"/>
    <path d="M13.0008 50.9995L25.0008 48.9995" stroke="#2E3237" stroke-width="2" stroke-miterlimit="16"/>
    <path d="M13 54.9999L25 52.9999" stroke="#2E3237" stroke-width="2" stroke-miterlimit="16"/>
    <circle cx="47" cy="21" r="12" stroke="#2E3237" stroke-width="2"/>
    <path d="M40.5 21L44.8333 25L53.5 17" stroke="#2E3237" stroke-width="2" stroke-miterlimit="16"/>
    <path d="M35.9186 54.725L34.8737 56.3231C34.2928 57.2115 33.119 57.4914 32.1998 56.9606L28.843 55.0226C27.9237 54.4919 27.5792 53.3354 28.0581 52.3882L34.0389 40.5586C34.5569 39.534 35.8294 39.1549 36.8237 39.7289L41.4541 42.4023C42.4484 42.9764 42.7563 44.2679 42.128 45.2289L39.0491 49.9375M36.8578 53.2887L37.6808 52.0301L37.9309 51.6476" stroke="#2E3237" stroke-width="2"/>
    <path d="M37.0981 40.5981L38.5981 38" stroke="#2E3237" stroke-width="2" stroke-miterlimit="16"/>
    <path d="M27.5981 57.0551L29.0981 54.457" stroke="#2E3237" stroke-width="2" stroke-miterlimit="16"/>
    <path d="M40.562 42.5981L42.062 40" stroke="#2E3237" stroke-width="2" stroke-miterlimit="16"/>
    <path d="M31.062 59.0551L32.562 56.457" stroke="#2E3237" stroke-width="2" stroke-miterlimit="16"/>
    <path d="M33.3662 43.0625L40.2944 47.0625" stroke="#2E3237" stroke-width="2" stroke-miterlimit="16"/>
</svg>
