<svg width="451" height="355" viewBox="0 0 451 355" fill="none" xmlns="http://www.w3.org/2000/svg">
<g opacity="0.25">
<path d="M378.556 118.411L302.68 236.454H352.949L428.825 118.411L353.048 0.515747H302.779L378.556 118.411Z" fill="#BDC7D2"/>
<path d="M176.137 118.485H226.401L150.575 0.515747H100.306L176.137 118.485Z" fill="#BDC7D2"/>
<path d="M277.699 118.485L126.046 354.423H176.315L327.967 118.485H277.699Z" fill="#BDC7D2"/>
<path d="M428.731 354.348L428.682 354.423H478.951L479 354.348L403.218 236.454H352.954L428.731 354.348Z" fill="#BDC7D2"/>
<path d="M328.012 354.348L327.962 354.423H378.231L378.275 354.348L302.498 236.454H252.229L328.012 354.348Z" fill="#BDC7D2"/>
<path d="M75.7771 354.348L75.7328 354.423H125.997L126.046 354.348L50.2688 236.454H0L75.7771 354.348Z" fill="#BDC7D2"/>
<path d="M100.459 236.38L176.236 118.485H125.967L50.1902 236.38L50.2345 236.454H100.503L100.459 236.38Z" fill="#BDC7D2"/>
</g>
</svg>
