<svg width="506" height="563" viewBox="0 0 506 563" fill="none" xmlns="http://www.w3.org/2000/svg">
<g opacity="0.25">
<path d="M602.212 187.549L481.508 375.333H561.476L682.18 187.549L561.633 0H481.665L602.212 187.549Z" fill="#BDC7D2"/>
<path d="M280.202 187.667H360.162L239.537 0H159.569L280.202 187.667Z" fill="#BDC7D2"/>
<path d="M441.767 187.667L200.516 563H280.484L521.735 187.667H441.767Z" fill="#BDC7D2"/>
<path d="M521.805 562.882L521.727 563H601.695L601.766 562.882L481.219 375.333H401.25L521.805 562.882Z" fill="#BDC7D2"/>
<path d="M120.547 562.882L120.477 563H200.437L200.516 562.882L79.9683 375.333H0L120.547 562.882Z" fill="#BDC7D2"/>
<path d="M159.811 375.215L280.359 187.667H200.39L79.843 375.215L79.9135 375.333H159.882L159.811 375.215Z" fill="#BDC7D2"/>
</g>
</svg>
