<svg width="64" height="64" viewBox="0 0 64 64" fill="none" xmlns="http://www.w3.org/2000/svg">
<path d="M53.4558 48.3929C48.5217 54.8411 40.7465 59 32 59C17.0883 59 5 46.9117 5 32C5 17.0883 17.0883 5 32 5C46.9117 5 59 17.0883 59 32C59 33.3591 58.8996 34.6948 58.7057 36M55.3879 45.5C55.7508 44.8727 56.0892 44.2294 56.4017 43.5714" stroke="#2E3237" stroke-width="2"/>
<path d="M28 44L28 33M28 33H33C36.3137 33 39 30.3137 39 27C39 23.6863 36.3137 21 33 21H28V33ZM28 33H25M25 39H33" stroke="#2E3237" stroke-width="2" stroke-miterlimit="16"/>
</svg>
