<svg width="64" height="64" viewBox="0 0 64 64" fill="none" xmlns="http://www.w3.org/2000/svg">
    <path d="M27.5 42L26 45.5C27.2495 47.3742 29.353 48.5 31.6056 48.5H32.3944C34.647 48.5 36.7505 47.3742 38 45.5L36.5 42" stroke="#2E3237" stroke-width="2" stroke-miterlimit="16"/>
    <rect x="22" y="15" width="20" height="28" rx="10" stroke="#2E3237" stroke-width="2"/>
    <path d="M22 28L33.8543 24.2811C34.4219 24.103 35.0392 24.1868 35.5388 24.5098L37.8868 26.0277C38.4968 26.4221 39.2728 26.4546 39.9137 26.1128L42.0002 25" stroke="#2E3237" stroke-width="2" stroke-miterlimit="16"/>
    <path d="M20 30C20 28.8954 20.8954 28 22 28L22 32C20.8954 32 20 31.1046 20 30Z" stroke="#2E3237" stroke-width="2"/>
    <path d="M44 30C44 31.1046 43.1046 32 42 32L42 28C43.1046 28 44 28.8954 44 30Z" stroke="#2E3237" stroke-width="2"/>
    <path d="M25.8182 46C21.097 46 16.9848 48.8525 15.2141 53M38.1818 46C43.0904 46 47.3408 49.0835 48.9856 53.5" stroke="#2E3237" stroke-width="2" stroke-miterlimit="16"/>
    <path d="M53.4558 48.3929C48.5217 54.8411 40.7465 59 32 59C17.0883 59 5 46.9117 5 32C5 17.0883 17.0883 5 32 5C46.9117 5 59 17.0883 59 32C59 33.3591 58.8996 34.6948 58.7057 36M55.3879 45.5C55.7508 44.8727 56.0892 44.2294 56.4017 43.5714" stroke="#2E3237" stroke-width="2"/>
</svg>
