<svg width="20" height="20" viewBox="0 0 20 20" fill="none" xmlns="http://www.w3.org/2000/svg">
<path fill-rule="evenodd" clip-rule="evenodd" d="M6.38452 1.55762C5.41802 1.55762 4.63452 2.34112 4.63452 3.30762V16.6922C4.63452 17.6587 5.41802 18.4422 6.38452 18.4422H13.6153C14.5818 18.4422 15.3653 17.6587 15.3653 16.6922V3.30762C15.3653 2.34112 14.5818 1.55762 13.6153 1.55762H6.38452ZM6.13452 3.30762C6.13452 3.16955 6.24645 3.05762 6.38452 3.05762H13.6153C13.7534 3.05762 13.8653 3.16955 13.8653 3.30762V16.6922C13.8653 16.8303 13.7534 16.9422 13.6153 16.9422H6.38452C6.24645 16.9422 6.13452 16.8303 6.13452 16.6922V3.30762ZM9.99991 15.3845C10.4247 15.3845 10.7691 15.0401 10.7691 14.6153C10.7691 14.1905 10.4247 13.8461 9.99991 13.8461C9.57507 13.8461 9.23068 14.1905 9.23068 14.6153C9.23068 15.0401 9.57507 15.3845 9.99991 15.3845Z" fill="#2E3237"/>
</svg>
