<svg width="64" height="64" viewBox="0 0 64 64" fill="none" xmlns="http://www.w3.org/2000/svg">
<path d="M37 12.8471V55H15V9.18046L37 12.8471Z" stroke="#2E3237" stroke-width="2"/>
<path d="M59 30.8471V55H37V27.1805L59 30.8471Z" stroke="#2E3237" stroke-width="2"/>
<rect x="21" y="35" width="10" height="4" stroke="#2E3237" stroke-width="2"/>
<rect x="23" y="45" width="6" height="10" stroke="#2E3237" stroke-width="2"/>
<rect x="41" y="35" width="14" height="10" stroke="#2E3237" stroke-width="2"/>
<path d="M51 35V45" stroke="#2E3237" stroke-width="2" stroke-miterlimit="16"/>
<path d="M51 39L41 39" stroke="#2E3237" stroke-width="2" stroke-miterlimit="16"/>
<rect x="21" y="19" width="10" height="4" stroke="#2E3237" stroke-width="2"/>
<rect x="21" y="27" width="10" height="4" stroke="#2E3237" stroke-width="2"/>
<rect x="5" y="27" width="10" height="28" stroke="#2E3237" stroke-width="2"/>
<path d="M56 30.5V23C56 20.7909 54.2091 19 52 19H48M37 19H40M42 19H44" stroke="#2E3237" stroke-width="2" stroke-miterlimit="16"/>
<path d="M9 27L9 19" stroke="#2E3237" stroke-width="2" stroke-miterlimit="16"/>
<circle cx="9" cy="17" r="2" stroke="#2E3237" stroke-width="2"/>
</svg>
