<svg width="64" height="64" viewBox="0 0 64 64" fill="none" xmlns="http://www.w3.org/2000/svg">
    <path d="M32.5555 5.57369L34.6186 6.95194C35.2801 7.39379 36.0899 7.55487 36.8701 7.39977L39.3036 6.91597C39.7002 6.83712 40.1053 7.00491 40.33 7.34112L41.7087 9.404C42.1507 10.0653 42.8372 10.5241 43.6174 10.6793L46.0508 11.1636C46.4474 11.2426 46.7574 11.5526 46.8364 11.9492L47.3207 14.3826C47.4759 15.1628 47.9347 15.8493 48.596 16.2913L50.6589 17.67C50.9951 17.8947 51.1629 18.2998 51.084 18.6964L50.6002 21.1299C50.4451 21.9101 50.6062 22.7199 51.0481 23.3814L52.4263 25.4445C52.6509 25.7808 52.6509 26.2192 52.4263 26.5555L51.0481 28.6186C50.6062 29.2801 50.4451 30.0899 50.6002 30.8701L51.084 33.3036C51.1629 33.7002 50.9951 34.1053 50.6589 34.33L48.596 35.7087C47.9347 36.1507 47.4759 36.8372 47.3207 37.6174L46.8364 40.0508C46.7574 40.4474 46.4474 40.7574 46.0508 40.8364L43.6174 41.3207C42.8372 41.4759 42.1507 41.9347 41.7087 42.596L40.33 44.6589C40.1053 44.9951 39.7002 45.1629 39.3036 45.084L36.8701 44.6002C36.0899 44.4451 35.2801 44.6062 34.6186 45.0481L32.5555 46.4263C32.2192 46.6509 31.7808 46.6509 31.4445 46.4263L29.3814 45.0481C28.7199 44.6062 27.9101 44.4451 27.1299 44.6002L24.6964 45.084C24.2998 45.1629 23.8947 44.9951 23.67 44.6589L22.2913 42.596C21.8493 41.9347 21.1628 41.4759 20.3826 41.3207L17.9492 40.8364C17.5526 40.7574 17.2426 40.4474 17.1636 40.0508L16.6793 37.6174C16.5241 36.8372 16.0653 36.1507 15.404 35.7087L13.3411 34.33C13.0049 34.1053 12.8371 33.7002 12.916 33.3036L13.3998 30.8701C13.5549 30.0899 13.3938 29.2801 12.9519 28.6186L11.5737 26.5555C11.3491 26.2192 11.3491 25.7808 11.5737 25.4445L12.9519 23.3814C13.3938 22.7199 13.5549 21.9101 13.3998 21.1299L12.916 18.6964C12.8371 18.2998 13.0049 17.8947 13.3411 17.67L15.404 16.2913C16.0653 15.8493 16.5241 15.1628 16.6793 14.3826L17.1636 11.9492C17.2426 11.5526 17.5526 11.2426 17.9492 11.1636L20.3826 10.6793C21.1628 10.5241 21.8493 10.0653 22.2913 9.404L23.67 7.34112C23.8947 7.00491 24.2998 6.83712 24.6964 6.91597L27.1299 7.39977C27.9101 7.55487 28.7199 7.39379 29.3814 6.95194L31.4445 5.57368C31.7808 5.34905 32.2192 5.34905 32.5555 5.57369Z" stroke="#2E3237" stroke-width="2"/>
    <path d="M47 26C47 17.7157 40.2843 11 32 11C23.7157 11 17 17.7157 17 26C17 34.2843 23.7157 41 32 41C36.4425 41 40.4339 39.0687 43.1805 36M44.6909 34C45.0926 33.364 45.4479 32.6958 45.7519 32" stroke="#2E3237" stroke-width="2"/>
    <path d="M38 45.5V58L32 53.9989L26 58V45.5" stroke="#2E3237" stroke-width="2" stroke-miterlimit="16"/>
    <path d="M32 18.2596L34.0422 22.3975L34.2749 22.8689L34.7951 22.9445L39.3616 23.6081L36.0573 26.829L35.6808 27.196L35.7697 27.7141L36.5497 32.2622L32.4653 30.1149L32 29.8702L31.5347 30.1149L27.4503 32.2622L28.2303 27.7141L28.3192 27.196L27.9427 26.829L24.6384 23.6081L29.2049 22.9445L29.7251 22.8689L29.9578 22.3975L32 18.2596Z" stroke="#2E3237" stroke-width="2"/>
</svg>
