<svg width="478" height="422" viewBox="0 0 478 422" fill="none" xmlns="http://www.w3.org/2000/svg">
<g clip-path="url(#clip0_526_746)">
<g opacity="0.15">
<path d="M451.391 140.579L360.917 281.334H420.858L511.332 140.579L420.975 0.000488281H361.034L451.391 140.579Z" fill="#485386"/>
<path d="M210.027 140.667H269.962L179.546 0.000488281H119.606L210.027 140.667Z" fill="#485386"/>
<path d="M331.129 140.667L150.298 422H210.238L391.069 140.667H331.129Z" fill="#485386"/>
<path d="M511.221 421.912L511.162 422H571.103L571.161 421.912L480.799 281.333H420.864L511.221 421.912Z" fill="#485386"/>
<path d="M391.122 421.912L391.064 422H451.004L451.057 421.912L360.7 281.333H300.759L391.122 421.912Z" fill="#485386"/>
<path d="M90.3569 421.912L90.3041 422H150.239L150.298 421.912L59.9407 281.333H0L90.3569 421.912Z" fill="#485386"/>
<path d="M119.787 281.245L210.144 140.667H150.204L59.8468 281.245L59.8996 281.334H119.84L119.787 281.245Z" fill="#485386"/>
</g>
</g>
<defs>
<clipPath id="clip0_526_746">
<rect width="478" height="422" fill="white" transform="translate(0 0.000488281)"/>
</clipPath>
</defs>
</svg>
