<svg width="43" height="42" viewBox="0 0 43 42" fill="none" xmlns="http://www.w3.org/2000/svg">
<path d="M3.8335 14L20.8645 5.48447C21.0101 5.41175 21.1707 5.3739 21.3335 5.3739C21.4963 5.3739 21.6568 5.41175 21.8025 5.48447L38.8335 14M22.212 15.9775L25.7977 16.9067C26.2597 17.0275 26.5852 17.4475 26.5695 17.9252C26.279 26.656 21.3335 28 21.3335 28C21.3335 28 16.388 26.656 16.0975 17.9252C16.0912 17.693 16.1643 17.4656 16.3046 17.2805C16.4448 17.0953 16.644 16.9635 16.8692 16.9067L20.4567 15.9792C21.0323 15.8301 21.6364 15.8284 22.212 15.9775Z" stroke="#E94E1B" stroke-width="2" stroke-linecap="round" stroke-linejoin="round"/>
<path d="M35.3335 19.25V33.25C35.3335 34.1783 34.9647 35.0685 34.3084 35.7249C33.652 36.3813 32.7618 36.75 31.8335 36.75H10.8335C9.90524 36.75 9.015 36.3813 8.35862 35.7249C7.70224 35.0685 7.3335 34.1783 7.3335 33.25V19.25" stroke="#E94E1B" stroke-width="2" stroke-linecap="round" stroke-linejoin="round"/>
</svg>
