<svg width="64" height="64" viewBox="0 0 64 64" fill="none" xmlns="http://www.w3.org/2000/svg">
    <path d="M36 38.4C36 40.8489 34.4219 43 32 43C29.5781 43 28 40.8489 28 38.4C28 36.6553 29.0632 34.784 30.2833 33.2467C30.876 32.4998 31.4712 31.8746 31.9187 31.4361C31.9464 31.4089 31.9735 31.3825 32 31.3569C32.0265 31.3825 32.0536 31.4089 32.0813 31.4361C32.5288 31.8746 33.124 32.4998 33.7167 33.2467C34.9368 34.784 36 36.6553 36 38.4Z" stroke="#2E3237" stroke-width="2"/>
    <path d="M34 40.8C34 41.9998 33.2006 43 32 43C30.7994 43 30 41.9998 30 40.8C30 39.972 30.5457 39.0072 31.2682 38.1402C31.5227 37.8348 31.7787 37.5657 32 37.3482C32.2213 37.5657 32.4773 37.8348 32.7318 38.1402C33.4543 39.0072 34 39.972 34 40.8Z" stroke="#2E3237" stroke-width="2"/>
    <path d="M20 5H44C45.6569 5 47 6.34315 47 8V53H17V8C17 6.34315 18.3431 5 20 5Z" stroke="#2E3237" stroke-width="2"/>
    <rect x="21" y="9" width="22" height="14" rx="1" stroke="#2E3237" stroke-width="2"/>
    <path d="M14 53H50C50.5523 53 51 53.4477 51 54V59H13V54C13 53.4477 13.4477 53 14 53Z" stroke="#2E3237" stroke-width="2"/>
    <path d="M47 28V28C49.2091 28 51 29.7909 51 32V45C51 46.1046 51.8954 47 53 47V47C54.1046 47 55 46.1046 55 45V22.5V17.2518C55 15.1384 54.3304 13.0793 53.0874 11.3701L51 8.5" stroke="#2E3237" stroke-width="2"/>
    <path d="M55 14H53.6667C52.1939 14 51 15.1939 51 16.6667V16.6667C51 17.506 51.3952 18.2964 52.0667 18.8L55 21" stroke="#2E3237" stroke-width="2"/>
    <path d="M24 13C28.8 13 29.6667 13 30 13" stroke="#2E3237" stroke-width="2"/>
    <path d="M32 13C33.6 13 33.8889 13 34 13" stroke="#2E3237" stroke-width="2"/>
</svg>
