<svg width="64" height="64" viewBox="0 0 64 64" fill="none" xmlns="http://www.w3.org/2000/svg">
    <path d="M34.7294 43.9247L35.4587 44.2249L35.9206 43.5856L38.2118 40.4144C38.3998 40.1541 38.7014 40 39.0224 40H48C49.6569 40 51 41.3431 51 43V48C51 49.6569 49.6569 51 48 51H44.94H44.9397C40.745 51.0013 36.5911 50.176 32.7154 48.5713C28.8397 46.9667 25.3182 44.614 22.3521 41.6479C19.386 38.6818 17.0333 35.1603 15.4287 31.2846C13.824 27.4089 12.9987 23.255 13 19.0603V19.06V16C13 14.3431 14.3431 13 16 13H21C22.6569 13 24 14.3431 24 16V24.9776C24 25.2986 23.8459 25.6002 23.5856 25.7882L20.4144 28.0794L19.7751 28.5413L20.0753 29.2706C21.429 32.56 23.421 35.5485 25.9363 38.0637C28.4515 40.579 31.4401 42.571 34.7294 43.9247Z" stroke="#2E3237" stroke-width="2"/>
    <path d="M31 19C34.713 19 38.274 20.475 40.8995 23.1005C43.525 25.726 45 29.287 45 33" stroke="#2E3237" stroke-width="2" stroke-miterlimit="10"/>
    <path d="M50.9999 33C51.002 32.332 50.9686 31.6644 50.8999 31" stroke="#2E3237" stroke-width="2" stroke-miterlimit="10"/>
    <path d="M31 13C35.6106 12.9991 40.0799 14.5911 43.6516 17.5068C47.2233 20.4224 49.6779 24.4825 50.6 29" stroke="#2E3237" stroke-width="2" stroke-miterlimit="10"/>
</svg>
