<svg width="44" height="44" viewBox="0 0 44 44" fill="none" xmlns="http://www.w3.org/2000/svg">
<path d="M21.52 30.27C20.8 30.27 20.12 30.13 19.48 29.85C18.84 29.57 18.2833 29.1733 17.81 28.66C17.3433 28.1467 17.0067 27.54 16.8 26.84L19.13 26.21C19.2967 26.7833 19.6 27.2267 20.04 27.54C20.4867 27.8467 20.9767 27.9967 21.51 27.99C21.9833 27.99 22.4067 27.88 22.78 27.66C23.1533 27.44 23.4467 27.1433 23.66 26.77C23.8733 26.39 23.98 25.9667 23.98 25.5C23.98 24.7867 23.75 24.19 23.29 23.71C22.83 23.23 22.2367 22.99 21.51 22.99C21.29 22.99 21.0733 23.02 20.86 23.08C20.6533 23.14 20.4533 23.2233 20.26 23.33L19.16 21.43L24 17.29L24.21 17.87H17.36V15.6H26.19V17.88L22.3 21.62L22.28 20.91C23.1533 20.97 23.8967 21.2133 24.51 21.64C25.13 22.0667 25.6033 22.6167 25.93 23.29C26.2633 23.9633 26.43 24.7 26.43 25.5C26.43 26.4067 26.2067 27.22 25.76 27.94C25.32 28.66 24.7267 29.23 23.98 29.65C23.24 30.0633 22.42 30.27 21.52 30.27Z" fill="#E94E1B"/>
<rect x="0.5" y="0.5" width="43" height="43" rx="21.5" stroke="#E94E1B"/>
</svg>
