<svg width="64" height="64" viewBox="0 0 64 64" fill="none" xmlns="http://www.w3.org/2000/svg">
<path d="M4.5 37.5L32 27.5L59 37.5M53 55H37V50M11 55H27V41C27 38.2386 29.2386 36 32 36C34.7614 36 37 38.2386 37 41V42M37 48V46" stroke="#2E3237" stroke-width="2" stroke-miterlimit="16"/>
<path d="M14 38.5C14 39.8807 12.8807 41 11.5 41C10.1193 41 9 39.8807 9 38.5C9 37.1193 10.1193 36 11.5 36C12.8807 36 14 37.1193 14 38.5ZM14 45.5C14 46.8807 12.8807 48 11.5 48C10.1193 48 9 46.8807 9 45.5C9 44.1193 10.1193 43 11.5 43C12.8807 43 14 44.1193 14 45.5ZM14 52.5C14 53.8807 12.8807 55 11.5 55C10.1193 55 9 53.8807 9 52.5C9 51.1193 10.1193 50 11.5 50C12.8807 50 14 51.1193 14 52.5Z" stroke="#2E3237" stroke-width="2"/>
<path d="M56 38.5C56 39.8807 54.8807 41 53.5 41C52.1193 41 51 39.8807 51 38.5C51 37.1193 52.1193 36 53.5 36C54.8807 36 56 37.1193 56 38.5ZM56 45.5C56 46.8807 54.8807 48 53.5 48C52.1193 48 51 46.8807 51 45.5C51 44.1193 52.1193 43 53.5 43C54.8807 43 56 44.1193 56 45.5ZM56 52.5C56 53.8807 54.8807 55 53.5 55C52.1193 55 51 53.8807 51 52.5C51 51.1193 52.1193 50 53.5 50C54.8807 50 56 51.1193 56 52.5Z" stroke="#2E3237" stroke-width="2"/>
<path d="M16.5 33C16.234 32.4681 16.2481 28.665 16.3363 25M16.5 20L13 24M16.5 20C16.4441 21.3405 16.3808 23.1527 16.3363 25M16.5 20L16.3363 25M16.5 20L20 24M16.3363 25L13 29M16.3363 25L19.5 28.5" stroke="#2E3237" stroke-width="2" stroke-linecap="round" stroke-linejoin="round"/>
<path d="M26.5 29C26.234 28.4681 26.2481 24.665 26.3363 21M26.5 16L23 20M26.5 16C26.4441 17.3405 26.3808 19.1527 26.3363 21M26.5 16L26.3363 21M26.5 16L30 20M26.3363 21L23 25M26.3363 21L29.5 24.5" stroke="#2E3237" stroke-width="2" stroke-linecap="round" stroke-linejoin="round"/>
<path d="M38.5 29C38.234 28.4681 38.2481 24.665 38.3363 21M38.5 16L35 20M38.5 16C38.4441 17.3405 38.3808 19.1527 38.3363 21M38.5 16L38.3363 21M38.5 16L42 20M38.3363 21L35 25M38.3363 21L41.5 24.5" stroke="#2E3237" stroke-width="2" stroke-linecap="round" stroke-linejoin="round"/>
<path d="M47.5 33C47.234 32.4681 47.2481 28.665 47.3363 25M47.5 20L44 24M47.5 20C47.4441 21.3405 47.3808 23.1527 47.3363 25M47.5 20L47.3363 25M47.5 20L51 24M47.3363 25L44 29M47.3363 25L50.5 28.5M38.5 16L35 20M38.5 16C38.4441 17.3405 38.3808 19.1527 38.3363 21M38.5 16L38.3363 21M38.5 16L42 20M38.5 29C38.234 28.4681 38.2481 24.665 38.3363 21M38.3363 21L35 25M38.3363 21L41.5 24.5" stroke="#2E3237" stroke-width="2" stroke-linecap="round" stroke-linejoin="round"/>
</svg>
