<svg width="44" height="44" viewBox="0 0 44 44" fill="none" xmlns="http://www.w3.org/2000/svg">
<path d="M17 29.98V27.88L23.16 22.39C23.64 21.9633 23.9733 21.56 24.16 21.18C24.3467 20.8 24.44 20.4333 24.44 20.08C24.44 19.6 24.3367 19.1733 24.13 18.8C23.9233 18.42 23.6367 18.12 23.27 17.9C22.91 17.68 22.4933 17.57 22.02 17.57C21.52 17.57 21.0767 17.6867 20.69 17.92C20.31 18.1467 20.0133 18.45 19.8 18.83C19.5867 19.21 19.4867 19.62 19.5 20.06H17.02C17.02 19.1 17.2333 18.2633 17.66 17.55C18.0933 16.8367 18.6867 16.2833 19.44 15.89C20.2 15.4967 21.0767 15.3 22.07 15.3C22.99 15.3 23.8167 15.5067 24.55 15.92C25.2833 16.3267 25.86 16.8933 26.28 17.62C26.7 18.34 26.91 19.17 26.91 20.11C26.91 20.7967 26.8167 21.3733 26.63 21.84C26.4433 22.3067 26.1633 22.7367 25.79 23.13C25.4233 23.5233 24.9667 23.96 24.42 24.44L20.05 28.31L19.83 27.71H26.91V29.98H17Z" fill="#E94E1B"/>
<rect x="0.5" y="0.5" width="43" height="43" rx="21.5" stroke="#E94E1B"/>
</svg>
