<svg width="36" height="36" viewBox="0 0 36 36" fill="none" xmlns="http://www.w3.org/2000/svg">
<path d="M18.575 23.4443C18.575 23.4443 18.9148 23.4072 19.0888 23.2237C19.2481 23.0556 19.2426 22.7383 19.2426 22.7383C19.2426 22.7383 19.2214 21.2567 19.9222 21.038C20.6129 20.8228 21.4997 22.4707 22.4409 23.1044C23.1518 23.5835 23.6915 23.4786 23.6915 23.4786L26.2064 23.4443C26.2064 23.4443 27.5215 23.3647 26.898 22.3496C26.8464 22.2664 26.5343 21.5984 25.0286 20.2262C23.4511 18.7898 23.6629 19.0221 25.5618 16.5372C26.7184 15.024 27.1807 14.1002 27.0361 13.7051C26.8989 13.3273 26.048 13.4276 26.048 13.4276L23.2172 13.4448C23.2172 13.4448 23.0072 13.4168 22.8516 13.5081C22.6997 13.5976 22.6011 13.8064 22.6011 13.8064C22.6011 13.8064 22.1536 14.977 21.5559 15.9731C20.2952 18.0739 19.7915 18.1851 19.5852 18.0549C19.1054 17.7503 19.2251 16.8328 19.2251 16.181C19.2251 14.1444 19.5401 13.2956 18.6127 13.076C18.3051 13.0028 18.0786 12.9549 17.2912 12.9467C16.281 12.9368 15.4264 12.9503 14.942 13.1826C14.6197 13.3372 14.3711 13.6825 14.523 13.7024C14.71 13.7268 15.1336 13.8145 15.3583 14.1146C15.6484 14.5024 15.6382 15.372 15.6382 15.372C15.6382 15.372 15.8049 17.7693 15.2487 18.0667C14.8674 18.271 14.3444 17.8542 13.22 15.9478C12.6444 14.9716 12.2097 13.8922 12.2097 13.8922C12.2097 13.8922 12.1259 13.6907 11.9758 13.5822C11.7944 13.4511 11.5412 13.4104 11.5412 13.4104L8.85124 13.4276C8.85124 13.4276 8.44697 13.4385 8.2987 13.6111C8.16701 13.7639 8.28857 14.0812 8.28857 14.0812C8.28857 14.0812 10.3947 18.9182 12.7798 21.3561C14.9669 23.5907 17.4496 23.4443 17.4496 23.4443H18.575Z" fill="#2E3237"/>
</svg>
