<svg width="42" height="42" viewBox="0 0 42 42" fill="none" xmlns="http://www.w3.org/2000/svg">
<path d="M33.25 35H8.75C7.82174 35 6.9315 34.6313 6.27513 33.9749C5.61875 33.3185 5.25 32.4283 5.25 31.5V15.75C5.25 14.8217 5.61875 13.9315 6.27513 13.2751C6.9315 12.6187 7.82174 12.25 8.75 12.25H33.25C34.1783 12.25 35.0685 12.6187 35.7249 13.2751C36.3813 13.9315 36.75 14.8217 36.75 15.75V31.5C36.75 32.4283 36.3813 33.3185 35.7249 33.9749C35.0685 34.6313 34.1783 35 33.25 35Z" stroke="#E94E1B" stroke-width="2"/>
<path d="M28.875 24.5C28.6429 24.5 28.4204 24.4078 28.2563 24.2437C28.0922 24.0796 28 23.8571 28 23.625C28 23.3929 28.0922 23.1704 28.2563 23.0063C28.4204 22.8422 28.6429 22.75 28.875 22.75C29.1071 22.75 29.3296 22.8422 29.4937 23.0063C29.6578 23.1704 29.75 23.3929 29.75 23.625C29.75 23.8571 29.6578 24.0796 29.4937 24.2437C29.3296 24.4078 29.1071 24.5 28.875 24.5Z" fill="#E94E1B" stroke="#E94E1B" stroke-width="2" stroke-linecap="round" stroke-linejoin="round"/>
<path d="M31.5 12.2501V9.8053C31.4999 9.26893 31.3764 8.73977 31.1393 8.25868C30.9021 7.77759 30.5575 7.35745 30.1322 7.0307C29.7068 6.70394 29.2121 6.47932 28.6861 6.37418C28.1601 6.26904 27.617 6.28618 27.0987 6.4243L7.84875 11.5571C7.10334 11.7557 6.44444 12.195 5.97448 12.8068C5.50452 13.4185 5.24983 14.1684 5.25 14.9398V15.7501" stroke="#E94E1B" stroke-width="2"/>
</svg>
